Asap-Italic.ufo
<glyph name="exclam" format="1">
  <advance width="294"/>
  <unicode hex="0021"/>
  <outline>
    <contour>
      <point x="188" y="702" type="curve" smooth="yes"/>
      <point x="208" y="702" type="line" smooth="yes"/>
      <point x="237" y="702"/>
      <point x="245" y="694"/>
      <point x="245" y="680" type="curve" smooth="yes"/>
      <point x="245" y="667"/>
      <point x="195" y="376"/>
      <point x="170" y="224" type="curve" smooth="yes"/>
      <point x="168" y="210"/>
      <point x="158" y="202"/>
      <point x="137" y="202" type="curve" smooth="yes"/>
      <point x="126" y="202" type="line" smooth="yes"/>
      <point x="104" y="202"/>
      <point x="98" y="210"/>
      <point x="98" y="224" type="curve" smooth="yes"/>
      <point x="146" y="680" type="line" smooth="yes"/>
      <point x="148" y="694"/>
      <point x="160" y="702"/>
    </contour>
    <contour>
      <point x="114" y="108" type="curve" smooth="yes"/>
      <point x="131" y="108" type="line" smooth="yes"/>
      <point x="160" y="108"/>
      <point x="169" y="100"/>
      <point x="169" y="86" type="curve" smooth="yes"/>
      <point x="162" y="20" type="line" smooth="yes"/>
      <point x="160" y="6"/>
      <point x="146" y="-2"/>
      <point x="120" y="-2" type="curve" smooth="yes"/>
      <point x="103" y="-2" type="line" smooth="yes"/>
      <point x="73" y="-2"/>
      <point x="65" y="6"/>
      <point x="65" y="20" type="curve" smooth="yes"/>
      <point x="72" y="86" type="line" smooth="yes"/>
      <point x="73" y="100"/>
      <point x="84" y="108"/>
    </contour>
  </outline>
</glyph>
<glyph name="quotedbl" format="1">
  <advance width="319"/>
  <unicode hex="0022"/>
  <outline>
    <contour>
      <point x="102" y="702" type="curve" smooth="yes"/>
      <point x="112" y="702" type="line" smooth="yes"/>
      <point x="126" y="702"/>
      <point x="149" y="701"/>
      <point x="149" y="680" type="curve" smooth="yes"/>
      <point x="149" y="675"/>
      <point x="120" y="549"/>
      <point x="106" y="484" type="curve" smooth="yes"/>
      <point x="104" y="476"/>
      <point x="95" y="472"/>
      <point x="82" y="472" type="curve" smooth="yes"/>
      <point x="81" y="472" type="line" smooth="yes"/>
      <point x="67" y="472"/>
      <point x="60" y="475"/>
      <point x="60" y="484" type="curve" smooth="yes"/>
      <point x="60" y="680" type="line" smooth="yes"/>
      <point x="60" y="694"/>
      <point x="74" y="702"/>
    </contour>
    <contour>
      <point x="230" y="702" type="curve" smooth="yes"/>
      <point x="240" y="702" type="line" smooth="yes"/>
      <point x="254" y="702"/>
      <point x="277" y="701"/>
      <point x="277" y="680" type="curve" smooth="yes"/>
      <point x="277" y="675"/>
      <point x="248" y="549"/>
      <point x="234" y="484" type="curve" smooth="yes"/>
      <point x="232" y="476"/>
      <point x="223" y="472"/>
      <point x="210" y="472" type="curve" smooth="yes"/>
      <point x="209" y="472" type="line" smooth="yes"/>
      <point x="195" y="472"/>
      <point x="188" y="475"/>
      <point x="188" y="484" type="curve" smooth="yes"/>
      <point x="188" y="680" type="line" smooth="yes"/>
      <point x="188" y="694"/>
      <point x="202" y="702"/>
    </contour>
  </outline>
</glyph>
<glyph name="numbersign" format="1">
  <advance width="534"/>
  <unicode hex="0023"/>
  <outline>
    <contour>
      <point x="466" y="686" type="curve" smooth="yes"/>
      <point x="471" y="686" type="line" smooth="yes"/>
      <point x="491" y="686"/>
      <point x="497" y="680"/>
      <point x="497" y="671" type="curve" smooth="yes"/>
      <point x="497" y="659"/>
      <point x="484" y="625"/>
      <point x="448" y="497" type="curve"/>
      <point x="517" y="497" type="line" smooth="yes"/>
      <point x="532" y="497"/>
      <point x="534" y="487"/>
      <point x="534" y="467" type="curve" smooth="yes"/>
      <point x="534" y="429"/>
      <point x="522" y="420"/>
      <point x="509" y="420" type="curve" smooth="yes"/>
      <point x="425" y="420" type="line"/>
      <point x="384" y="273" type="line"/>
      <point x="460" y="273" type="line" smooth="yes"/>
      <point x="475" y="273"/>
      <point x="477" y="263"/>
      <point x="477" y="243" type="curve" smooth="yes"/>
      <point x="477" y="205"/>
      <point x="465" y="196"/>
      <point x="452" y="196" type="curve" smooth="yes"/>
      <point x="360" y="196" type="line"/>
      <point x="311" y="20" type="line" smooth="yes"/>
      <point x="306" y="6"/>
      <point x="299" y="-2"/>
      <point x="265" y="-2" type="curve" smooth="yes"/>
      <point x="261" y="-2" type="line" smooth="yes"/>
      <point x="241" y="-2"/>
      <point x="235" y="4"/>
      <point x="235" y="15" type="curve" smooth="yes"/>
      <point x="235" y="25"/>
      <point x="243" y="41"/>
      <point x="286" y="196" type="curve"/>
      <point x="168" y="196" type="line"/>
      <point x="118" y="20" type="line" smooth="yes"/>
      <point x="114" y="6"/>
      <point x="107" y="-2"/>
      <point x="72" y="-2" type="curve" smooth="yes"/>
      <point x="68" y="-2" type="line" smooth="yes"/>
      <point x="48" y="-2"/>
      <point x="42" y="4"/>
      <point x="42" y="15" type="curve" smooth="yes"/>
      <point x="42" y="25"/>
      <point x="50" y="41"/>
      <point x="93" y="196" type="curve"/>
      <point x="17" y="196" type="line" smooth="yes"/>
      <point x="2" y="196"/>
      <point x="0" y="205"/>
      <point x="0" y="226" type="curve" smooth="yes"/>
      <point x="0" y="264"/>
      <point x="11" y="273"/>
      <point x="25" y="273" type="curve" smooth="yes"/>
      <point x="116" y="273" type="line"/>
      <point x="158" y="420" type="line"/>
      <point x="76" y="420" type="line" smooth="yes"/>
      <point x="61" y="420"/>
      <point x="59" y="429"/>
      <point x="59" y="450" type="curve" smooth="yes"/>
      <point x="59" y="488"/>
      <point x="70" y="497"/>
      <point x="84" y="497" type="curve" smooth="yes"/>
      <point x="179" y="497" type="line"/>
      <point x="227" y="664" type="line" smooth="yes"/>
      <point x="231" y="678"/>
      <point x="236" y="686"/>
      <point x="274" y="686" type="curve" smooth="yes"/>
      <point x="278" y="686" type="line" smooth="yes"/>
      <point x="298" y="686"/>
      <point x="304" y="680"/>
      <point x="304" y="671" type="curve" smooth="yes"/>
      <point x="303" y="659"/>
      <point x="290" y="625"/>
      <point x="253" y="497" type="curve"/>
      <point x="372" y="497" type="line"/>
      <point x="419" y="664" type="line" smooth="yes"/>
      <point x="423" y="678"/>
      <point x="428" y="686"/>
    </contour>
    <contour>
      <point x="233" y="420" type="line"/>
      <point x="191" y="273" type="line"/>
      <point x="309" y="273" type="line"/>
      <point x="351" y="420" type="line"/>
    </contour>
  </outline>
</glyph>
<glyph name="dollar" format="1">
  <advance width="496"/>
  <unicode hex="0024"/>
  <outline>
    <contour>
      <point x="296" y="755" type="curve" smooth="yes"/>
      <point x="298" y="755" type="line" smooth="yes"/>
      <point x="310" y="755"/>
      <point x="314" y="748"/>
      <point x="314" y="735" type="curve" smooth="yes"/>
      <point x="314" y="732"/>
      <point x="312" y="716"/>
      <point x="311" y="706" type="curve"/>
      <point x="367" y="705"/>
      <point x="462" y="681"/>
      <point x="462" y="646" type="curve" smooth="yes"/>
      <point x="462" y="633"/>
      <point x="434" y="592"/>
      <point x="424" y="592" type="curve" smooth="yes"/>
      <point x="409" y="592"/>
      <point x="378" y="628"/>
      <point x="303" y="630" type="curve"/>
      <point x="278" y="403" type="line"/>
      <point x="358" y="372"/>
      <point x="448" y="334"/>
      <point x="448" y="218" type="curve" smooth="yes"/>
      <point x="448" y="89"/>
      <point x="361" y="7"/>
      <point x="235" y="-4" type="curve"/>
      <point x="231" y="-48" type="line" smooth="yes"/>
      <point x="230" y="-62"/>
      <point x="222" y="-68"/>
      <point x="209" y="-68" type="curve" smooth="yes"/>
      <point x="208" y="-68" type="line" smooth="yes"/>
      <point x="194" y="-68"/>
      <point x="191" y="-62"/>
      <point x="191" y="-48" type="curve" smooth="yes"/>
      <point x="191" y="-46"/>
      <point x="194" y="-20"/>
      <point x="195" y="-6" type="curve"/>
      <point x="144" y="-4"/>
      <point x="34" y="10"/>
      <point x="34" y="56" type="curve" smooth="yes"/>
      <point x="34" y="111"/>
      <point x="43" y="121"/>
      <point x="50" y="121" type="curve" smooth="yes"/>
      <point x="59" y="121"/>
      <point x="108" y="72"/>
      <point x="203" y="70" type="curve"/>
      <point x="230" y="324" type="line"/>
      <point x="151" y="356"/>
      <point x="65" y="389"/>
      <point x="65" y="498" type="curve" smooth="yes"/>
      <point x="65" y="611"/>
      <point x="146" y="691"/>
      <point x="270" y="704" type="curve"/>
      <point x="274" y="735" type="line" smooth="yes"/>
      <point x="276" y="749"/>
      <point x="280" y="755"/>
    </contour>
    <contour>
      <point x="240" y="418" type="curve"/>
      <point x="262" y="627" type="line"/>
      <point x="202" y="616"/>
      <point x="155" y="578"/>
      <point x="155" y="508" type="curve" smooth="yes"/>
      <point x="155" y="462"/>
      <point x="192" y="439"/>
    </contour>
    <contour>
      <point x="268" y="308" type="curve"/>
      <point x="243" y="73" type="line"/>
      <point x="308" y="85"/>
      <point x="357" y="134"/>
      <point x="357" y="204" type="curve" smooth="yes"/>
      <point x="357" y="258"/>
      <point x="318" y="285"/>
    </contour>
  </outline>
</glyph>
<glyph name="percent" format="1">
  <advance width="765"/>
  <unicode hex="0025"/>
  <outline>
    <contour>
      <point x="234" y="706" type="curve" smooth="yes"/>
      <point x="291" y="706"/>
      <point x="356" y="682"/>
      <point x="356" y="574" type="curve" smooth="yes"/>
      <point x="356" y="473"/>
      <point x="312" y="381"/>
      <point x="200" y="381" type="curve" smooth="yes"/>
      <point x="143" y="381"/>
      <point x="78" y="404"/>
      <point x="78" y="510" type="curve" smooth="yes"/>
      <point x="78" y="672"/>
      <point x="167" y="706"/>
    </contour>
    <contour>
      <point x="601" y="702" type="curve" smooth="yes"/>
      <point x="626" y="702" type="line" smooth="yes"/>
      <point x="635" y="702"/>
      <point x="639" y="698"/>
      <point x="639" y="693" type="curve" smooth="yes"/>
      <point x="639" y="691"/>
      <point x="638" y="687"/>
      <point x="635" y="683" type="curve" smooth="yes"/>
      <point x="196" y="17" type="line" smooth="yes"/>
      <point x="188" y="5"/>
      <point x="179" y="-2"/>
      <point x="165" y="-2" type="curve" smooth="yes"/>
      <point x="140" y="-2" type="line" smooth="yes"/>
      <point x="131" y="-2"/>
      <point x="127" y="2"/>
      <point x="127" y="6" type="curve" smooth="yes"/>
      <point x="127" y="9"/>
      <point x="128" y="13"/>
      <point x="131" y="17" type="curve" smooth="yes"/>
      <point x="570" y="683" type="line" smooth="yes"/>
      <point x="578" y="695"/>
      <point x="587" y="702"/>
    </contour>
    <contour>
      <point x="228" y="652" type="curve" smooth="yes"/>
      <point x="148" y="652"/>
      <point x="144" y="551"/>
      <point x="144" y="509" type="curve" smooth="yes"/>
      <point x="144" y="471"/>
      <point x="155" y="436"/>
      <point x="205" y="436" type="curve" smooth="yes"/>
      <point x="275" y="436"/>
      <point x="292" y="514"/>
      <point x="292" y="575" type="curve" smooth="yes"/>
      <point x="292" y="614"/>
      <point x="281" y="652"/>
    </contour>
    <contour>
      <point x="564" y="319" type="curve" smooth="yes"/>
      <point x="621" y="319"/>
      <point x="686" y="295"/>
      <point x="686" y="187" type="curve" smooth="yes"/>
      <point x="686" y="86"/>
      <point x="642" y="-6"/>
      <point x="530" y="-6" type="curve" smooth="yes"/>
      <point x="473" y="-6"/>
      <point x="408" y="17"/>
      <point x="408" y="123" type="curve" smooth="yes"/>
      <point x="408" y="285"/>
      <point x="497" y="319"/>
    </contour>
    <contour>
      <point x="558" y="265" type="curve" smooth="yes"/>
      <point x="478" y="265"/>
      <point x="474" y="164"/>
      <point x="474" y="122" type="curve" smooth="yes"/>
      <point x="474" y="84"/>
      <point x="485" y="49"/>
      <point x="535" y="49" type="curve" smooth="yes"/>
      <point x="605" y="49"/>
      <point x="622" y="127"/>
      <point x="622" y="188" type="curve" smooth="yes"/>
      <point x="622" y="227"/>
      <point x="611" y="265"/>
    </contour>
  </outline>
</glyph>
<glyph name="ampersand" format="1">
  <advance width="624"/>
  <unicode hex="0026"/>
  <outline>
    <contour>
      <point x="312" y="706" type="curve" smooth="yes"/>
      <point x="338" y="706"/>
      <point x="391" y="704"/>
      <point x="391" y="679" type="curve" smooth="yes"/>
      <point x="391" y="664"/>
      <point x="375" y="628"/>
      <point x="364" y="628" type="curve" smooth="yes"/>
      <point x="355" y="628"/>
      <point x="342" y="634"/>
      <point x="306" y="634" type="curve" smooth="yes"/>
      <point x="191" y="634"/>
      <point x="174" y="551"/>
      <point x="174" y="518" type="curve" smooth="yes"/>
      <point x="174" y="469"/>
      <point x="207" y="408"/>
      <point x="297" y="408" type="curve" smooth="yes"/>
      <point x="414" y="408" type="line"/>
      <point x="426" y="513" type="line" smooth="yes"/>
      <point x="428" y="529"/>
      <point x="441" y="535"/>
      <point x="467" y="535" type="curve" smooth="yes"/>
      <point x="471" y="535" type="line" smooth="yes"/>
      <point x="499" y="535"/>
      <point x="509" y="528"/>
      <point x="509" y="513" type="curve" smooth="yes"/>
      <point x="498" y="408" type="line"/>
      <point x="583" y="408" type="line" smooth="yes"/>
      <point x="595" y="408"/>
      <point x="599" y="403"/>
      <point x="599" y="389" type="curve" smooth="yes"/>
      <point x="599" y="385"/>
      <point x="592" y="336"/>
      <point x="554" y="336" type="curve" smooth="yes"/>
      <point x="490" y="336" type="line"/>
      <point x="490" y="336"/>
      <point x="469" y="143"/>
      <point x="469" y="123" type="curve" smooth="yes"/>
      <point x="469" y="77"/>
      <point x="491" y="66"/>
      <point x="517" y="66" type="curve" smooth="yes"/>
      <point x="548" y="66"/>
      <point x="555" y="73"/>
      <point x="562" y="73" type="curve" smooth="yes"/>
      <point x="565" y="73"/>
      <point x="569" y="71"/>
      <point x="569" y="64" type="curve" smooth="yes"/>
      <point x="569" y="53"/>
      <point x="568" y="34"/>
      <point x="566" y="28" type="curve" smooth="yes"/>
      <point x="560" y="9"/>
      <point x="536" y="-6"/>
      <point x="496" y="-6" type="curve" smooth="yes"/>
      <point x="465" y="-6"/>
      <point x="423" y="0"/>
      <point x="400" y="36" type="curve"/>
      <point x="365" y="16"/>
      <point x="308" y="-6"/>
      <point x="235" y="-6" type="curve" smooth="yes"/>
      <point x="142" y="-6"/>
      <point x="32" y="42"/>
      <point x="32" y="175" type="curve" smooth="yes"/>
      <point x="32" y="297"/>
      <point x="113" y="370"/>
      <point x="179" y="387" type="curve"/>
      <point x="180" y="391" type="line"/>
      <point x="130" y="411"/>
      <point x="91" y="456"/>
      <point x="91" y="520" type="curve" smooth="yes"/>
      <point x="91" y="645"/>
      <point x="193" y="706"/>
    </contour>
    <contour>
      <point x="406" y="336" type="curve"/>
      <point x="285" y="336" type="line" smooth="yes"/>
      <point x="193" y="336"/>
      <point x="120" y="302"/>
      <point x="120" y="184" type="curve" smooth="yes"/>
      <point x="120" y="91"/>
      <point x="195" y="66"/>
      <point x="251" y="66" type="curve" smooth="yes"/>
      <point x="300" y="66"/>
      <point x="351" y="84"/>
      <point x="384" y="103" type="curve"/>
      <point x="384" y="134"/>
      <point x="406" y="336"/>
    </contour>
  </outline>
</glyph>
<glyph name="asterisk" format="1">
  <advance width="373"/>
  <unicode hex="002A"/>
  <outline>
    <contour>
      <point x="196" y="709" type="curve" smooth="yes"/>
      <point x="210" y="709"/>
      <point x="214" y="703"/>
      <point x="214" y="689" type="curve" smooth="yes"/>
      <point x="203" y="584" type="line"/>
      <point x="305" y="616" type="line" smooth="yes"/>
      <point x="308" y="617"/>
      <point x="311" y="617"/>
      <point x="314" y="617" type="curve" smooth="yes"/>
      <point x="321" y="617"/>
      <point x="330" y="610"/>
      <point x="330" y="596" type="curve" smooth="yes"/>
      <point x="330" y="587"/>
      <point x="326" y="581"/>
      <point x="314" y="578" type="curve" smooth="yes"/>
      <point x="212" y="546" type="line"/>
      <point x="273" y="447" type="line" smooth="yes"/>
      <point x="275" y="443"/>
      <point x="277" y="439"/>
      <point x="277" y="436" type="curve" smooth="yes"/>
      <point x="277" y="427"/>
      <point x="263" y="414"/>
      <point x="253" y="414" type="curve" smooth="yes"/>
      <point x="247" y="414"/>
      <point x="242" y="417"/>
      <point x="239" y="423" type="curve" smooth="yes"/>
      <point x="177" y="524" type="line"/>
      <point x="93" y="423" type="line" smooth="yes"/>
      <point x="87" y="417"/>
      <point x="82" y="414"/>
      <point x="77" y="414" type="curve" smooth="yes"/>
      <point x="69" y="414"/>
      <point x="57" y="424"/>
      <point x="57" y="432" type="curve" smooth="yes"/>
      <point x="57" y="436"/>
      <point x="58" y="441"/>
      <point x="63" y="447" type="curve" smooth="yes"/>
      <point x="145" y="546" type="line"/>
      <point x="50" y="578" type="line" smooth="yes"/>
      <point x="42" y="581"/>
      <point x="38" y="585"/>
      <point x="38" y="591" type="curve" smooth="yes"/>
      <point x="38" y="607"/>
      <point x="49" y="617"/>
      <point x="58" y="617" type="curve" smooth="yes"/>
      <point x="61" y="617"/>
      <point x="64" y="617"/>
      <point x="67" y="616" type="curve" smooth="yes"/>
      <point x="163" y="584" type="line"/>
      <point x="174" y="689" type="line" smooth="yes"/>
      <point x="175" y="703"/>
      <point x="182" y="709"/>
    </contour>
  </outline>
</glyph>
<glyph name="hyphen" format="1">
  <advance width="320"/>
  <unicode hex="002D"/>
  <outline>
    <contour>
      <point x="65" y="301" type="curve" smooth="yes"/>
      <point x="259" y="301" type="line" smooth="yes"/>
      <point x="273" y="301"/>
      <point x="276" y="290"/>
      <point x="276" y="274" type="curve" smooth="yes"/>
      <point x="276" y="263"/>
      <point x="275" y="229"/>
      <point x="251" y="229" type="curve" smooth="yes"/>
      <point x="57" y="229" type="line" smooth="yes"/>
      <point x="43" y="229"/>
      <point x="40" y="240"/>
      <point x="40" y="256" type="curve" smooth="yes"/>
      <point x="40" y="267"/>
      <point x="41" y="301"/>
    </contour>
  </outline>
</glyph>
<glyph name="period" format="1">
  <advance width="198"/>
  <unicode hex="002E"/>
  <outline>
    <contour>
      <point x="96" y="108" type="curve" smooth="yes"/>
      <point x="113" y="108" type="line" smooth="yes"/>
      <point x="142" y="108"/>
      <point x="151" y="100"/>
      <point x="151" y="86" type="curve" smooth="yes"/>
      <point x="144" y="20" type="line" smooth="yes"/>
      <point x="142" y="6"/>
      <point x="130" y="-2"/>
      <point x="102" y="-2" type="curve" smooth="yes"/>
      <point x="85" y="-2" type="line" smooth="yes"/>
      <point x="56" y="-2"/>
      <point x="47" y="6"/>
      <point x="47" y="20" type="curve" smooth="yes"/>
      <point x="54" y="86" type="line" smooth="yes"/>
      <point x="55" y="100"/>
      <point x="67" y="108"/>
    </contour>
  </outline>
</glyph>
<glyph name="zero" format="1">
  <advance width="535"/>
  <unicode hex="0030"/>
  <outline>
    <contour>
      <point x="303" y="706" type="curve" smooth="yes"/>
      <point x="410" y="706"/>
      <point x="499" y="621"/>
      <point x="499" y="427" type="curve" smooth="yes"/>
      <point x="499" y="123"/>
      <point x="355" y="-6"/>
      <point x="228" y="-6" type="curve" smooth="yes"/>
      <point x="122" y="-6"/>
      <point x="34" y="78"/>
      <point x="34" y="269" type="curve" smooth="yes"/>
      <point x="34" y="576"/>
      <point x="176" y="706"/>
    </contour>
    <contour>
      <point x="295" y="634" type="curve" smooth="yes"/>
      <point x="220" y="634"/>
      <point x="119" y="540"/>
      <point x="119" y="270" type="curve" smooth="yes"/>
      <point x="119" y="121"/>
      <point x="174" y="66"/>
      <point x="236" y="66" type="curve" smooth="yes"/>
      <point x="310" y="66"/>
      <point x="414" y="159"/>
      <point x="414" y="425" type="curve" smooth="yes"/>
      <point x="414" y="577"/>
      <point x="357" y="634"/>
    </contour>
  </outline>
</glyph>
<glyph name="one" format="1">
  <advance width="535"/>
  <unicode hex="0031"/>
  <outline>
    <contour>
      <point x="89" y="651" type="curve" smooth="yes"/>
      <point x="326" y="702" type="line" smooth="yes"/>
      <point x="342" y="702"/>
      <point x="355" y="693"/>
      <point x="355" y="681" type="curve" smooth="yes"/>
      <point x="291" y="72" type="line"/>
      <point x="440" y="72" type="line" smooth="yes"/>
      <point x="454" y="72"/>
      <point x="457" y="61"/>
      <point x="457" y="45" type="curve" smooth="yes"/>
      <point x="457" y="34"/>
      <point x="456" y="0"/>
      <point x="432" y="0" type="curve" smooth="yes"/>
      <point x="25" y="0" type="line" smooth="yes"/>
      <point x="11" y="0"/>
      <point x="8" y="11"/>
      <point x="8" y="27" type="curve" smooth="yes"/>
      <point x="8" y="38"/>
      <point x="9" y="72"/>
      <point x="33" y="72" type="curve" smooth="yes"/>
      <point x="207" y="72" type="line"/>
      <point x="264" y="611" type="line"/>
      <point x="84" y="581" type="line" smooth="yes"/>
      <point x="72" y="581"/>
      <point x="68" y="603"/>
      <point x="68" y="621" type="curve" smooth="yes"/>
      <point x="68" y="640"/>
      <point x="72" y="647"/>
    </contour>
  </outline>
</glyph>
<glyph name="two" format="1">
  <advance width="535"/>
  <unicode hex="0032"/>
  <outline>
    <contour>
      <point x="291" y="706" type="curve" smooth="yes"/>
      <point x="413" y="706"/>
      <point x="487" y="646"/>
      <point x="487" y="556" type="curve" smooth="yes"/>
      <point x="487" y="484"/>
      <point x="464" y="434"/>
      <point x="406" y="370" type="curve" smooth="yes"/>
      <point x="136" y="72" type="line"/>
      <point x="424" y="72" type="line" smooth="yes"/>
      <point x="438" y="72"/>
      <point x="441" y="61"/>
      <point x="441" y="45" type="curve" smooth="yes"/>
      <point x="441" y="34"/>
      <point x="440" y="0"/>
      <point x="416" y="0" type="curve" smooth="yes"/>
      <point x="42" y="0" type="line" smooth="yes"/>
      <point x="32" y="0"/>
      <point x="22" y="34"/>
      <point x="22" y="52" type="curve" smooth="yes"/>
      <point x="22" y="56"/>
      <point x="22" y="59"/>
      <point x="24" y="61" type="curve" smooth="yes"/>
      <point x="333" y="403" type="line" smooth="yes"/>
      <point x="380" y="455"/>
      <point x="400" y="503"/>
      <point x="400" y="543" type="curve" smooth="yes"/>
      <point x="400" y="599"/>
      <point x="357" y="634"/>
      <point x="285" y="634" type="curve" smooth="yes"/>
      <point x="194" y="634"/>
      <point x="147" y="583"/>
      <point x="130" y="583" type="curve" smooth="yes"/>
      <point x="120" y="583"/>
      <point x="103" y="615"/>
      <point x="103" y="631" type="curve" smooth="yes"/>
      <point x="103" y="674"/>
      <point x="229" y="706"/>
    </contour>
  </outline>
</glyph>
<glyph name="three" format="1">
  <advance width="535"/>
  <unicode hex="0033"/>
  <outline>
    <contour>
      <point x="281" y="706" type="curve" smooth="yes"/>
      <point x="391" y="706"/>
      <point x="465" y="656"/>
      <point x="465" y="554" type="curve" smooth="yes"/>
      <point x="465" y="469"/>
      <point x="411" y="415"/>
      <point x="347" y="391" type="curve"/>
      <point x="346" y="387" type="line"/>
      <point x="400" y="372"/>
      <point x="454" y="318"/>
      <point x="454" y="228" type="curve" smooth="yes"/>
      <point x="454" y="55"/>
      <point x="309" y="-6"/>
      <point x="208" y="-6" type="curve" smooth="yes"/>
      <point x="181" y="-6"/>
      <point x="40" y="0"/>
      <point x="40" y="44" type="curve" smooth="yes"/>
      <point x="40" y="98"/>
      <point x="48" y="103"/>
      <point x="55" y="103" type="curve" smooth="yes"/>
      <point x="62" y="103"/>
      <point x="116" y="66"/>
      <point x="208" y="66" type="curve" smooth="yes"/>
      <point x="272" y="66"/>
      <point x="367" y="99"/>
      <point x="367" y="228" type="curve" smooth="yes"/>
      <point x="367" y="311"/>
      <point x="312" y="336"/>
      <point x="230" y="336" type="curve" smooth="yes"/>
      <point x="196" y="336" type="line" smooth="yes"/>
      <point x="182" y="336"/>
      <point x="179" y="347"/>
      <point x="179" y="363" type="curve" smooth="yes"/>
      <point x="179" y="374"/>
      <point x="180" y="407"/>
      <point x="204" y="407" type="curve" smooth="yes"/>
      <point x="233" y="407" type="line" smooth="yes"/>
      <point x="344" y="407"/>
      <point x="380" y="503"/>
      <point x="380" y="548" type="curve" smooth="yes"/>
      <point x="380" y="586"/>
      <point x="359" y="634"/>
      <point x="271" y="634" type="curve" smooth="yes"/>
      <point x="180" y="634"/>
      <point x="141" y="601"/>
      <point x="124" y="601" type="curve" smooth="yes"/>
      <point x="113" y="601"/>
      <point x="96" y="636"/>
      <point x="96" y="652" type="curve" smooth="yes"/>
      <point x="96" y="682"/>
      <point x="219" y="706"/>
    </contour>
  </outline>
</glyph>
<glyph name="four" format="1">
  <advance width="535"/>
  <unicode hex="0034"/>
  <outline>
    <contour>
      <point x="419" y="702" type="curve" smooth="yes"/>
      <point x="435" y="702" type="line" smooth="yes"/>
      <point x="458" y="702"/>
      <point x="463" y="693"/>
      <point x="463" y="680" type="curve" smooth="yes"/>
      <point x="417" y="239" type="line"/>
      <point x="485" y="239" type="line" smooth="yes"/>
      <point x="499" y="239"/>
      <point x="502" y="228"/>
      <point x="502" y="212" type="curve" smooth="yes"/>
      <point x="502" y="201"/>
      <point x="501" y="167"/>
      <point x="477" y="167" type="curve" smooth="yes"/>
      <point x="409" y="167" type="line"/>
      <point x="394" y="20" type="line" smooth="yes"/>
      <point x="392" y="6"/>
      <point x="380" y="-2"/>
      <point x="362" y="-2" type="curve" smooth="yes"/>
      <point x="339" y="-2" type="line" smooth="yes"/>
      <point x="317" y="-2"/>
      <point x="311" y="5"/>
      <point x="311" y="20" type="curve" smooth="yes"/>
      <point x="326" y="167" type="line"/>
      <point x="22" y="167" type="line" smooth="yes"/>
      <point x="12" y="167"/>
      <point x="4" y="193"/>
      <point x="4" y="212" type="curve" smooth="yes"/>
      <point x="4" y="220"/>
      <point x="5" y="227"/>
      <point x="7" y="229" type="curve" smooth="yes"/>
      <point x="384" y="688" type="line" smooth="yes"/>
      <point x="392" y="697"/>
      <point x="405" y="702"/>
    </contour>
    <contour>
      <point x="105" y="239" type="line"/>
      <point x="334" y="239" type="line"/>
      <point x="367" y="557" type="line"/>
      <point x="363" y="559" type="line"/>
    </contour>
  </outline>
</glyph>
<glyph name="five" format="1">
  <advance width="535"/>
  <unicode hex="0035"/>
  <outline>
    <contour>
      <point x="181" y="700" type="curve" smooth="yes"/>
      <point x="448" y="700" type="line" smooth="yes"/>
      <point x="462" y="700"/>
      <point x="465" y="689"/>
      <point x="465" y="673" type="curve" smooth="yes"/>
      <point x="465" y="662"/>
      <point x="464" y="628"/>
      <point x="440" y="628" type="curve" smooth="yes"/>
      <point x="222" y="628" type="line"/>
      <point x="187" y="422" type="line"/>
      <point x="239" y="422" type="line" smooth="yes"/>
      <point x="340" y="422"/>
      <point x="460" y="380"/>
      <point x="460" y="241" type="curve" smooth="yes"/>
      <point x="460" y="44"/>
      <point x="310" y="-6"/>
      <point x="196" y="-6" type="curve" smooth="yes"/>
      <point x="169" y="-6"/>
      <point x="42" y="0"/>
      <point x="42" y="44" type="curve" smooth="yes"/>
      <point x="42" y="98"/>
      <point x="50" y="103"/>
      <point x="57" y="103" type="curve" smooth="yes"/>
      <point x="64" y="103"/>
      <point x="118" y="66"/>
      <point x="203" y="66" type="curve" smooth="yes"/>
      <point x="283" y="66"/>
      <point x="374" y="117"/>
      <point x="374" y="232" type="curve" smooth="yes"/>
      <point x="374" y="309"/>
      <point x="316" y="350"/>
      <point x="208" y="350" type="curve" smooth="yes"/>
      <point x="123" y="350" type="line" smooth="yes"/>
      <point x="104" y="350"/>
      <point x="97" y="357"/>
      <point x="97" y="372" type="curve" smooth="yes"/>
      <point x="97" y="375"/>
      <point x="98" y="377"/>
      <point x="145" y="670" type="curve" smooth="yes"/>
      <point x="148" y="691"/>
      <point x="160" y="700"/>
    </contour>
  </outline>
</glyph>
<glyph name="seven" format="1">
  <advance width="535"/>
  <unicode hex="0037"/>
  <outline>
    <contour>
      <point x="111" y="700" type="curve" smooth="yes"/>
      <point x="506" y="700" type="line" smooth="yes"/>
      <point x="513" y="700"/>
      <point x="521" y="675"/>
      <point x="521" y="655" type="curve" smooth="yes"/>
      <point x="521" y="648"/>
      <point x="520" y="643"/>
      <point x="518" y="638" type="curve" smooth="yes"/>
      <point x="156" y="14" type="line" smooth="yes"/>
      <point x="150" y="4"/>
      <point x="135" y="-2"/>
      <point x="115" y="-2" type="curve" smooth="yes"/>
      <point x="103" y="-2" type="line" smooth="yes"/>
      <point x="76" y="-2"/>
      <point x="62" y="1"/>
      <point x="62" y="13" type="curve" smooth="yes"/>
      <point x="62" y="17"/>
      <point x="63" y="21"/>
      <point x="67" y="28" type="curve" smooth="yes"/>
      <point x="419" y="628" type="line"/>
      <point x="103" y="628" type="line" smooth="yes"/>
      <point x="89" y="628"/>
      <point x="86" y="639"/>
      <point x="86" y="655" type="curve" smooth="yes"/>
      <point x="86" y="666"/>
      <point x="87" y="700"/>
    </contour>
  </outline>
</glyph>
<glyph name="colon" format="1">
  <advance width="198"/>
  <unicode hex="003A"/>
  <outline>
    <contour>
      <point x="118" y="525" type="curve" smooth="yes"/>
      <point x="135" y="525" type="line" smooth="yes"/>
      <point x="164" y="525"/>
      <point x="173" y="517"/>
      <point x="173" y="503" type="curve" smooth="yes"/>
      <point x="166" y="437" type="line" smooth="yes"/>
      <point x="164" y="423"/>
      <point x="152" y="415"/>
      <point x="124" y="415" type="curve" smooth="yes"/>
      <point x="107" y="415" type="line" smooth="yes"/>
      <point x="78" y="415"/>
      <point x="69" y="423"/>
      <point x="69" y="437" type="curve" smooth="yes"/>
      <point x="76" y="503" type="line" smooth="yes"/>
      <point x="77" y="517"/>
      <point x="89" y="525"/>
    </contour>
    <contour>
      <point x="74" y="108" type="curve" smooth="yes"/>
      <point x="91" y="108" type="line" smooth="yes"/>
      <point x="120" y="108"/>
      <point x="129" y="100"/>
      <point x="129" y="86" type="curve" smooth="yes"/>
      <point x="122" y="20" type="line" smooth="yes"/>
      <point x="120" y="6"/>
      <point x="108" y="-2"/>
      <point x="80" y="-2" type="curve" smooth="yes"/>
      <point x="63" y="-2" type="line" smooth="yes"/>
      <point x="34" y="-2"/>
      <point x="25" y="6"/>
      <point x="25" y="20" type="curve" smooth="yes"/>
      <point x="32" y="86" type="line" smooth="yes"/>
      <point x="33" y="100"/>
      <point x="45" y="108"/>
    </contour>
  </outline>
</glyph>
<glyph name="semicolon" format="1">
  <advance width="198"/>
  <unicode hex="003B"/>
  <outline>
    <contour>
      <point x="124" y="525" type="curve" smooth="yes"/>
      <point x="141" y="525" type="line" smooth="yes"/>
      <point x="170" y="525"/>
      <point x="179" y="517"/>
      <point x="179" y="503" type="curve" smooth="yes"/>
      <point x="172" y="437" type="line" smooth="yes"/>
      <point x="170" y="423"/>
      <point x="158" y="415"/>
      <point x="130" y="415" type="curve" smooth="yes"/>
      <point x="113" y="415" type="line" smooth="yes"/>
      <point x="84" y="415"/>
      <point x="75" y="423"/>
      <point x="75" y="437" type="curve" smooth="yes"/>
      <point x="82" y="503" type="line" smooth="yes"/>
      <point x="83" y="517"/>
      <point x="95" y="525"/>
    </contour>
    <contour>
      <point x="90" y="108" type="curve" smooth="yes"/>
      <point x="99" y="108" type="line" smooth="yes"/>
      <point x="125" y="108"/>
      <point x="136" y="97"/>
      <point x="136" y="80" type="curve" smooth="yes"/>
      <point x="124" y="-40"/>
      <point x="46" y="-116"/>
      <point x="13" y="-116" type="curve" smooth="yes"/>
      <point x="2" y="-116"/>
      <point x="-15" y="-113"/>
      <point x="-15" y="-102" type="curve" smooth="yes"/>
      <point x="-15" y="-96"/>
      <point x="-12" y="-92"/>
      <point x="-7" y="-84" type="curve" smooth="yes"/>
      <point x="26" y="-33"/>
      <point x="40" y="10"/>
      <point x="47" y="76" type="curve" smooth="yes"/>
      <point x="49" y="95"/>
      <point x="63" y="108"/>
    </contour>
  </outline>
</glyph>
<glyph name="less" format="1">
  <advance width="560"/>
  <unicode hex="003C"/>
  <outline>
    <contour>
      <point x="515" y="448" type="curve" smooth="yes"/>
      <point x="528" y="448"/>
      <point x="533" y="439"/>
      <point x="533" y="422" type="curve" smooth="yes"/>
      <point x="533" y="389"/>
      <point x="521" y="379"/>
      <point x="504" y="373" type="curve" smooth="yes"/>
      <point x="133" y="228" type="line"/>
      <point x="473" y="82" type="line" smooth="yes"/>
      <point x="486" y="76"/>
      <point x="493" y="66"/>
      <point x="493" y="47" type="curve" smooth="yes"/>
      <point x="493" y="21"/>
      <point x="483" y="7"/>
      <point x="468" y="7" type="curve" smooth="yes"/>
      <point x="463" y="7"/>
      <point x="458" y="8"/>
      <point x="454" y="10" type="curve" smooth="yes"/>
      <point x="61" y="184" type="line" smooth="yes"/>
      <point x="46" y="191"/>
      <point x="40" y="200"/>
      <point x="40" y="215" type="curve" smooth="yes"/>
      <point x="40" y="253"/>
      <point x="54" y="264"/>
      <point x="70" y="271" type="curve" smooth="yes"/>
      <point x="499" y="445" type="line" smooth="yes"/>
      <point x="505" y="447"/>
      <point x="510" y="448"/>
    </contour>
  </outline>
</glyph>
<glyph name="equal" format="1">
  <advance width="560"/>
  <unicode hex="003D"/>
  <outline>
    <contour>
      <point x="79" y="338" type="curve" smooth="yes"/>
      <point x="507" y="338" type="line" smooth="yes"/>
      <point x="521" y="338"/>
      <point x="524" y="330"/>
      <point x="524" y="314" type="curve" smooth="yes"/>
      <point x="524" y="303"/>
      <point x="523" y="271"/>
      <point x="499" y="271" type="curve" smooth="yes"/>
      <point x="71" y="271" type="line" smooth="yes"/>
      <point x="57" y="271"/>
      <point x="54" y="284"/>
      <point x="54" y="300" type="curve" smooth="yes"/>
      <point x="54" y="311"/>
      <point x="55" y="338"/>
    </contour>
    <contour>
      <point x="62" y="175" type="curve" smooth="yes"/>
      <point x="490" y="175" type="line" smooth="yes"/>
      <point x="504" y="175"/>
      <point x="507" y="167"/>
      <point x="507" y="151" type="curve" smooth="yes"/>
      <point x="507" y="140"/>
      <point x="506" y="108"/>
      <point x="482" y="108" type="curve" smooth="yes"/>
      <point x="54" y="108" type="line" smooth="yes"/>
      <point x="40" y="108"/>
      <point x="37" y="121"/>
      <point x="37" y="137" type="curve" smooth="yes"/>
      <point x="37" y="148"/>
      <point x="38" y="175"/>
    </contour>
  </outline>
</glyph>
<glyph name="greater" format="1">
  <advance width="560"/>
  <unicode hex="003E"/>
  <outline>
    <contour>
      <point x="90" y="447" type="curve" smooth="yes"/>
      <point x="95" y="447"/>
      <point x="100" y="446"/>
      <point x="104" y="444" type="curve" smooth="yes"/>
      <point x="497" y="270" type="line" smooth="yes"/>
      <point x="512" y="263"/>
      <point x="518" y="254"/>
      <point x="518" y="239" type="curve" smooth="yes"/>
      <point x="518" y="201"/>
      <point x="504" y="190"/>
      <point x="488" y="183" type="curve" smooth="yes"/>
      <point x="59" y="9" type="line" smooth="yes"/>
      <point x="53" y="7"/>
      <point x="48" y="6"/>
      <point x="43" y="6" type="curve" smooth="yes"/>
      <point x="30" y="6"/>
      <point x="25" y="15"/>
      <point x="25" y="32" type="curve" smooth="yes"/>
      <point x="25" y="65"/>
      <point x="37" y="75"/>
      <point x="54" y="81" type="curve" smooth="yes"/>
      <point x="425" y="226" type="line"/>
      <point x="85" y="372" type="line" smooth="yes"/>
      <point x="72" y="378"/>
      <point x="65" y="388"/>
      <point x="65" y="407" type="curve" smooth="yes"/>
      <point x="65" y="433"/>
      <point x="75" y="447"/>
    </contour>
  </outline>
</glyph>
<glyph name="question" format="1">
  <advance width="445"/>
  <unicode hex="003F"/>
  <outline>
    <contour>
      <point x="257" y="706" type="curve" smooth="yes"/>
      <point x="381" y="706"/>
      <point x="445" y="638"/>
      <point x="445" y="556" type="curve" smooth="yes"/>
      <point x="445" y="408"/>
      <point x="242" y="343"/>
      <point x="213" y="222" type="curve" smooth="yes"/>
      <point x="210" y="209"/>
      <point x="201" y="202"/>
      <point x="178" y="202" type="curve" smooth="yes"/>
      <point x="163" y="202" type="line" smooth="yes"/>
      <point x="143" y="202"/>
      <point x="135" y="210"/>
      <point x="135" y="223" type="curve" smooth="yes"/>
      <point x="135" y="266"/>
      <point x="178" y="330"/>
      <point x="238" y="384" type="curve" smooth="yes"/>
      <point x="302" y="442"/>
      <point x="349" y="484"/>
      <point x="349" y="543" type="curve" smooth="yes"/>
      <point x="349" y="603"/>
      <point x="310" y="632"/>
      <point x="233" y="632" type="curve" smooth="yes"/>
      <point x="170" y="632"/>
      <point x="120" y="598"/>
      <point x="105" y="598" type="curve" smooth="yes"/>
      <point x="95" y="598"/>
      <point x="79" y="631"/>
      <point x="79" y="647" type="curve" smooth="yes"/>
      <point x="79" y="682"/>
      <point x="181" y="706"/>
    </contour>
    <contour>
      <point x="153" y="108" type="curve" smooth="yes"/>
      <point x="170" y="108" type="line" smooth="yes"/>
      <point x="199" y="108"/>
      <point x="208" y="100"/>
      <point x="208" y="86" type="curve" smooth="yes"/>
      <point x="201" y="20" type="line" smooth="yes"/>
      <point x="199" y="6"/>
      <point x="184" y="-2"/>
      <point x="158" y="-2" type="curve" smooth="yes"/>
      <point x="141" y="-2" type="line" smooth="yes"/>
      <point x="112" y="-2"/>
      <point x="104" y="6"/>
      <point x="104" y="20" type="curve" smooth="yes"/>
      <point x="111" y="86" type="line" smooth="yes"/>
      <point x="112" y="100"/>
      <point x="125" y="108"/>
    </contour>
  </outline>
</glyph>
<glyph name="B" format="1">
  <advance width="593"/>
  <unicode hex="0042"/>
  <outline>
    <contour>
      <point x="151" y="700" type="curve" smooth="yes"/>
      <point x="335" y="700" type="line" smooth="yes"/>
      <point x="474" y="700"/>
      <point x="545" y="637"/>
      <point x="545" y="544" type="curve" smooth="yes"/>
      <point x="545" y="469"/>
      <point x="483" y="389"/>
      <point x="415" y="371" type="curve"/>
      <point x="414" y="367" type="line"/>
      <point x="414" y="367"/>
      <point x="541" y="336"/>
      <point x="541" y="219" type="curve" smooth="yes"/>
      <point x="541" y="67"/>
      <point x="424" y="0"/>
      <point x="255" y="0" type="curve" smooth="yes"/>
      <point x="78" y="0" type="line" smooth="yes"/>
      <point x="59" y="0"/>
      <point x="51" y="7"/>
      <point x="51" y="24" type="curve" smooth="yes"/>
      <point x="51" y="26"/>
      <point x="51" y="28"/>
      <point x="118" y="670" type="curve" smooth="yes"/>
      <point x="120" y="691"/>
      <point x="130" y="700"/>
    </contour>
    <contour>
      <point x="201" y="624" type="line"/>
      <point x="178" y="398" type="line"/>
      <point x="299" y="398" type="line" smooth="yes"/>
      <point x="389" y="398"/>
      <point x="453" y="459"/>
      <point x="453" y="532" type="curve" smooth="yes"/>
      <point x="453" y="594"/>
      <point x="410" y="624"/>
      <point x="318" y="624" type="curve" smooth="yes"/>
    </contour>
    <contour>
      <point x="170" y="322" type="line"/>
      <point x="144" y="76" type="line"/>
      <point x="295" y="76" type="line" smooth="yes"/>
      <point x="388" y="76"/>
      <point x="450" y="132"/>
      <point x="450" y="220" type="curve" smooth="yes"/>
      <point x="450" y="284"/>
      <point x="400" y="322"/>
      <point x="304" y="322" type="curve" smooth="yes"/>
    </contour>
  </outline>
</glyph>
<glyph name="D" format="1">
  <advance width="695"/>
  <unicode hex="0044"/>
  <outline>
    <contour>
      <point x="348" y="700" type="move" name="Anchor-1"/>
    </contour>
    <contour>
      <point x="291" y="0" type="move" name="Anchor-0"/>
    </contour>
    <contour>
      <point x="150" y="700" type="curve" smooth="yes"/>
      <point x="365" y="700" type="line" smooth="yes"/>
      <point x="522" y="700"/>
      <point x="643" y="624"/>
      <point x="643" y="415" type="curve" smooth="yes"/>
      <point x="643" y="105"/>
      <point x="471" y="0"/>
      <point x="292" y="0" type="curve" smooth="yes"/>
      <point x="77" y="0" type="line" smooth="yes"/>
      <point x="58" y="0"/>
      <point x="50" y="7"/>
      <point x="50" y="24" type="curve" smooth="yes"/>
      <point x="50" y="37"/>
      <point x="95" y="455"/>
      <point x="117" y="670" type="curve" smooth="yes"/>
      <point x="119" y="691"/>
      <point x="129" y="700"/>
    </contour>
    <contour>
      <point x="200" y="624" type="line"/>
      <point x="143" y="76" type="line"/>
      <point x="293" y="76" type="line" smooth="yes"/>
      <point x="423" y="76"/>
      <point x="552" y="163"/>
      <point x="552" y="401" type="curve" smooth="yes"/>
      <point x="552" y="567"/>
      <point x="464" y="624"/>
      <point x="350" y="624" type="curve" smooth="yes"/>
    </contour>
  </outline>
</glyph>
<glyph name="F" format="1">
  <advance width="503"/>
  <unicode hex="0046"/>
  <outline>
    <contour>
      <point x="150" y="700" type="curve" smooth="yes"/>
      <point x="467" y="700" type="line" smooth="yes"/>
      <point x="479" y="700"/>
      <point x="484" y="693"/>
      <point x="484" y="678" type="curve" smooth="yes"/>
      <point x="484" y="655"/>
      <point x="484" y="624"/>
      <point x="459" y="624" type="curve" smooth="yes"/>
      <point x="200" y="624" type="line"/>
      <point x="176" y="396" type="line"/>
      <point x="427" y="396" type="line" smooth="yes"/>
      <point x="439" y="396"/>
      <point x="444" y="389"/>
      <point x="444" y="374" type="curve" smooth="yes"/>
      <point x="444" y="351"/>
      <point x="444" y="320"/>
      <point x="419" y="320" type="curve" smooth="yes"/>
      <point x="168" y="320" type="line"/>
      <point x="137" y="20" type="line" smooth="yes"/>
      <point x="135" y="6"/>
      <point x="120" y="-2"/>
      <point x="95" y="-2" type="curve" smooth="yes"/>
      <point x="87" y="-2" type="line" smooth="yes"/>
      <point x="57" y="-2"/>
      <point x="49" y="6"/>
      <point x="49" y="20" type="curve" smooth="yes"/>
      <point x="117" y="670" type="line" smooth="yes"/>
      <point x="119" y="691"/>
      <point x="129" y="700"/>
    </contour>
  </outline>
</glyph>
<glyph name="I" format="1">
  <advance width="282"/>
  <unicode hex="0049"/>
  <outline>
    <contour>
      <point x="180" y="700" type="move" name="Anchor-1"/>
    </contour>
    <contour>
      <point x="101" y="0" type="move" name="Anchor-0"/>
    </contour>
    <contour>
      <point x="173" y="702" type="curve" smooth="yes"/>
      <point x="181" y="702" type="line" smooth="yes"/>
      <point x="210" y="702"/>
      <point x="219" y="694"/>
      <point x="219" y="680" type="curve" smooth="yes"/>
      <point x="150" y="20" type="line" smooth="yes"/>
      <point x="148" y="6"/>
      <point x="134" y="-2"/>
      <point x="108" y="-2" type="curve" smooth="yes"/>
      <point x="100" y="-2" type="line" smooth="yes"/>
      <point x="70" y="-2"/>
      <point x="62" y="6"/>
      <point x="62" y="20" type="curve" smooth="yes"/>
      <point x="131" y="680" type="line" smooth="yes"/>
      <point x="132" y="694"/>
      <point x="145" y="702"/>
    </contour>
  </outline>
</glyph>
<glyph name="J" format="1">
  <advance width="402"/>
  <unicode hex="004A"/>
  <outline>
    <contour>
      <point x="308" y="702" type="move" name="Anchor-1"/>
    </contour>
    <contour>
      <point x="0" y="0" type="move" name="Anchor-0"/>
    </contour>
    <contour>
      <point x="308" y="702" type="curve" smooth="yes"/>
      <point x="316" y="702" type="line" smooth="yes"/>
      <point x="345" y="702"/>
      <point x="354" y="694"/>
      <point x="354" y="680" type="curve" smooth="yes"/>
      <point x="304" y="205" type="line" smooth="yes"/>
      <point x="291" y="79"/>
      <point x="224" y="-6"/>
      <point x="77" y="-6" type="curve" smooth="yes"/>
      <point x="34" y="-6"/>
      <point x="-11" y="1"/>
      <point x="-11" y="26" type="curve" smooth="yes"/>
      <point x="-11" y="70"/>
      <point x="-5" y="85"/>
      <point x="4" y="85" type="curve" smooth="yes"/>
      <point x="13" y="85"/>
      <point x="30" y="76"/>
      <point x="70" y="76" type="curve" smooth="yes"/>
      <point x="163" y="76"/>
      <point x="206" y="115"/>
      <point x="215" y="201" type="curve" smooth="yes"/>
      <point x="266" y="680" type="line" smooth="yes"/>
      <point x="267" y="694"/>
      <point x="279" y="702"/>
    </contour>
  </outline>
</glyph>
<glyph name="K" format="1">
  <advance width="576"/>
  <unicode hex="004B"/>
  <outline>
    <contour>
      <point x="315" y="700" type="move" name="Anchor-1"/>
    </contour>
    <contour>
      <point x="260" y="0" type="move" name="Anchor-0"/>
    </contour>
    <contour>
      <point x="505" y="702" type="curve" smooth="yes"/>
      <point x="515" y="702" type="line" smooth="yes"/>
      <point x="538" y="702"/>
      <point x="549" y="696"/>
      <point x="549" y="690" type="curve" smooth="yes"/>
      <point x="549" y="684"/>
      <point x="545" y="677"/>
      <point x="537" y="669" type="curve" smooth="yes"/>
      <point x="259" y="360" type="line"/>
      <point x="520" y="28" type="line" smooth="yes"/>
      <point x="526" y="20"/>
      <point x="527" y="16"/>
      <point x="527" y="12" type="curve" smooth="yes"/>
      <point x="526" y="1"/>
      <point x="513" y="-2"/>
      <point x="482" y="-2" type="curve" smooth="yes"/>
      <point x="475" y="-2" type="line" smooth="yes"/>
      <point x="446" y="-2"/>
      <point x="430" y="0"/>
      <point x="421" y="11" type="curve" smooth="yes"/>
      <point x="169" y="333" type="line"/>
      <point x="165" y="333" type="line"/>
      <point x="132" y="20" type="line" smooth="yes"/>
      <point x="130" y="6"/>
      <point x="115" y="-2"/>
      <point x="90" y="-2" type="curve" smooth="yes"/>
      <point x="82" y="-2" type="line" smooth="yes"/>
      <point x="52" y="-2"/>
      <point x="44" y="6"/>
      <point x="44" y="20" type="curve" smooth="yes"/>
      <point x="113" y="680" type="line" smooth="yes"/>
      <point x="114" y="694"/>
      <point x="127" y="702"/>
      <point x="155" y="702" type="curve" smooth="yes"/>
      <point x="163" y="702" type="line" smooth="yes"/>
      <point x="192" y="702"/>
      <point x="201" y="694"/>
      <point x="201" y="680" type="curve" smooth="yes"/>
      <point x="169" y="374" type="line"/>
      <point x="173" y="374" type="line"/>
      <point x="450" y="688" type="line" smooth="yes"/>
      <point x="460" y="699"/>
      <point x="483" y="702"/>
    </contour>
  </outline>
</glyph>
<glyph name="M" format="1">
  <advance width="843"/>
  <unicode hex="004D"/>
  <outline>
    <contour>
      <point x="715" y="702" type="curve" smooth="yes"/>
      <point x="748" y="702" type="line" smooth="yes"/>
      <point x="777" y="702"/>
      <point x="786" y="694"/>
      <point x="786" y="680" type="curve" smooth="yes"/>
      <point x="717" y="20" type="line" smooth="yes"/>
      <point x="715" y="6"/>
      <point x="701" y="-2"/>
      <point x="675" y="-2" type="curve" smooth="yes"/>
      <point x="668" y="-2" type="line" smooth="yes"/>
      <point x="638" y="-2"/>
      <point x="630" y="6"/>
      <point x="630" y="20" type="curve" smooth="yes"/>
      <point x="686" y="558" type="line"/>
      <point x="683" y="554" type="line"/>
      <point x="449" y="208" type="line" smooth="yes"/>
      <point x="443" y="199"/>
      <point x="436" y="195"/>
      <point x="425" y="195" type="curve" smooth="yes"/>
      <point x="385" y="195" type="line" smooth="yes"/>
      <point x="375" y="195"/>
      <point x="369" y="199"/>
      <point x="365" y="208" type="curve" smooth="yes"/>
      <point x="201" y="558" type="line"/>
      <point x="198" y="564" type="line"/>
      <point x="141" y="20" type="line" smooth="yes"/>
      <point x="139" y="6"/>
      <point x="125" y="-2"/>
      <point x="99" y="-2" type="curve" smooth="yes"/>
      <point x="92" y="-2" type="line" smooth="yes"/>
      <point x="62" y="-2"/>
      <point x="54" y="6"/>
      <point x="54" y="20" type="curve" smooth="yes"/>
      <point x="123" y="680" type="line" smooth="yes"/>
      <point x="124" y="694"/>
      <point x="137" y="702"/>
      <point x="165" y="702" type="curve" smooth="yes"/>
      <point x="201" y="702" type="line" smooth="yes"/>
      <point x="225" y="702"/>
      <point x="237" y="695"/>
      <point x="242" y="684" type="curve" smooth="yes"/>
      <point x="396" y="356" type="line"/>
      <point x="416" y="293" type="line"/>
      <point x="448" y="350" type="line"/>
      <point x="672" y="684" type="line" smooth="yes"/>
      <point x="679" y="695"/>
      <point x="691" y="702"/>
    </contour>
  </outline>
</glyph>
<glyph name="P" format="1">
  <advance width="570"/>
  <unicode hex="0050"/>
  <outline>
    <contour>
      <point x="151" y="700" type="curve" smooth="yes"/>
      <point x="354" y="700" type="line" smooth="yes"/>
      <point x="435" y="700"/>
      <point x="559" y="676"/>
      <point x="559" y="533" type="curve" smooth="yes"/>
      <point x="559" y="323"/>
      <point x="374" y="298"/>
      <point x="322" y="298" type="curve" smooth="yes"/>
      <point x="167" y="298" type="line"/>
      <point x="138" y="20" type="line" smooth="yes"/>
      <point x="136" y="6"/>
      <point x="122" y="-2"/>
      <point x="96" y="-2" type="curve" smooth="yes"/>
      <point x="88" y="-2" type="line" smooth="yes"/>
      <point x="58" y="-2"/>
      <point x="50" y="6"/>
      <point x="50" y="20" type="curve" smooth="yes"/>
      <point x="118" y="670" type="line" smooth="yes"/>
      <point x="120" y="691"/>
      <point x="130" y="700"/>
    </contour>
    <contour>
      <point x="201" y="624" type="line"/>
      <point x="175" y="374" type="line"/>
      <point x="331" y="374" type="line" smooth="yes"/>
      <point x="370" y="374"/>
      <point x="467" y="397"/>
      <point x="467" y="521" type="curve" smooth="yes"/>
      <point x="467" y="605"/>
      <point x="398" y="624"/>
      <point x="343" y="624" type="curve" smooth="yes"/>
    </contour>
  </outline>
</glyph>
<glyph name="Q" format="1">
  <advance width="731"/>
  <unicode hex="0051"/>
  <outline>
    <contour>
      <point x="410" y="706" type="curve" smooth="yes"/>
      <point x="590" y="706"/>
      <point x="685" y="606"/>
      <point x="685" y="417" type="curve" smooth="yes"/>
      <point x="685" y="187"/>
      <point x="590" y="43"/>
      <point x="444" y="5" type="curve"/>
      <point x="444" y="1" type="line"/>
      <point x="638" y="-62" type="line" smooth="yes"/>
      <point x="648" y="-66"/>
      <point x="650" y="-71"/>
      <point x="650" y="-82" type="curve" smooth="yes"/>
      <point x="650" y="-147"/>
      <point x="640" y="-157"/>
      <point x="629" y="-157" type="curve" smooth="yes"/>
      <point x="612" y="-157"/>
      <point x="248" y="-6"/>
      <point x="217" y="6" type="curve" smooth="yes"/>
      <point x="112" y="47"/>
      <point x="60" y="138"/>
      <point x="60" y="278" type="curve" smooth="yes"/>
      <point x="60" y="557"/>
      <point x="196" y="706"/>
    </contour>
    <contour>
      <point x="402" y="630" type="curve" smooth="yes"/>
      <point x="254" y="630"/>
      <point x="152" y="509"/>
      <point x="152" y="290" type="curve" smooth="yes"/>
      <point x="152" y="145"/>
      <point x="220" y="67"/>
      <point x="343" y="67" type="curve" smooth="yes"/>
      <point x="492" y="67"/>
      <point x="593" y="187"/>
      <point x="593" y="404" type="curve" smooth="yes"/>
      <point x="593" y="550"/>
      <point x="526" y="630"/>
    </contour>
  </outline>
</glyph>
<glyph name="R" format="1">
  <advance width="610"/>
  <unicode hex="0052"/>
  <outline>
    <contour>
      <point x="305" y="700" type="move" name="Anchor-1"/>
    </contour>
    <contour>
      <point x="275" y="0" type="move" name="Anchor-0"/>
    </contour>
    <contour>
      <point x="151" y="700" type="curve" smooth="yes"/>
      <point x="319" y="700" type="line" smooth="yes"/>
      <point x="464" y="700"/>
      <point x="543" y="656"/>
      <point x="543" y="548" type="curve" smooth="yes"/>
      <point x="543" y="448"/>
      <point x="488" y="384"/>
      <point x="409" y="354" type="curve"/>
      <point x="409" y="350" type="line"/>
      <point x="447" y="336"/>
      <point x="465" y="291"/>
      <point x="485" y="225" type="curve" smooth="yes"/>
      <point x="543" y="28" type="line" smooth="yes"/>
      <point x="544" y="24"/>
      <point x="545" y="20"/>
      <point x="545" y="17" type="curve" smooth="yes"/>
      <point x="545" y="5"/>
      <point x="534" y="-2"/>
      <point x="501" y="-2" type="curve" smooth="yes"/>
      <point x="491" y="-2" type="line" smooth="yes"/>
      <point x="471" y="-2"/>
      <point x="455" y="2"/>
      <point x="452" y="14" type="curve" smooth="yes"/>
      <point x="397" y="210" type="line" smooth="yes"/>
      <point x="375" y="288"/>
      <point x="336" y="308"/>
      <point x="258" y="308" type="curve" smooth="yes"/>
      <point x="168" y="308" type="line"/>
      <point x="138" y="20" type="line" smooth="yes"/>
      <point x="136" y="6"/>
      <point x="121" y="-2"/>
      <point x="96" y="-2" type="curve" smooth="yes"/>
      <point x="88" y="-2" type="line" smooth="yes"/>
      <point x="58" y="-2"/>
      <point x="50" y="6"/>
      <point x="50" y="20" type="curve" smooth="yes"/>
      <point x="118" y="670" type="line" smooth="yes"/>
      <point x="120" y="691"/>
      <point x="130" y="700"/>
    </contour>
    <contour>
      <point x="201" y="624" type="line"/>
      <point x="176" y="384" type="line"/>
      <point x="308" y="384" type="line" smooth="yes"/>
      <point x="388" y="384"/>
      <point x="450" y="451"/>
      <point x="450" y="525" type="curve" smooth="yes"/>
      <point x="450" y="593"/>
      <point x="401" y="624"/>
      <point x="326" y="624" type="curve" smooth="yes"/>
    </contour>
  </outline>
</glyph>
<glyph name="T" format="1">
  <advance width="549"/>
  <unicode hex="0054"/>
  <outline>
    <contour>
      <point x="305" y="700" type="move" name="Anchor-1"/>
    </contour>
    <contour>
      <point x="227" y="-2" type="move" name="Anchor-0"/>
    </contour>
    <contour>
      <point x="73" y="700" type="curve" smooth="yes"/>
      <point x="545" y="700" type="line" smooth="yes"/>
      <point x="557" y="700"/>
      <point x="562" y="693"/>
      <point x="562" y="678" type="curve" smooth="yes"/>
      <point x="562" y="655"/>
      <point x="562" y="624"/>
      <point x="537" y="624" type="curve" smooth="yes"/>
      <point x="347" y="624" type="line"/>
      <point x="284" y="20" type="line" smooth="yes"/>
      <point x="282" y="6"/>
      <point x="267" y="-2"/>
      <point x="242" y="-2" type="curve" smooth="yes"/>
      <point x="234" y="-2" type="line" smooth="yes"/>
      <point x="204" y="-2"/>
      <point x="196" y="6"/>
      <point x="196" y="20" type="curve" smooth="yes"/>
      <point x="259" y="624" type="line"/>
      <point x="65" y="624" type="line" smooth="yes"/>
      <point x="53" y="624"/>
      <point x="48" y="631"/>
      <point x="48" y="646" type="curve" smooth="yes"/>
      <point x="48" y="669"/>
      <point x="48" y="700"/>
    </contour>
  </outline>
</glyph>
<glyph name="V" format="1">
  <advance width="617"/>
  <unicode hex="0056"/>
  <outline>
    <contour>
      <point x="583" y="702" type="curve" smooth="yes"/>
      <point x="589" y="702" type="line" smooth="yes"/>
      <point x="618" y="702"/>
      <point x="631" y="696"/>
      <point x="631" y="686" type="curve" smooth="yes"/>
      <point x="631" y="682"/>
      <point x="629" y="677"/>
      <point x="626" y="671" type="curve" smooth="yes"/>
      <point x="328" y="14" type="line" smooth="yes"/>
      <point x="323" y="2"/>
      <point x="307" y="-2"/>
      <point x="287" y="-2" type="curve" smooth="yes"/>
      <point x="256" y="-2" type="line" smooth="yes"/>
      <point x="236" y="-2"/>
      <point x="220" y="2"/>
      <point x="217" y="14" type="curve" smooth="yes"/>
      <point x="56" y="675"/>
      <point x="55" y="678"/>
      <point x="55" y="681" type="curve" smooth="yes"/>
      <point x="55" y="693"/>
      <point x="66" y="702"/>
      <point x="100" y="702" type="curve" smooth="yes"/>
      <point x="109" y="702" type="line" smooth="yes"/>
      <point x="129" y="702"/>
      <point x="145" y="698"/>
      <point x="148" y="686" type="curve" smooth="yes"/>
      <point x="277" y="152" type="line"/>
      <point x="282" y="100" type="line"/>
      <point x="285" y="100" type="line"/>
      <point x="301" y="153" type="line"/>
      <point x="542" y="686" type="line" smooth="yes"/>
      <point x="547" y="698"/>
      <point x="563" y="702"/>
    </contour>
  </outline>
</glyph>
<glyph name="W" format="1">
  <advance width="882"/>
  <unicode hex="0057"/>
  <outline>
    <contour>
      <point x="481" y="700" type="move" name="Anchor-1"/>
    </contour>
    <contour>
      <point x="0" y="0" type="move" name="Anchor-0"/>
    </contour>
    <contour>
      <point x="854" y="702" type="curve" smooth="yes"/>
      <point x="860" y="702" type="line" smooth="yes"/>
      <point x="889" y="702"/>
      <point x="902" y="696"/>
      <point x="902" y="686" type="curve" smooth="yes"/>
      <point x="902" y="684"/>
      <point x="900" y="677"/>
      <point x="655" y="14" type="curve" smooth="yes"/>
      <point x="651" y="2"/>
      <point x="634" y="-2"/>
      <point x="614" y="-2" type="curve" smooth="yes"/>
      <point x="573" y="-2" type="line" smooth="yes"/>
      <point x="553" y="-2"/>
      <point x="536" y="2"/>
      <point x="534" y="14" type="curve" smooth="yes"/>
      <point x="468" y="421" type="line"/>
      <point x="461" y="551" type="line"/>
      <point x="426" y="421" type="line"/>
      <point x="275" y="14" type="line" smooth="yes"/>
      <point x="270" y="2"/>
      <point x="252" y="-2"/>
      <point x="234" y="-2" type="curve" smooth="yes"/>
      <point x="193" y="-2" type="line" smooth="yes"/>
      <point x="173" y="-2"/>
      <point x="156" y="2"/>
      <point x="154" y="14" type="curve" smooth="yes"/>
      <point x="49" y="682" type="line" smooth="yes"/>
      <point x="49" y="700"/>
      <point x="71" y="702"/>
      <point x="94" y="702" type="curve" smooth="yes"/>
      <point x="103" y="702" type="line" smooth="yes"/>
      <point x="123" y="702"/>
      <point x="140" y="698"/>
      <point x="142" y="686" type="curve" smooth="yes"/>
      <point x="218" y="194" type="line" smooth="yes"/>
      <point x="222" y="167"/>
      <point x="226" y="104"/>
      <point x="226" y="101" type="curve" smooth="yes"/>
      <point x="261" y="199" type="line"/>
      <point x="433" y="685" type="line" smooth="yes"/>
      <point x="437" y="698"/>
      <point x="448" y="702"/>
      <point x="473" y="702" type="curve" smooth="yes"/>
      <point x="489" y="702" type="line" smooth="yes"/>
      <point x="509" y="702"/>
      <point x="525" y="698"/>
      <point x="527" y="685" type="curve" smooth="yes"/>
      <point x="599" y="193" type="line" smooth="yes"/>
      <point x="604" y="158"/>
      <point x="606" y="101"/>
      <point x="606" y="101" type="curve"/>
      <point x="641" y="201" type="line"/>
      <point x="813" y="686" type="line" smooth="yes"/>
      <point x="817" y="698"/>
      <point x="834" y="702"/>
    </contour>
  </outline>
</glyph>
<glyph name="X" format="1">
  <advance width="611"/>
  <unicode hex="0058"/>
  <outline>
    <contour>
      <point x="549" y="702" type="curve" smooth="yes"/>
      <point x="555" y="702" type="line" smooth="yes"/>
      <point x="587" y="702"/>
      <point x="600" y="697"/>
      <point x="600" y="686" type="curve" smooth="yes"/>
      <point x="600" y="681"/>
      <point x="595" y="674"/>
      <point x="590" y="667" type="curve" smooth="yes"/>
      <point x="359" y="370" type="line"/>
      <point x="548" y="33" type="line" smooth="yes"/>
      <point x="551" y="27"/>
      <point x="554" y="21"/>
      <point x="554" y="17" type="curve" smooth="yes"/>
      <point x="554" y="5"/>
      <point x="543" y="-2"/>
      <point x="507" y="-2" type="curve" smooth="yes"/>
      <point x="491" y="-2" type="line" smooth="yes"/>
      <point x="470" y="-2"/>
      <point x="456" y="1"/>
      <point x="449" y="13" type="curve" smooth="yes"/>
      <point x="294" y="288" type="line"/>
      <point x="79" y="12" type="line" smooth="yes"/>
      <point x="71" y="1"/>
      <point x="53" y="-2"/>
      <point x="35" y="-2" type="curve" smooth="yes"/>
      <point x="27" y="-2" type="line" smooth="yes"/>
      <point x="-4" y="-2"/>
      <point x="-17" y="3"/>
      <point x="-17" y="14" type="curve" smooth="yes"/>
      <point x="-17" y="19"/>
      <point x="-13" y="26"/>
      <point x="-7" y="33" type="curve" smooth="yes"/>
      <point x="251" y="365" type="line"/>
      <point x="83" y="667" type="line" smooth="yes"/>
      <point x="79" y="673"/>
      <point x="77" y="678"/>
      <point x="77" y="683" type="curve" smooth="yes"/>
      <point x="77" y="695"/>
      <point x="88" y="702"/>
      <point x="124" y="702" type="curve" smooth="yes"/>
      <point x="138" y="702" type="line" smooth="yes"/>
      <point x="159" y="702"/>
      <point x="173" y="699"/>
      <point x="180" y="687" type="curve" smooth="yes"/>
      <point x="315" y="446" type="line"/>
      <point x="505" y="688" type="line" smooth="yes"/>
      <point x="513" y="699"/>
      <point x="531" y="702"/>
    </contour>
  </outline>
</glyph>
<glyph name="Y" format="1">
  <advance width="559"/>
  <unicode hex="0059"/>
  <outline>
    <contour>
      <point x="320" y="700" type="move" name="Anchor-1"/>
    </contour>
    <contour>
      <point x="241" y="0" type="move" name="Anchor-0"/>
    </contour>
    <contour>
      <point x="531" y="702" type="curve" smooth="yes"/>
      <point x="540" y="702" type="line" smooth="yes"/>
      <point x="565" y="701"/>
      <point x="576" y="696"/>
      <point x="576" y="686" type="curve" smooth="yes"/>
      <point x="576" y="681"/>
      <point x="571" y="674"/>
      <point x="566" y="667" type="curve" smooth="yes"/>
      <point x="323" y="356" type="line"/>
      <point x="288" y="20" type="line" smooth="yes"/>
      <point x="286" y="6"/>
      <point x="272" y="-2"/>
      <point x="246" y="-2" type="curve" smooth="yes"/>
      <point x="238" y="-2" type="line" smooth="yes"/>
      <point x="208" y="-2"/>
      <point x="200" y="6"/>
      <point x="200" y="20" type="curve" smooth="yes"/>
      <point x="235" y="359" type="line"/>
      <point x="59" y="667" type="line" smooth="yes"/>
      <point x="55" y="673"/>
      <point x="53" y="678"/>
      <point x="53" y="683" type="curve" smooth="yes"/>
      <point x="53" y="695"/>
      <point x="64" y="702"/>
      <point x="100" y="702" type="curve" smooth="yes"/>
      <point x="111" y="702" type="line" smooth="yes"/>
      <point x="132" y="702"/>
      <point x="146" y="699"/>
      <point x="153" y="687" type="curve" smooth="yes"/>
      <point x="291" y="441" type="line"/>
      <point x="485" y="688" type="line" smooth="yes"/>
      <point x="493" y="699"/>
      <point x="511" y="702"/>
    </contour>
  </outline>
</glyph>
<glyph name="bracketleft" format="1">
  <advance width="291"/>
  <unicode hex="005B"/>
  <outline>
    <contour>
      <point x="167" y="768" type="curve" smooth="yes"/>
      <point x="288" y="768" type="line" smooth="yes"/>
      <point x="300" y="768"/>
      <point x="306" y="762"/>
      <point x="306" y="748" type="curve" smooth="yes"/>
      <point x="306" y="732"/>
      <point x="303" y="706"/>
      <point x="282" y="706" type="curve" smooth="yes"/>
      <point x="204" y="706" type="line"/>
      <point x="122" y="-76" type="line"/>
      <point x="199" y="-76" type="line" smooth="yes"/>
      <point x="211" y="-76"/>
      <point x="217" y="-82"/>
      <point x="217" y="-96" type="curve" smooth="yes"/>
      <point x="217" y="-112"/>
      <point x="214" y="-138"/>
      <point x="193" y="-138" type="curve" smooth="yes"/>
      <point x="72" y="-138" type="line" smooth="yes"/>
      <point x="50" y="-138"/>
      <point x="45" y="-129"/>
      <point x="45" y="-108" type="curve" smooth="yes"/>
      <point x="45" y="-86"/>
      <point x="104" y="456"/>
      <point x="134" y="738" type="curve" smooth="yes"/>
      <point x="136" y="759"/>
      <point x="146" y="768"/>
    </contour>
  </outline>
</glyph>
<glyph name="backslash" format="1">
  <advance width="361"/>
  <unicode hex="005C"/>
  <outline>
    <contour>
      <point x="51" y="703" type="curve" smooth="yes"/>
      <point x="76" y="703" type="line" smooth="yes"/>
      <point x="90" y="703"/>
      <point x="98" y="695"/>
      <point x="102" y="682" type="curve" smooth="yes"/>
      <point x="325" y="-1" type="line" smooth="yes"/>
      <point x="326" y="-4"/>
      <point x="326" y="-7"/>
      <point x="326" y="-9" type="curve" smooth="yes"/>
      <point x="326" y="-17"/>
      <point x="321" y="-22"/>
      <point x="311" y="-22" type="curve" smooth="yes"/>
      <point x="286" y="-22" type="line" smooth="yes"/>
      <point x="272" y="-22"/>
      <point x="264" y="-14"/>
      <point x="260" y="-1" type="curve" smooth="yes"/>
      <point x="37" y="682" type="line" smooth="yes"/>
      <point x="36" y="685"/>
      <point x="35" y="688"/>
      <point x="35" y="690" type="curve" smooth="yes"/>
      <point x="35" y="697"/>
      <point x="40" y="703"/>
    </contour>
  </outline>
</glyph>
<glyph name="bracketright" format="1">
  <advance width="291"/>
  <unicode hex="005D"/>
  <outline>
    <contour>
      <point x="96" y="768" type="curve" smooth="yes"/>
      <point x="217" y="768" type="line" smooth="yes"/>
      <point x="239" y="768"/>
      <point x="244" y="759"/>
      <point x="244" y="738" type="curve" smooth="yes"/>
      <point x="244" y="728"/>
      <point x="185" y="174"/>
      <point x="155" y="-108" type="curve" smooth="yes"/>
      <point x="153" y="-129"/>
      <point x="143" y="-138"/>
      <point x="122" y="-138" type="curve" smooth="yes"/>
      <point x="1" y="-138" type="line" smooth="yes"/>
      <point x="-11" y="-138"/>
      <point x="-17" y="-132"/>
      <point x="-17" y="-118" type="curve" smooth="yes"/>
      <point x="-17" y="-102"/>
      <point x="-14" y="-76"/>
      <point x="7" y="-76" type="curve" smooth="yes"/>
      <point x="85" y="-76" type="line"/>
      <point x="167" y="706" type="line"/>
      <point x="90" y="706" type="line" smooth="yes"/>
      <point x="78" y="706"/>
      <point x="72" y="712"/>
      <point x="72" y="726" type="curve" smooth="yes"/>
      <point x="72" y="742"/>
      <point x="75" y="768"/>
    </contour>
  </outline>
</glyph>
<glyph name="asciicircum" format="1">
  <advance width="450"/>
  <unicode hex="005E"/>
  <outline>
    <contour>
      <point x="234" y="684" type="curve" smooth="yes"/>
      <point x="254" y="684" type="line" smooth="yes"/>
      <point x="271" y="684"/>
      <point x="280" y="680"/>
      <point x="286" y="664" type="curve" smooth="yes"/>
      <point x="378" y="355" type="line" smooth="yes"/>
      <point x="380" y="350"/>
      <point x="380" y="345"/>
      <point x="380" y="341" type="curve" smooth="yes"/>
      <point x="378" y="328"/>
      <point x="367" y="320"/>
      <point x="350" y="320" type="curve" smooth="yes"/>
      <point x="346" y="320" type="line" smooth="yes"/>
      <point x="328" y="320"/>
      <point x="319" y="327"/>
      <point x="314" y="343" type="curve" smooth="yes"/>
      <point x="235" y="604" type="line"/>
      <point x="101" y="343" type="line" smooth="yes"/>
      <point x="92" y="327"/>
      <point x="80" y="320"/>
      <point x="64" y="320" type="curve" smooth="yes"/>
      <point x="60" y="320" type="line" smooth="yes"/>
      <point x="44" y="320"/>
      <point x="36" y="326"/>
      <point x="36" y="337" type="curve" smooth="yes"/>
      <point x="36" y="343"/>
      <point x="37" y="348"/>
      <point x="40" y="355" type="curve" smooth="yes"/>
      <point x="198" y="664" type="line" smooth="yes"/>
      <point x="206" y="679"/>
      <point x="216" y="684"/>
    </contour>
  </outline>
</glyph>
<glyph name="grave" format="1">
  <advance width="320"/>
  <unicode hex="0060"/>
  <outline>
    <contour>
      <point x="210" y="700" type="move" name="Anchor-3"/>
    </contour>
    <contour>
      <point x="118" y="732" type="curve" smooth="yes"/>
      <point x="150" y="732"/>
      <point x="169" y="725"/>
      <point x="180" y="706" type="curve" smooth="yes"/>
      <point x="229" y="622"/>
      <point x="238" y="603"/>
      <point x="238" y="594" type="curve" smooth="yes"/>
      <point x="238" y="588"/>
      <point x="230" y="585"/>
      <point x="215" y="585" type="curve" smooth="yes"/>
      <point x="195" y="585"/>
      <point x="174" y="591"/>
      <point x="164" y="603" type="curve" smooth="yes"/>
      <point x="79" y="700"/>
      <point x="70" y="708"/>
      <point x="70" y="720" type="curve" smooth="yes"/>
      <point x="71" y="729"/>
      <point x="87" y="732"/>
    </contour>
  </outline>
</glyph>
<glyph name="b" format="1">
  <advance width="569"/>
  <unicode hex="0062"/>
  <outline>
    <contour>
      <point x="155" y="752" type="curve" smooth="yes"/>
      <point x="159" y="752" type="line" smooth="yes"/>
      <point x="187" y="752"/>
      <point x="197" y="745"/>
      <point x="197" y="730" type="curve" smooth="yes"/>
      <point x="165" y="425" type="line"/>
      <point x="207" y="499"/>
      <point x="265" y="529"/>
      <point x="324" y="529" type="curve" smooth="yes"/>
      <point x="397" y="529"/>
      <point x="511" y="490"/>
      <point x="511" y="316" type="curve" smooth="yes"/>
      <point x="511" y="130"/>
      <point x="407" y="-6"/>
      <point x="246" y="-6" type="curve" smooth="yes"/>
      <point x="182" y="-6"/>
      <point x="136" y="26"/>
      <point x="113" y="48" type="curve"/>
      <point x="106" y="23"/>
      <point x="93" y="-2"/>
      <point x="71" y="-2" type="curve" smooth="yes"/>
      <point x="63" y="-2" type="line" smooth="yes"/>
      <point x="43" y="-2"/>
      <point x="38" y="6"/>
      <point x="38" y="20" type="curve" smooth="yes"/>
      <point x="113" y="730" type="line" smooth="yes"/>
      <point x="115" y="746"/>
      <point x="129" y="752"/>
    </contour>
    <contour>
      <point x="305" y="456" type="curve" smooth="yes"/>
      <point x="260" y="456"/>
      <point x="193" y="420"/>
      <point x="151" y="290" type="curve"/>
      <point x="137" y="156" type="line" smooth="yes"/>
      <point x="135" y="138"/>
      <point x="132" y="121"/>
      <point x="129" y="106" type="curve"/>
      <point x="148" y="90"/>
      <point x="185" y="67"/>
      <point x="238" y="67" type="curve" smooth="yes"/>
      <point x="387" y="67"/>
      <point x="424" y="190"/>
      <point x="424" y="310" type="curve" smooth="yes"/>
      <point x="424" y="424"/>
      <point x="371" y="456"/>
    </contour>
  </outline>
</glyph>
<glyph name="f" format="1">
  <advance width="325"/>
  <unicode hex="0066"/>
  <outline>
    <contour>
      <point x="278" y="756" type="curve" smooth="yes"/>
      <point x="295" y="756"/>
      <point x="349" y="755"/>
      <point x="349" y="725" type="curve" smooth="yes"/>
      <point x="349" y="714"/>
      <point x="335" y="677"/>
      <point x="323" y="677" type="curve" smooth="yes"/>
      <point x="319" y="677"/>
      <point x="308" y="684"/>
      <point x="278" y="684" type="curve" smooth="yes"/>
      <point x="247" y="684"/>
      <point x="224" y="674"/>
      <point x="218" y="614" type="curve" smooth="yes"/>
      <point x="209" y="523" type="line"/>
      <point x="296" y="523" type="line" smooth="yes"/>
      <point x="308" y="523"/>
      <point x="312" y="518"/>
      <point x="312" y="504" type="curve" smooth="yes"/>
      <point x="312" y="500"/>
      <point x="305" y="451"/>
      <point x="267" y="451" type="curve" smooth="yes"/>
      <point x="201" y="451" type="line"/>
      <point x="156" y="20" type="line" smooth="yes"/>
      <point x="154" y="5"/>
      <point x="140" y="-2"/>
      <point x="114" y="-2" type="curve" smooth="yes"/>
      <point x="110" y="-2" type="line" smooth="yes"/>
      <point x="82" y="-2"/>
      <point x="72" y="5"/>
      <point x="72" y="20" type="curve" smooth="yes"/>
      <point x="117" y="451" type="line"/>
      <point x="77" y="451" type="line" smooth="yes"/>
      <point x="63" y="451"/>
      <point x="60" y="462"/>
      <point x="60" y="478" type="curve" smooth="yes"/>
      <point x="60" y="489"/>
      <point x="61" y="523"/>
      <point x="85" y="523" type="curve" smooth="yes"/>
      <point x="125" y="523" type="line"/>
      <point x="135" y="624" type="line" smooth="yes"/>
      <point x="146" y="740"/>
      <point x="225" y="756"/>
    </contour>
  </outline>
</glyph>
<glyph name="j" format="1">
  <advance width="276"/>
  <unicode hex="006A"/>
  <outline>
    <contour>
      <point x="182" y="752" type="curve" smooth="yes"/>
      <point x="194" y="752" type="line" smooth="yes"/>
      <point x="222" y="752"/>
      <point x="232" y="746"/>
      <point x="232" y="730" type="curve" smooth="yes"/>
      <point x="226" y="671" type="line" smooth="yes"/>
      <point x="226" y="658"/>
      <point x="216" y="649"/>
      <point x="188" y="649" type="curve" smooth="yes"/>
      <point x="176" y="649" type="line" smooth="yes"/>
      <point x="150" y="649"/>
      <point x="134" y="653"/>
      <point x="134" y="671" type="curve" smooth="yes"/>
      <point x="140" y="730" type="line" smooth="yes"/>
      <point x="142" y="746"/>
      <point x="156" y="752"/>
    </contour>
    <contour>
      <point x="162" y="525" type="curve" smooth="yes"/>
      <point x="166" y="525" type="line" smooth="yes"/>
      <point x="194" y="525"/>
      <point x="204" y="518"/>
      <point x="204" y="503" type="curve" smooth="yes"/>
      <point x="143" y="-74" type="line" smooth="yes"/>
      <point x="131" y="-190"/>
      <point x="62" y="-212"/>
      <point x="11" y="-212" type="curve" smooth="yes"/>
      <point x="-35" y="-212"/>
      <point x="-67" y="-195"/>
      <point x="-67" y="-171" type="curve" smooth="yes"/>
      <point x="-67" y="-129"/>
      <point x="-61" y="-123"/>
      <point x="-56" y="-123" type="curve" smooth="yes"/>
      <point x="-48" y="-123"/>
      <point x="-35" y="-140"/>
      <point x="0" y="-140" type="curve" smooth="yes"/>
      <point x="31" y="-140"/>
      <point x="54" y="-126"/>
      <point x="60" y="-66" type="curve" smooth="yes"/>
      <point x="120" y="503" type="line" smooth="yes"/>
      <point x="122" y="518"/>
      <point x="136" y="525"/>
    </contour>
  </outline>
</glyph>
<glyph name="m" format="1">
  <advance width="848"/>
  <unicode hex="006D"/>
  <outline>
    <contour>
      <point x="797" y="71" type="curve" smooth="yes"/>
      <point x="800" y="71"/>
      <point x="803" y="70"/>
      <point x="803" y="64" type="curve" smooth="yes"/>
      <point x="803" y="63"/>
      <point x="803" y="49"/>
      <point x="799" y="27" type="curve" smooth="yes"/>
      <point x="794" y="2"/>
      <point x="757" y="-6"/>
      <point x="739" y="-6" type="curve" smooth="yes"/>
      <point x="682" y="-6"/>
      <point x="649" y="24"/>
      <point x="649" y="92" type="curve" smooth="yes"/>
      <point x="649" y="125"/>
      <point x="677" y="360"/>
      <point x="677" y="379" type="curve" smooth="yes"/>
      <point x="677" y="430"/>
      <point x="652" y="456"/>
      <point x="601" y="456" type="curve" smooth="yes"/>
      <point x="560" y="456"/>
      <point x="496" y="425"/>
      <point x="452" y="305" type="curve"/>
      <point x="422" y="20" type="line" smooth="yes"/>
      <point x="421" y="6"/>
      <point x="406" y="-2"/>
      <point x="380" y="-2" type="curve" smooth="yes"/>
      <point x="376" y="-2" type="line" smooth="yes"/>
      <point x="349" y="-2"/>
      <point x="338" y="7"/>
      <point x="338" y="19" type="curve" smooth="yes"/>
      <point x="338" y="19"/>
      <point x="375" y="363"/>
      <point x="375" y="379" type="curve" smooth="yes"/>
      <point x="375" y="430"/>
      <point x="350" y="456"/>
      <point x="299" y="456" type="curve" smooth="yes"/>
      <point x="258" y="456"/>
      <point x="195" y="426"/>
      <point x="151" y="307" type="curve"/>
      <point x="121" y="20" type="line" smooth="yes"/>
      <point x="119" y="6"/>
      <point x="105" y="-2"/>
      <point x="79" y="-2" type="curve" smooth="yes"/>
      <point x="75" y="-2" type="line" smooth="yes"/>
      <point x="48" y="-2"/>
      <point x="37" y="7"/>
      <point x="37" y="19" type="curve" smooth="yes"/>
      <point x="37" y="19"/>
      <point x="81" y="410"/>
      <point x="81" y="457" type="curve" smooth="yes"/>
      <point x="81" y="481"/>
      <point x="80" y="485"/>
      <point x="80" y="491" type="curve" smooth="yes"/>
      <point x="80" y="513"/>
      <point x="129" y="514"/>
      <point x="136" y="514" type="curve" smooth="yes"/>
      <point x="156" y="514"/>
      <point x="162" y="475"/>
      <point x="162" y="447" type="curve" smooth="yes"/>
      <point x="162" y="428" type="line"/>
      <point x="206" y="499"/>
      <point x="269" y="529"/>
      <point x="329" y="529" type="curve" smooth="yes"/>
      <point x="416" y="529"/>
      <point x="453" y="484"/>
      <point x="460" y="421" type="curve"/>
      <point x="505" y="496"/>
      <point x="569" y="529"/>
      <point x="631" y="529" type="curve" smooth="yes"/>
      <point x="728" y="529"/>
      <point x="763" y="473"/>
      <point x="763" y="399" type="curve" smooth="yes"/>
      <point x="763" y="382"/>
      <point x="734" y="128"/>
      <point x="734" y="107" type="curve" smooth="yes"/>
      <point x="734" y="66"/>
      <point x="754" y="66"/>
      <point x="770" y="66" type="curve" smooth="yes"/>
      <point x="782" y="66"/>
      <point x="791" y="71"/>
    </contour>
  </outline>
</glyph>
<glyph name="p" format="1">
  <advance width="573"/>
  <unicode hex="0070"/>
  <outline>
    <contour>
      <point x="329" y="529" type="curve" smooth="yes"/>
      <point x="402" y="529"/>
      <point x="516" y="488"/>
      <point x="516" y="318" type="curve" smooth="yes"/>
      <point x="516" y="129"/>
      <point x="418" y="-6"/>
      <point x="265" y="-6" type="curve" smooth="yes"/>
      <point x="198" y="-6"/>
      <point x="152" y="27"/>
      <point x="130" y="47" type="curve"/>
      <point x="106" y="-186" type="line" smooth="yes"/>
      <point x="104" y="-200"/>
      <point x="89" y="-208"/>
      <point x="64" y="-208" type="curve" smooth="yes"/>
      <point x="60" y="-208" type="line" smooth="yes"/>
      <point x="33" y="-208"/>
      <point x="22" y="-199"/>
      <point x="22" y="-187" type="curve" smooth="yes"/>
      <point x="81" y="383" type="line" smooth="yes"/>
      <point x="85" y="421"/>
      <point x="87" y="448"/>
      <point x="87" y="457" type="curve" smooth="yes"/>
      <point x="87" y="481"/>
      <point x="86" y="485"/>
      <point x="86" y="491" type="curve" smooth="yes"/>
      <point x="86" y="513"/>
      <point x="135" y="514"/>
      <point x="142" y="514" type="curve" smooth="yes"/>
      <point x="149" y="514"/>
      <point x="168" y="511"/>
      <point x="168" y="439" type="curve" smooth="yes"/>
      <point x="168" y="427" type="line"/>
      <point x="210" y="500"/>
      <point x="268" y="529"/>
    </contour>
    <contour>
      <point x="253" y="66" type="curve" smooth="yes"/>
      <point x="394" y="66"/>
      <point x="429" y="190"/>
      <point x="429" y="312" type="curve" smooth="yes"/>
      <point x="429" y="422"/>
      <point x="376" y="456"/>
      <point x="310" y="456" type="curve" smooth="yes"/>
      <point x="265" y="456"/>
      <point x="197" y="419"/>
      <point x="155" y="290" type="curve"/>
      <point x="149" y="236"/>
      <point x="143" y="174"/>
      <point x="137" y="111" type="curve"/>
      <point x="153" y="97"/>
      <point x="194" y="66"/>
    </contour>
  </outline>
</glyph>
<glyph name="q" format="1">
  <advance width="566"/>
  <unicode hex="0071"/>
  <outline>
    <contour>
      <point x="485" y="525" type="curve" smooth="yes"/>
      <point x="493" y="525" type="line" smooth="yes"/>
      <point x="513" y="525"/>
      <point x="518" y="517"/>
      <point x="518" y="503" type="curve" smooth="yes"/>
      <point x="446" y="-186" type="line" smooth="yes"/>
      <point x="444" y="-202"/>
      <point x="430" y="-208"/>
      <point x="404" y="-208" type="curve" smooth="yes"/>
      <point x="400" y="-208" type="line" smooth="yes"/>
      <point x="372" y="-208"/>
      <point x="362" y="-201"/>
      <point x="362" y="-186" type="curve" smooth="yes"/>
      <point x="391" y="98" type="line"/>
      <point x="349" y="24"/>
      <point x="291" y="-6"/>
      <point x="232" y="-6" type="curve" smooth="yes"/>
      <point x="159" y="-6"/>
      <point x="45" y="36"/>
      <point x="45" y="210" type="curve" smooth="yes"/>
      <point x="45" y="396"/>
      <point x="149" y="529"/>
      <point x="310" y="529" type="curve" smooth="yes"/>
      <point x="374" y="529"/>
      <point x="420" y="497"/>
      <point x="443" y="475" type="curve"/>
      <point x="450" y="500"/>
      <point x="463" y="525"/>
    </contour>
    <contour>
      <point x="405" y="233" type="curve"/>
      <point x="419" y="367" type="line" smooth="yes"/>
      <point x="421" y="385"/>
      <point x="424" y="402"/>
      <point x="427" y="417" type="curve"/>
      <point x="408" y="433"/>
      <point x="371" y="456"/>
      <point x="318" y="456" type="curve" smooth="yes"/>
      <point x="169" y="456"/>
      <point x="132" y="336"/>
      <point x="132" y="216" type="curve" smooth="yes"/>
      <point x="132" y="102"/>
      <point x="185" y="67"/>
      <point x="251" y="67" type="curve" smooth="yes"/>
      <point x="296" y="67"/>
      <point x="363" y="103"/>
    </contour>
  </outline>
</glyph>
<glyph name="t" format="1">
  <advance width="342"/>
  <unicode hex="0074"/>
  <outline>
    <contour>
      <point x="0" y="0" type="move" name="Anchor-1"/>
    </contour>
    <contour>
      <point x="161" y="0" type="move" name="Anchor-0"/>
    </contour>
    <contour>
      <point x="181" y="650" type="curve" smooth="yes"/>
      <point x="185" y="650" type="line" smooth="yes"/>
      <point x="213" y="650"/>
      <point x="223" y="643"/>
      <point x="223" y="628" type="curve" smooth="yes"/>
      <point x="212" y="523" type="line"/>
      <point x="297" y="523" type="line" smooth="yes"/>
      <point x="309" y="523"/>
      <point x="313" y="518"/>
      <point x="313" y="504" type="curve" smooth="yes"/>
      <point x="313" y="500"/>
      <point x="306" y="451"/>
      <point x="268" y="451" type="curve" smooth="yes"/>
      <point x="204" y="451" type="line"/>
      <point x="204" y="451"/>
      <point x="170" y="143"/>
      <point x="170" y="123" type="curve" smooth="yes"/>
      <point x="170" y="77"/>
      <point x="192" y="66"/>
      <point x="218" y="66" type="curve" smooth="yes"/>
      <point x="249" y="66"/>
      <point x="256" y="73"/>
      <point x="263" y="73" type="curve" smooth="yes"/>
      <point x="266" y="73"/>
      <point x="270" y="71"/>
      <point x="270" y="64" type="curve" smooth="yes"/>
      <point x="270" y="63"/>
      <point x="269" y="44"/>
      <point x="265" y="27" type="curve" smooth="yes"/>
      <point x="259" y="2"/>
      <point x="226" y="-6"/>
      <point x="197" y="-6" type="curve" smooth="yes"/>
      <point x="152" y="-6"/>
      <point x="85" y="8"/>
      <point x="85" y="104" type="curve" smooth="yes"/>
      <point x="85" y="134"/>
      <point x="120" y="451"/>
      <point x="120" y="451" type="curve"/>
      <point x="70" y="451" type="line" smooth="yes"/>
      <point x="56" y="451"/>
      <point x="53" y="462"/>
      <point x="53" y="478" type="curve" smooth="yes"/>
      <point x="53" y="489"/>
      <point x="54" y="523"/>
      <point x="78" y="523" type="curve" smooth="yes"/>
      <point x="128" y="523" type="line"/>
      <point x="140" y="628" type="line" smooth="yes"/>
      <point x="142" y="644"/>
      <point x="155" y="650"/>
    </contour>
  </outline>
</glyph>
<glyph name="v" format="1">
  <advance width="485"/>
  <unicode hex="0076"/>
  <outline>
    <contour>
      <point x="441" y="525" type="curve" smooth="yes"/>
      <point x="442" y="525" type="line" smooth="yes"/>
      <point x="470" y="525"/>
      <point x="483" y="520"/>
      <point x="483" y="510" type="curve" smooth="yes"/>
      <point x="483" y="505"/>
      <point x="482" y="501"/>
      <point x="479" y="494" type="curve" smooth="yes"/>
      <point x="267" y="14" type="line" smooth="yes"/>
      <point x="262" y="2"/>
      <point x="246" y="-2"/>
      <point x="226" y="-2" type="curve" smooth="yes"/>
      <point x="191" y="-2" type="line" smooth="yes"/>
      <point x="171" y="-2"/>
      <point x="155" y="2"/>
      <point x="152" y="14" type="curve" smooth="yes"/>
      <point x="42" y="497" type="line" smooth="yes"/>
      <point x="40" y="506"/>
      <point x="40" y="507"/>
      <point x="40" y="508" type="curve" smooth="yes"/>
      <point x="41" y="518"/>
      <point x="55" y="525"/>
      <point x="85" y="525" type="curve" smooth="yes"/>
      <point x="93" y="525" type="line" smooth="yes"/>
      <point x="113" y="525"/>
      <point x="129" y="521"/>
      <point x="132" y="509" type="curve" smooth="yes"/>
      <point x="191" y="245" type="line" smooth="yes"/>
      <point x="202" y="198"/>
      <point x="212" y="151"/>
      <point x="223" y="104" type="curve"/>
      <point x="228" y="104" type="line"/>
      <point x="246" y="149"/>
      <point x="265" y="200"/>
      <point x="285" y="245" type="curve" smooth="yes"/>
      <point x="400" y="509" type="line" smooth="yes"/>
      <point x="405" y="521"/>
      <point x="426" y="525"/>
    </contour>
  </outline>
</glyph>
<glyph name="w" format="1">
  <advance width="747"/>
  <unicode hex="0077"/>
  <outline>
    <contour>
      <point x="394" y="523" type="move" name="Anchor-1"/>
    </contour>
    <contour>
      <point x="0" y="0" type="move" name="Anchor-0"/>
    </contour>
    <contour>
      <point x="694" y="525" type="curve" smooth="yes"/>
      <point x="722" y="525"/>
      <point x="736" y="520"/>
      <point x="736" y="510" type="curve" smooth="yes"/>
      <point x="736" y="505"/>
      <point x="735" y="501"/>
      <point x="732" y="494" type="curve" smooth="yes"/>
      <point x="547" y="14" type="line" smooth="yes"/>
      <point x="542" y="2"/>
      <point x="526" y="-2"/>
      <point x="506" y="-2" type="curve" smooth="yes"/>
      <point x="473" y="-2" type="line" smooth="yes"/>
      <point x="453" y="-2"/>
      <point x="437" y="2"/>
      <point x="435" y="14" type="curve" smooth="yes"/>
      <point x="382" y="378" type="line"/>
      <point x="249" y="14" type="line" smooth="yes"/>
      <point x="245" y="2"/>
      <point x="228" y="-2"/>
      <point x="208" y="-2" type="curve" smooth="yes"/>
      <point x="175" y="-2" type="line" smooth="yes"/>
      <point x="155" y="-2"/>
      <point x="138" y="2"/>
      <point x="136" y="14" type="curve" smooth="yes"/>
      <point x="52" y="498"/>
      <point x="51" y="504"/>
      <point x="51" y="508" type="curve" smooth="yes"/>
      <point x="52" y="518"/>
      <point x="66" y="525"/>
      <point x="96" y="525" type="curve" smooth="yes"/>
      <point x="105" y="525" type="line" smooth="yes"/>
      <point x="125" y="525"/>
      <point x="142" y="521"/>
      <point x="144" y="509" type="curve" smooth="yes"/>
      <point x="207" y="110" type="line"/>
      <point x="352" y="508" type="line" smooth="yes"/>
      <point x="357" y="521"/>
      <point x="373" y="525"/>
      <point x="393" y="525" type="curve" smooth="yes"/>
      <point x="404" y="525" type="line" smooth="yes"/>
      <point x="424" y="525"/>
      <point x="439" y="521"/>
      <point x="441" y="508" type="curve" smooth="yes"/>
      <point x="505" y="110" type="line"/>
      <point x="651" y="509" type="line" smooth="yes"/>
      <point x="655" y="521"/>
      <point x="674" y="525"/>
    </contour>
  </outline>
</glyph>
<glyph name="x" format="1">
  <advance width="485"/>
  <unicode hex="0078"/>
  <outline>
    <contour>
      <point x="430" y="525" type="curve" smooth="yes"/>
      <point x="434" y="525" type="line" smooth="yes"/>
      <point x="465" y="525"/>
      <point x="478" y="520"/>
      <point x="478" y="510" type="curve" smooth="yes"/>
      <point x="478" y="504"/>
      <point x="475" y="498"/>
      <point x="469" y="490" type="curve" smooth="yes"/>
      <point x="294" y="270" type="line"/>
      <point x="431" y="33" type="line" smooth="yes"/>
      <point x="436" y="26"/>
      <point x="438" y="20"/>
      <point x="438" y="15" type="curve" smooth="yes"/>
      <point x="436" y="4"/>
      <point x="424" y="-2"/>
      <point x="390" y="-2" type="curve" smooth="yes"/>
      <point x="379" y="-2" type="line" smooth="yes"/>
      <point x="358" y="-2"/>
      <point x="344" y="1"/>
      <point x="337" y="13" type="curve" smooth="yes"/>
      <point x="232" y="196" type="line"/>
      <point x="85" y="12" type="line" smooth="yes"/>
      <point x="76" y="1"/>
      <point x="59" y="-2"/>
      <point x="41" y="-2" type="curve" smooth="yes"/>
      <point x="37" y="-2" type="line" smooth="yes"/>
      <point x="6" y="-2"/>
      <point x="-7" y="2"/>
      <point x="-7" y="13" type="curve" smooth="yes"/>
      <point x="-7" y="19"/>
      <point x="-4" y="24"/>
      <point x="2" y="33" type="curve" smooth="yes"/>
      <point x="189" y="268" type="line"/>
      <point x="63" y="490" type="line" smooth="yes"/>
      <point x="58" y="497"/>
      <point x="56" y="503"/>
      <point x="56" y="508" type="curve" smooth="yes"/>
      <point x="58" y="519"/>
      <point x="70" y="525"/>
      <point x="104" y="525" type="curve" smooth="yes"/>
      <point x="115" y="525" type="line" smooth="yes"/>
      <point x="136" y="525"/>
      <point x="150" y="522"/>
      <point x="157" y="510" type="curve" smooth="yes"/>
      <point x="253" y="344" type="line"/>
      <point x="386" y="511" type="line" smooth="yes"/>
      <point x="394" y="522"/>
      <point x="412" y="525"/>
    </contour>
  </outline>
</glyph>
<glyph name="y" format="1">
  <advance width="481"/>
  <unicode hex="0079"/>
  <outline>
    <contour>
      <point x="271" y="523" type="move" name="Anchor-1"/>
    </contour>
    <contour>
      <point x="351" y="0" type="move" name="Anchor-0"/>
    </contour>
    <contour>
      <point x="444" y="525" type="curve" smooth="yes"/>
      <point x="447" y="525" type="line" smooth="yes"/>
      <point x="474" y="525"/>
      <point x="485" y="519"/>
      <point x="485" y="509" type="curve" smooth="yes"/>
      <point x="485" y="504"/>
      <point x="484" y="501"/>
      <point x="481" y="494" type="curve" smooth="yes"/>
      <point x="152" y="-187" type="line" smooth="yes"/>
      <point x="145" y="-202"/>
      <point x="127" y="-208"/>
      <point x="103" y="-208" type="curve" smooth="yes"/>
      <point x="88" y="-208" type="line" smooth="yes"/>
      <point x="67" y="-208"/>
      <point x="57" y="-203"/>
      <point x="57" y="-193" type="curve" smooth="yes"/>
      <point x="57" y="-191"/>
      <point x="59" y="-184"/>
      <point x="64" y="-175" type="curve" smooth="yes"/>
      <point x="169" y="28" type="line"/>
      <point x="42" y="498"/>
      <point x="41" y="502"/>
      <point x="41" y="508" type="curve" smooth="yes"/>
      <point x="41" y="518"/>
      <point x="56" y="525"/>
      <point x="86" y="525" type="curve" smooth="yes"/>
      <point x="94" y="525" type="line" smooth="yes"/>
      <point x="114" y="525"/>
      <point x="129" y="521"/>
      <point x="132" y="509" type="curve" smooth="yes"/>
      <point x="209" y="227" type="line"/>
      <point x="230" y="148" type="line"/>
      <point x="232" y="148" type="line"/>
      <point x="242" y="173"/>
      <point x="255" y="202"/>
      <point x="267" y="227" type="curve" smooth="yes"/>
      <point x="401" y="509" type="line" smooth="yes"/>
      <point x="407" y="521"/>
      <point x="423" y="525"/>
    </contour>
  </outline>
</glyph>
<glyph name="z" format="1">
  <advance width="489"/>
  <unicode hex="007A"/>
  <outline>
    <contour>
      <point x="275" y="523" type="move" name="Anchor-1"/>
    </contour>
    <contour>
      <point x="231" y="0" type="move" name="Anchor-0"/>
    </contour>
    <contour>
      <point x="104" y="523" type="curve" smooth="yes"/>
      <point x="455" y="523" type="line" smooth="yes"/>
      <point x="464" y="523"/>
      <point x="470" y="494"/>
      <point x="470" y="475" type="curve" smooth="yes"/>
      <point x="470" y="468"/>
      <point x="468" y="463"/>
      <point x="466" y="461" type="curve" smooth="yes"/>
      <point x="134" y="72" type="line"/>
      <point x="409" y="72" type="line" smooth="yes"/>
      <point x="423" y="72"/>
      <point x="426" y="61"/>
      <point x="426" y="45" type="curve" smooth="yes"/>
      <point x="426" y="34"/>
      <point x="425" y="0"/>
      <point x="401" y="0" type="curve" smooth="yes"/>
      <point x="31" y="0" type="line" smooth="yes"/>
      <point x="24" y="0"/>
      <point x="14" y="26"/>
      <point x="14" y="46" type="curve" smooth="yes"/>
      <point x="14" y="51"/>
      <point x="15" y="58"/>
      <point x="19" y="62" type="curve" smooth="yes"/>
      <point x="352" y="451" type="line"/>
      <point x="96" y="451" type="line" smooth="yes"/>
      <point x="82" y="451"/>
      <point x="79" y="462"/>
      <point x="79" y="478" type="curve" smooth="yes"/>
      <point x="79" y="489"/>
      <point x="80" y="523"/>
    </contour>
  </outline>
</glyph>
<glyph name="braceleft" format="1">
  <advance width="274"/>
  <unicode hex="007B"/>
  <outline>
    <contour>
      <point x="221" y="768" type="curve" smooth="yes"/>
      <point x="271" y="768" type="line" smooth="yes"/>
      <point x="283" y="768"/>
      <point x="289" y="762"/>
      <point x="289" y="748" type="curve" smooth="yes"/>
      <point x="289" y="732"/>
      <point x="286" y="706"/>
      <point x="265" y="706" type="curve" smooth="yes"/>
      <point x="243" y="706" type="line" smooth="yes"/>
      <point x="215" y="706"/>
      <point x="206" y="684"/>
      <point x="202" y="645" type="curve" smooth="yes"/>
      <point x="184" y="469" type="line" smooth="yes"/>
      <point x="174" y="371"/>
      <point x="107" y="326"/>
      <point x="89" y="314" type="curve"/>
      <point x="103" y="307"/>
      <point x="152" y="269"/>
      <point x="152" y="186" type="curve" smooth="yes"/>
      <point x="152" y="144"/>
      <point x="131" y="13"/>
      <point x="131" y="-38" type="curve" smooth="yes"/>
      <point x="131" y="-62"/>
      <point x="138" y="-76"/>
      <point x="160" y="-76" type="curve" smooth="yes"/>
      <point x="182" y="-76" type="line" smooth="yes"/>
      <point x="194" y="-76"/>
      <point x="200" y="-82"/>
      <point x="200" y="-96" type="curve" smooth="yes"/>
      <point x="200" y="-112"/>
      <point x="197" y="-138"/>
      <point x="176" y="-138" type="curve" smooth="yes"/>
      <point x="126" y="-138" type="line" smooth="yes"/>
      <point x="102" y="-138"/>
      <point x="59" y="-122"/>
      <point x="59" y="-46" type="curve" smooth="yes"/>
      <point x="59" y="-1"/>
      <point x="81" y="161"/>
      <point x="81" y="191" type="curve" smooth="yes"/>
      <point x="81" y="231"/>
      <point x="72" y="260"/>
      <point x="40" y="274" type="curve" smooth="yes"/>
      <point x="28" y="279"/>
      <point x="19" y="287"/>
      <point x="19" y="303" type="curve" smooth="yes"/>
      <point x="19" y="337"/>
      <point x="22" y="345"/>
      <point x="49" y="356" type="curve" smooth="yes"/>
      <point x="94" y="374"/>
      <point x="106" y="418"/>
      <point x="113" y="485" type="curve" smooth="yes"/>
      <point x="131" y="652" type="line" smooth="yes"/>
      <point x="141" y="747"/>
      <point x="188" y="768"/>
    </contour>
  </outline>
</glyph>
<glyph name="braceright" format="1">
  <advance width="274"/>
  <unicode hex="007D"/>
  <outline>
    <contour>
      <point x="96" y="768" type="curve" smooth="yes"/>
      <point x="146" y="768" type="line" smooth="yes"/>
      <point x="170" y="768"/>
      <point x="213" y="752"/>
      <point x="213" y="676" type="curve" smooth="yes"/>
      <point x="213" y="631"/>
      <point x="191" y="469"/>
      <point x="191" y="439" type="curve" smooth="yes"/>
      <point x="191" y="399"/>
      <point x="200" y="370"/>
      <point x="232" y="356" type="curve" smooth="yes"/>
      <point x="244" y="351"/>
      <point x="253" y="343"/>
      <point x="253" y="327" type="curve" smooth="yes"/>
      <point x="253" y="295"/>
      <point x="249" y="284"/>
      <point x="223" y="274" type="curve" smooth="yes"/>
      <point x="176" y="256"/>
      <point x="166" y="212"/>
      <point x="159" y="145" type="curve" smooth="yes"/>
      <point x="141" y="-22" type="line" smooth="yes"/>
      <point x="131" y="-117"/>
      <point x="84" y="-138"/>
      <point x="51" y="-138" type="curve" smooth="yes"/>
      <point x="1" y="-138" type="line" smooth="yes"/>
      <point x="-11" y="-138"/>
      <point x="-17" y="-132"/>
      <point x="-17" y="-118" type="curve" smooth="yes"/>
      <point x="-17" y="-102"/>
      <point x="-14" y="-76"/>
      <point x="7" y="-76" type="curve" smooth="yes"/>
      <point x="29" y="-76" type="line" smooth="yes"/>
      <point x="57" y="-76"/>
      <point x="66" y="-54"/>
      <point x="70" y="-15" type="curve" smooth="yes"/>
      <point x="88" y="161" type="line" smooth="yes"/>
      <point x="98" y="259"/>
      <point x="165" y="304"/>
      <point x="183" y="316" type="curve"/>
      <point x="169" y="323"/>
      <point x="120" y="361"/>
      <point x="120" y="444" type="curve" smooth="yes"/>
      <point x="120" y="486"/>
      <point x="141" y="617"/>
      <point x="141" y="668" type="curve" smooth="yes"/>
      <point x="141" y="692"/>
      <point x="134" y="706"/>
      <point x="112" y="706" type="curve" smooth="yes"/>
      <point x="90" y="706" type="line" smooth="yes"/>
      <point x="78" y="706"/>
      <point x="72" y="712"/>
      <point x="72" y="726" type="curve" smooth="yes"/>
      <point x="72" y="742"/>
      <point x="75" y="768"/>
    </contour>
  </outline>
</glyph>
<glyph name="asciitilde" format="1">
  <advance width="547"/>
  <unicode hex="007E"/>
  <outline>
    <contour>
      <point x="418" y="306" type="curve" smooth="yes"/>
      <point x="434" y="315"/>
      <point x="449" y="315"/>
      <point x="462" y="304" type="curve" smooth="yes"/>
      <point x="480" y="288"/>
      <point x="475" y="275"/>
      <point x="461" y="264" type="curve" smooth="yes"/>
      <point x="426" y="239"/>
      <point x="384" y="220"/>
      <point x="336" y="220" type="curve" smooth="yes"/>
      <point x="291" y="220"/>
      <point x="267" y="228"/>
      <point x="246" y="236" type="curve" smooth="yes"/>
      <point x="226" y="244"/>
      <point x="210" y="251"/>
      <point x="194" y="251" type="curve" smooth="yes"/>
      <point x="168" y="251"/>
      <point x="152" y="241"/>
      <point x="131" y="232" type="curve" smooth="yes"/>
      <point x="107" y="222"/>
      <point x="93" y="225"/>
      <point x="81" y="238" type="curve" smooth="yes"/>
      <point x="67" y="254"/>
      <point x="71" y="267"/>
      <point x="83" y="274" type="curve" smooth="yes"/>
      <point x="116" y="295"/>
      <point x="161" y="315"/>
      <point x="209" y="315" type="curve" smooth="yes"/>
      <point x="254" y="315"/>
      <point x="282" y="303"/>
      <point x="298" y="297" type="curve" smooth="yes"/>
      <point x="318" y="290"/>
      <point x="335" y="284"/>
      <point x="350" y="284" type="curve" smooth="yes"/>
      <point x="376" y="284"/>
      <point x="397" y="294"/>
    </contour>
  </outline>
</glyph>
<glyph name="cent" format="1">
  <advance width="486"/>
  <unicode hex="00A2"/>
  <outline>
    <contour>
      <point x="321" y="578" type="curve" smooth="yes"/>
      <point x="323" y="578" type="line" smooth="yes"/>
      <point x="337" y="578"/>
      <point x="341" y="572"/>
      <point x="341" y="558" type="curve" smooth="yes"/>
      <point x="338" y="528" type="line"/>
      <point x="414" y="524"/>
      <point x="455" y="496"/>
      <point x="455" y="477" type="curve" smooth="yes"/>
      <point x="455" y="464"/>
      <point x="433" y="427"/>
      <point x="416" y="427" type="curve" smooth="yes"/>
      <point x="409" y="427"/>
      <point x="390" y="450"/>
      <point x="330" y="455" type="curve"/>
      <point x="288" y="66" type="line"/>
      <point x="360" y="69"/>
      <point x="398" y="97"/>
      <point x="408" y="97" type="curve" smooth="yes"/>
      <point x="412" y="97"/>
      <point x="414" y="96"/>
      <point x="414" y="85" type="curve" smooth="yes"/>
      <point x="414" y="83"/>
      <point x="413" y="60"/>
      <point x="409" y="40" type="curve" smooth="yes"/>
      <point x="402" y="4"/>
      <point x="321" y="-4"/>
      <point x="281" y="-6" type="curve"/>
      <point x="276" y="-51" type="line" smooth="yes"/>
      <point x="274" y="-64"/>
      <point x="268" y="-71"/>
      <point x="256" y="-71" type="curve" smooth="yes"/>
      <point x="254" y="-71" type="line" smooth="yes"/>
      <point x="239" y="-71"/>
      <point x="236" y="-65"/>
      <point x="236" y="-51" type="curve" smooth="yes"/>
      <point x="236" y="-49"/>
      <point x="239" y="-20"/>
      <point x="241" y="-5" type="curve"/>
      <point x="117" y="2"/>
      <point x="51" y="64"/>
      <point x="51" y="204" type="curve" smooth="yes"/>
      <point x="51" y="371"/>
      <point x="119" y="519"/>
      <point x="298" y="528" type="curve"/>
      <point x="301" y="558" type="line" smooth="yes"/>
      <point x="302" y="572"/>
      <point x="308" y="578"/>
    </contour>
    <contour>
      <point x="248" y="67" type="curve"/>
      <point x="290" y="456" type="line"/>
      <point x="204" y="449"/>
      <point x="138" y="381"/>
      <point x="138" y="210" type="curve" smooth="yes"/>
      <point x="138" y="119"/>
      <point x="172" y="74"/>
    </contour>
  </outline>
</glyph>
<glyph name="currency" format="1">
  <advance width="534"/>
  <unicode hex="00A4"/>
  <outline>
    <contour>
      <point x="429" y="500" type="curve" smooth="yes"/>
      <point x="434" y="500"/>
      <point x="442" y="497"/>
      <point x="446" y="493" type="curve" smooth="yes"/>
      <point x="449" y="490" type="line" smooth="yes"/>
      <point x="454" y="485"/>
      <point x="456" y="480"/>
      <point x="456" y="474" type="curve" smooth="yes"/>
      <point x="456" y="466"/>
      <point x="453" y="459"/>
      <point x="443" y="450" type="curve" smooth="yes"/>
      <point x="416" y="426" type="line"/>
      <point x="432" y="401"/>
      <point x="442" y="371"/>
      <point x="442" y="339" type="curve" smooth="yes"/>
      <point x="442" y="293"/>
      <point x="423" y="249"/>
      <point x="394" y="217" type="curve"/>
      <point x="416" y="193" type="line" smooth="yes"/>
      <point x="422" y="186"/>
      <point x="425" y="179"/>
      <point x="425" y="172" type="curve" smooth="yes"/>
      <point x="425" y="167"/>
      <point x="422" y="161"/>
      <point x="417" y="156" type="curve" smooth="yes"/>
      <point x="413" y="152" type="line" smooth="yes"/>
      <point x="407" y="146"/>
      <point x="401" y="143"/>
      <point x="393" y="143" type="curve" smooth="yes"/>
      <point x="386" y="143"/>
      <point x="379" y="148"/>
      <point x="373" y="154" type="curve" smooth="yes"/>
      <point x="351" y="178" type="line"/>
      <point x="319" y="157"/>
      <point x="283" y="145"/>
      <point x="244" y="145" type="curve" smooth="yes"/>
      <point x="205" y="145"/>
      <point x="170" y="157"/>
      <point x="143" y="178" type="curve"/>
      <point x="116" y="153" type="line" smooth="yes"/>
      <point x="108" y="146"/>
      <point x="101" y="143"/>
      <point x="94" y="143" type="curve" smooth="yes"/>
      <point x="88" y="143"/>
      <point x="83" y="148"/>
      <point x="78" y="153" type="curve" smooth="yes"/>
      <point x="75" y="156" type="line" smooth="yes"/>
      <point x="72" y="159"/>
      <point x="69" y="165"/>
      <point x="69" y="170" type="curve" smooth="yes"/>
      <point x="69" y="178"/>
      <point x="74" y="185"/>
      <point x="82" y="193" type="curve" smooth="yes"/>
      <point x="108" y="217" type="line"/>
      <point x="93" y="241"/>
      <point x="85" y="269"/>
      <point x="85" y="300" type="curve" smooth="yes"/>
      <point x="85" y="347"/>
      <point x="100" y="391"/>
      <point x="131" y="427" type="curve"/>
      <point x="109" y="450" type="line" smooth="yes"/>
      <point x="104" y="456"/>
      <point x="100" y="463"/>
      <point x="100" y="470" type="curve" smooth="yes"/>
      <point x="100" y="476"/>
      <point x="103" y="483"/>
      <point x="109" y="489" type="curve" smooth="yes"/>
      <point x="111" y="491" type="line" smooth="yes"/>
      <point x="116" y="496"/>
      <point x="123" y="499"/>
      <point x="130" y="499" type="curve" smooth="yes"/>
      <point x="137" y="499"/>
      <point x="145" y="497"/>
      <point x="151" y="489" type="curve" smooth="yes"/>
      <point x="173" y="465" type="line"/>
      <point x="205" y="487"/>
      <point x="242" y="500"/>
      <point x="281" y="500" type="curve" smooth="yes"/>
      <point x="320" y="500"/>
      <point x="355" y="487"/>
      <point x="382" y="466" type="curve"/>
      <point x="408" y="490" type="line" smooth="yes"/>
      <point x="415" y="496"/>
      <point x="422" y="500"/>
    </contour>
    <contour>
      <point x="275" y="439" type="curve" smooth="yes"/>
      <point x="206" y="439"/>
      <point x="146" y="379"/>
      <point x="146" y="309" type="curve" smooth="yes"/>
      <point x="146" y="251"/>
      <point x="190" y="206"/>
      <point x="250" y="206" type="curve" smooth="yes"/>
      <point x="317" y="206"/>
      <point x="380" y="264"/>
      <point x="380" y="333" type="curve" smooth="yes"/>
      <point x="380" y="392"/>
      <point x="335" y="439"/>
    </contour>
  </outline>
</glyph>
<glyph name="yen" format="1">
  <advance width="559"/>
  <unicode hex="00A5"/>
  <outline>
    <contour>
      <point x="576" y="686" type="curve" smooth="yes"/>
      <point x="576" y="681"/>
      <point x="571" y="674"/>
      <point x="566" y="667" type="curve" smooth="yes"/>
      <point x="375" y="422" type="line"/>
      <point x="501" y="422" type="line" smooth="yes"/>
      <point x="514" y="422"/>
      <point x="517" y="412"/>
      <point x="517" y="397" type="curve" smooth="yes"/>
      <point x="517" y="387"/>
      <point x="516" y="355"/>
      <point x="494" y="355" type="curve" smooth="yes"/>
      <point x="323" y="355" type="line"/>
      <point x="313" y="259" type="line"/>
      <point x="484" y="259" type="line" smooth="yes"/>
      <point x="497" y="259"/>
      <point x="500" y="249"/>
      <point x="500" y="234" type="curve" smooth="yes"/>
      <point x="500" y="224"/>
      <point x="499" y="192"/>
      <point x="477" y="192" type="curve" smooth="yes"/>
      <point x="306" y="192" type="line"/>
      <point x="288" y="20" type="line" smooth="yes"/>
      <point x="286" y="6"/>
      <point x="272" y="-2"/>
      <point x="246" y="-2" type="curve" smooth="yes"/>
      <point x="238" y="-2" type="line" smooth="yes"/>
      <point x="208" y="-2"/>
      <point x="200" y="6"/>
      <point x="200" y="20" type="curve" smooth="yes"/>
      <point x="218" y="192" type="line"/>
      <point x="49" y="192" type="line" smooth="yes"/>
      <point x="36" y="192"/>
      <point x="33" y="202"/>
      <point x="33" y="217" type="curve" smooth="yes"/>
      <point x="33" y="227"/>
      <point x="34" y="259"/>
      <point x="56" y="259" type="curve" smooth="yes"/>
      <point x="225" y="259" type="line"/>
      <point x="235" y="355" type="line"/>
      <point x="66" y="355" type="line" smooth="yes"/>
      <point x="53" y="355"/>
      <point x="50" y="365"/>
      <point x="50" y="380" type="curve" smooth="yes"/>
      <point x="50" y="390"/>
      <point x="51" y="422"/>
      <point x="73" y="422" type="curve" smooth="yes"/>
      <point x="199" y="422" type="line"/>
      <point x="59" y="667" type="line" smooth="yes"/>
      <point x="55" y="673"/>
      <point x="53" y="678"/>
      <point x="53" y="683" type="curve" smooth="yes"/>
      <point x="53" y="695"/>
      <point x="64" y="702"/>
      <point x="100" y="702" type="curve" smooth="yes"/>
      <point x="111" y="702" type="line" smooth="yes"/>
      <point x="132" y="702"/>
      <point x="146" y="699"/>
      <point x="153" y="687" type="curve" smooth="yes"/>
      <point x="291" y="441" type="line"/>
      <point x="485" y="688" type="line" smooth="yes"/>
      <point x="493" y="699"/>
      <point x="511" y="702"/>
      <point x="531" y="702" type="curve" smooth="yes"/>
      <point x="540" y="702" type="line" smooth="yes"/>
      <point x="565" y="701"/>
      <point x="576" y="696"/>
    </contour>
  </outline>
</glyph>
<glyph name="section" format="1">
  <advance width="429"/>
  <unicode hex="00A7"/>
  <outline>
    <contour>
      <point x="262" y="706" type="curve" smooth="yes"/>
      <point x="306" y="706"/>
      <point x="385" y="694"/>
      <point x="385" y="658" type="curve" smooth="yes"/>
      <point x="385" y="647"/>
      <point x="365" y="610"/>
      <point x="349" y="610" type="curve" smooth="yes"/>
      <point x="343" y="610"/>
      <point x="312" y="634"/>
      <point x="262" y="634" type="curve" smooth="yes"/>
      <point x="203" y="634"/>
      <point x="174" y="605"/>
      <point x="174" y="568" type="curve" smooth="yes"/>
      <point x="174" y="477"/>
      <point x="379" y="532"/>
      <point x="379" y="366" type="curve" smooth="yes"/>
      <point x="379" y="302"/>
      <point x="351" y="257"/>
      <point x="311" y="227" type="curve"/>
      <point x="329" y="210"/>
      <point x="342" y="186"/>
      <point x="342" y="154" type="curve" smooth="yes"/>
      <point x="342" y="38"/>
      <point x="246" y="-6"/>
      <point x="167" y="-6" type="curve" smooth="yes"/>
      <point x="122" y="-6"/>
      <point x="50" y="7"/>
      <point x="50" y="41" type="curve" smooth="yes"/>
      <point x="50" y="73"/>
      <point x="57" y="95"/>
      <point x="66" y="95" type="curve" smooth="yes"/>
      <point x="75" y="95"/>
      <point x="113" y="66"/>
      <point x="166" y="66" type="curve" smooth="yes"/>
      <point x="225" y="66"/>
      <point x="255" y="96"/>
      <point x="255" y="131" type="curve" smooth="yes"/>
      <point x="255" y="224"/>
      <point x="49" y="169"/>
      <point x="49" y="338" type="curve" smooth="yes"/>
      <point x="49" y="398"/>
      <point x="78" y="444"/>
      <point x="116" y="474" type="curve"/>
      <point x="98" y="491"/>
      <point x="86" y="515"/>
      <point x="86" y="549" type="curve" smooth="yes"/>
      <point x="86" y="662"/>
      <point x="182" y="706"/>
    </contour>
    <contour>
      <point x="199" y="435" type="curve"/>
      <point x="170" y="427"/>
      <point x="134" y="403"/>
      <point x="134" y="349" type="curve" smooth="yes"/>
      <point x="134" y="296"/>
      <point x="179" y="281"/>
      <point x="229" y="266" type="curve"/>
      <point x="259" y="273"/>
      <point x="293" y="297"/>
      <point x="293" y="353" type="curve" smooth="yes"/>
      <point x="293" y="404"/>
      <point x="248" y="420"/>
    </contour>
  </outline>
</glyph>
<glyph name="dieresis" format="1">
  <advance width="320"/>
  <unicode hex="00A8"/>
  <outline>
    <contour>
      <point x="170" y="700" type="move" name="Anchor-3"/>
    </contour>
    <contour>
      <point x="95" y="702" type="curve" smooth="yes"/>
      <point x="124" y="702"/>
      <point x="133" y="694"/>
      <point x="133" y="680" type="curve" smooth="yes"/>
      <point x="128" y="629" type="line" smooth="yes"/>
      <point x="126" y="616"/>
      <point x="112" y="607"/>
      <point x="82" y="607" type="curve" smooth="yes"/>
      <point x="52" y="607"/>
      <point x="44" y="615"/>
      <point x="44" y="629" type="curve" smooth="yes"/>
      <point x="49" y="680" type="line" smooth="yes"/>
      <point x="51" y="693"/>
      <point x="63" y="702"/>
    </contour>
    <contour>
      <point x="239" y="702" type="curve" smooth="yes"/>
      <point x="268" y="702"/>
      <point x="277" y="694"/>
      <point x="277" y="680" type="curve" smooth="yes"/>
      <point x="272" y="629" type="line" smooth="yes"/>
      <point x="270" y="616"/>
      <point x="256" y="607"/>
      <point x="226" y="607" type="curve" smooth="yes"/>
      <point x="196" y="607"/>
      <point x="188" y="615"/>
      <point x="188" y="629" type="curve" smooth="yes"/>
      <point x="193" y="680" type="line" smooth="yes"/>
      <point x="194" y="693"/>
      <point x="207" y="702"/>
    </contour>
  </outline>
</glyph>
<glyph name="copyright" format="1">
  <advance width="739"/>
  <unicode hex="00A9"/>
  <outline>
    <contour>
      <point x="369" y="708" type="curve" smooth="yes"/>
      <point x="568" y="708"/>
      <point x="729" y="551"/>
      <point x="729" y="352" type="curve" smooth="yes"/>
      <point x="729" y="153"/>
      <point x="568" y="-7"/>
      <point x="369" y="-7" type="curve" smooth="yes"/>
      <point x="170" y="-7"/>
      <point x="10" y="153"/>
      <point x="10" y="352" type="curve" smooth="yes"/>
      <point x="10" y="551"/>
      <point x="170" y="708"/>
    </contour>
    <contour>
      <point x="369" y="660" type="curve" smooth="yes"/>
      <point x="198" y="660"/>
      <point x="58" y="524"/>
      <point x="58" y="352" type="curve" smooth="yes"/>
      <point x="58" y="181"/>
      <point x="198" y="41"/>
      <point x="369" y="41" type="curve" smooth="yes"/>
      <point x="541" y="41"/>
      <point x="681" y="181"/>
      <point x="681" y="352" type="curve" smooth="yes"/>
      <point x="681" y="524"/>
      <point x="541" y="660"/>
    </contour>
    <contour>
      <point x="387" y="560" type="curve" smooth="yes"/>
      <point x="446" y="560"/>
      <point x="501" y="539"/>
      <point x="501" y="523" type="curve" smooth="yes"/>
      <point x="501" y="513"/>
      <point x="488" y="488"/>
      <point x="480" y="488" type="curve" smooth="yes"/>
      <point x="474" y="488"/>
      <point x="445" y="515"/>
      <point x="388" y="515" type="curve" smooth="yes"/>
      <point x="292" y="515"/>
      <point x="247" y="464"/>
      <point x="247" y="347" type="curve" smooth="yes"/>
      <point x="247" y="232"/>
      <point x="292" y="180"/>
      <point x="385" y="180" type="curve" smooth="yes"/>
      <point x="447" y="180"/>
      <point x="480" y="210"/>
      <point x="488" y="210" type="curve" smooth="yes"/>
      <point x="496" y="210"/>
      <point x="509" y="185"/>
      <point x="509" y="178" type="curve" smooth="yes"/>
      <point x="509" y="162"/>
      <point x="455" y="135"/>
      <point x="385" y="135" type="curve" smooth="yes"/>
      <point x="255" y="135"/>
      <point x="193" y="202"/>
      <point x="193" y="347" type="curve" smooth="yes"/>
      <point x="193" y="490"/>
      <point x="259" y="560"/>
    </contour>
  </outline>
</glyph>
<glyph name="ordfeminine" format="1">
  <advance width="319"/>
  <unicode hex="00AA"/>
  <outline>
    <contour>
      <point x="275" y="480" type="curve" smooth="yes"/>
      <point x="277" y="480"/>
      <point x="278" y="480"/>
      <point x="278" y="477" type="curve" smooth="yes"/>
      <point x="278" y="476"/>
      <point x="278" y="469"/>
      <point x="276" y="458" type="curve" smooth="yes"/>
      <point x="274" y="446"/>
      <point x="256" y="442"/>
      <point x="247" y="442" type="curve" smooth="yes"/>
      <point x="219" y="442"/>
      <point x="202" y="457"/>
      <point x="202" y="490" type="curve" smooth="yes"/>
      <point x="202" y="495" type="line"/>
      <point x="182" y="457"/>
      <point x="152" y="442"/>
      <point x="123" y="442" type="curve" smooth="yes"/>
      <point x="90" y="442"/>
      <point x="38" y="463"/>
      <point x="38" y="549" type="curve" smooth="yes"/>
      <point x="38" y="640"/>
      <point x="86" y="706"/>
      <point x="161" y="706" type="curve" smooth="yes"/>
      <point x="193" y="706"/>
      <point x="215" y="690"/>
      <point x="227" y="679" type="curve"/>
      <point x="231" y="694"/>
      <point x="235" y="704"/>
      <point x="249" y="704" type="curve" smooth="yes"/>
      <point x="253" y="704" type="line" smooth="yes"/>
      <point x="262" y="704"/>
      <point x="264" y="700"/>
      <point x="264" y="694" type="curve" smooth="yes"/>
      <point x="264" y="694"/>
      <point x="244" y="511"/>
      <point x="244" y="498" type="curve" smooth="yes"/>
      <point x="244" y="478"/>
      <point x="254" y="478"/>
      <point x="262" y="478" type="curve" smooth="yes"/>
      <point x="268" y="478"/>
      <point x="272" y="480"/>
    </contour>
    <contour>
      <point x="208" y="561" type="curve"/>
      <point x="212" y="600"/>
      <point x="217" y="643"/>
      <point x="219" y="651" type="curve"/>
      <point x="209" y="658"/>
      <point x="191" y="670"/>
      <point x="165" y="670" type="curve" smooth="yes"/>
      <point x="98" y="670"/>
      <point x="81" y="611"/>
      <point x="81" y="552" type="curve" smooth="yes"/>
      <point x="81" y="495"/>
      <point x="104" y="478"/>
      <point x="132" y="478" type="curve" smooth="yes"/>
      <point x="154" y="478"/>
      <point x="189" y="496"/>
    </contour>
  </outline>
</glyph>
<glyph name="logicalnot" format="1">
  <advance width="560"/>
  <unicode hex="00AC"/>
  <outline>
    <contour>
      <point x="71" y="338" type="curve" smooth="yes"/>
      <point x="505" y="338" type="line" smooth="yes"/>
      <point x="527" y="338"/>
      <point x="532" y="328"/>
      <point x="532" y="308" type="curve" smooth="yes"/>
      <point x="510" y="99" type="line" smooth="yes"/>
      <point x="508" y="85"/>
      <point x="498" y="77"/>
      <point x="478" y="77" type="curve" smooth="yes"/>
      <point x="465" y="77" type="line" smooth="yes"/>
      <point x="443" y="77"/>
      <point x="437" y="85"/>
      <point x="437" y="99" type="curve" smooth="yes"/>
      <point x="455" y="265" type="line"/>
      <point x="64" y="265" type="line" smooth="yes"/>
      <point x="52" y="265"/>
      <point x="46" y="271"/>
      <point x="46" y="285" type="curve" smooth="yes"/>
      <point x="46" y="312"/>
      <point x="48" y="338"/>
    </contour>
  </outline>
</glyph>
<glyph name="registered" format="1">
  <advance width="739"/>
  <unicode hex="00AE"/>
  <outline>
    <contour>
      <point x="369" y="709" type="curve" smooth="yes"/>
      <point x="568" y="709"/>
      <point x="729" y="552"/>
      <point x="729" y="353" type="curve" smooth="yes"/>
      <point x="729" y="154"/>
      <point x="568" y="-6"/>
      <point x="369" y="-6" type="curve" smooth="yes"/>
      <point x="170" y="-6"/>
      <point x="10" y="154"/>
      <point x="10" y="353" type="curve" smooth="yes"/>
      <point x="10" y="552"/>
      <point x="170" y="709"/>
    </contour>
    <contour>
      <point x="369" y="661" type="curve" smooth="yes"/>
      <point x="198" y="661"/>
      <point x="58" y="525"/>
      <point x="58" y="353" type="curve" smooth="yes"/>
      <point x="58" y="182"/>
      <point x="198" y="42"/>
      <point x="369" y="42" type="curve" smooth="yes"/>
      <point x="541" y="42"/>
      <point x="681" y="182"/>
      <point x="681" y="353" type="curve" smooth="yes"/>
      <point x="681" y="525"/>
      <point x="541" y="661"/>
    </contour>
    <contour>
      <point x="267" y="558" type="curve" smooth="yes"/>
      <point x="366" y="558" type="line" smooth="yes"/>
      <point x="458" y="558"/>
      <point x="508" y="528"/>
      <point x="508" y="454" type="curve" smooth="yes"/>
      <point x="508" y="403"/>
      <point x="481" y="371"/>
      <point x="440" y="355" type="curve"/>
      <point x="440" y="351" type="line"/>
      <point x="465" y="342"/>
      <point x="477" y="317"/>
      <point x="493" y="278" type="curve" smooth="yes"/>
      <point x="539" y="162" type="line" smooth="yes"/>
      <point x="540" y="158"/>
      <point x="541" y="155"/>
      <point x="541" y="153" type="curve" smooth="yes"/>
      <point x="541" y="148"/>
      <point x="533" y="144"/>
      <point x="516" y="144" type="curve" smooth="yes"/>
      <point x="510" y="144" type="line" smooth="yes"/>
      <point x="498" y="144"/>
      <point x="489" y="148"/>
      <point x="487" y="153" type="curve" smooth="yes"/>
      <point x="442" y="269" type="line" smooth="yes"/>
      <point x="424" y="315"/>
      <point x="400" y="327"/>
      <point x="354" y="327" type="curve" smooth="yes"/>
      <point x="301" y="327" type="line"/>
      <point x="301" y="157" type="line" smooth="yes"/>
      <point x="301" y="149"/>
      <point x="294" y="144"/>
      <point x="277" y="144" type="curve" smooth="yes"/>
      <point x="273" y="144" type="line" smooth="yes"/>
      <point x="256" y="144"/>
      <point x="249" y="149"/>
      <point x="249" y="157" type="curve" smooth="yes"/>
      <point x="249" y="540" type="line" smooth="yes"/>
      <point x="249" y="553"/>
      <point x="254" y="558"/>
    </contour>
    <contour>
      <point x="301" y="513" type="line"/>
      <point x="301" y="372" type="line"/>
      <point x="379" y="372" type="line" smooth="yes"/>
      <point x="421" y="372"/>
      <point x="454" y="405"/>
      <point x="454" y="444" type="curve" smooth="yes"/>
      <point x="454" y="492"/>
      <point x="422" y="513"/>
      <point x="375" y="513" type="curve" smooth="yes"/>
    </contour>
  </outline>
</glyph>
<glyph name="macron" format="1">
  <advance width="320"/>
  <unicode hex="00AF"/>
  <outline>
    <contour>
      <point x="172" y="700" type="move" name="Anchor-3"/>
    </contour>
    <contour>
      <point x="48" y="683" type="curve" smooth="yes"/>
      <point x="274" y="683" type="line" smooth="yes"/>
      <point x="288" y="683"/>
      <point x="291" y="673"/>
      <point x="291" y="657" type="curve" smooth="yes"/>
      <point x="291" y="646"/>
      <point x="290" y="612"/>
      <point x="266" y="612" type="curve" smooth="yes"/>
      <point x="40" y="612" type="line" smooth="yes"/>
      <point x="26" y="612"/>
      <point x="23" y="623"/>
      <point x="23" y="639" type="curve" smooth="yes"/>
      <point x="23" y="650"/>
      <point x="24" y="683"/>
    </contour>
  </outline>
</glyph>
<glyph name="degree" format="1">
  <advance width="345"/>
  <unicode hex="00B0"/>
  <outline>
    <contour>
      <point x="183" y="706" type="curve" smooth="yes"/>
      <point x="251" y="706"/>
      <point x="303" y="654"/>
      <point x="303" y="587" type="curve" smooth="yes"/>
      <point x="303" y="503"/>
      <point x="237" y="441"/>
      <point x="156" y="441" type="curve" smooth="yes"/>
      <point x="84" y="441"/>
      <point x="36" y="493"/>
      <point x="36" y="560" type="curve" smooth="yes"/>
      <point x="36" y="642"/>
      <point x="98" y="706"/>
    </contour>
    <contour>
      <point x="179" y="661" type="curve" smooth="yes"/>
      <point x="126" y="661"/>
      <point x="85" y="614"/>
      <point x="85" y="563" type="curve" smooth="yes"/>
      <point x="85" y="520"/>
      <point x="117" y="486"/>
      <point x="160" y="486" type="curve" smooth="yes"/>
      <point x="209" y="486"/>
      <point x="253" y="526"/>
      <point x="253" y="582" type="curve" smooth="yes"/>
      <point x="253" y="626"/>
      <point x="222" y="661"/>
    </contour>
  </outline>
</glyph>
<glyph name="twosuperior" format="1">
  <advance width="320"/>
  <unicode hex="00B2"/>
  <outline>
    <contour>
      <point x="174" y="706" type="curve" smooth="yes"/>
      <point x="244" y="706"/>
      <point x="287" y="671"/>
      <point x="287" y="620" type="curve" smooth="yes"/>
      <point x="287" y="578"/>
      <point x="274" y="549"/>
      <point x="240" y="512" type="curve" smooth="yes"/>
      <point x="85" y="341" type="line"/>
      <point x="251" y="341" type="line" smooth="yes"/>
      <point x="259" y="341"/>
      <point x="261" y="334"/>
      <point x="261" y="325" type="curve" smooth="yes"/>
      <point x="261" y="319"/>
      <point x="260" y="299"/>
      <point x="246" y="299" type="curve" smooth="yes"/>
      <point x="31" y="299" type="line" smooth="yes"/>
      <point x="25" y="299"/>
      <point x="19" y="319"/>
      <point x="19" y="329" type="curve" smooth="yes"/>
      <point x="19" y="331"/>
      <point x="19" y="333"/>
      <point x="20" y="334" type="curve" smooth="yes"/>
      <point x="198" y="531" type="line" smooth="yes"/>
      <point x="225" y="561"/>
      <point x="237" y="589"/>
      <point x="237" y="612" type="curve" smooth="yes"/>
      <point x="237" y="644"/>
      <point x="212" y="664"/>
      <point x="171" y="664" type="curve" smooth="yes"/>
      <point x="118" y="664"/>
      <point x="91" y="635"/>
      <point x="81" y="635" type="curve" smooth="yes"/>
      <point x="75" y="635"/>
      <point x="66" y="654"/>
      <point x="66" y="663" type="curve" smooth="yes"/>
      <point x="66" y="688"/>
      <point x="138" y="706"/>
    </contour>
  </outline>
</glyph>
<glyph name="threesuperior" format="1">
  <advance width="320"/>
  <unicode hex="00B3"/>
  <outline>
    <contour>
      <point x="180" y="706" type="curve" smooth="yes"/>
      <point x="243" y="706"/>
      <point x="286" y="677"/>
      <point x="286" y="619" type="curve" smooth="yes"/>
      <point x="286" y="570"/>
      <point x="255" y="538"/>
      <point x="218" y="525" type="curve"/>
      <point x="217" y="522" type="line"/>
      <point x="249" y="514"/>
      <point x="280" y="483"/>
      <point x="280" y="431" type="curve" smooth="yes"/>
      <point x="280" y="331"/>
      <point x="196" y="296"/>
      <point x="138" y="296" type="curve" smooth="yes"/>
      <point x="122" y="296"/>
      <point x="41" y="299"/>
      <point x="41" y="325" type="curve" smooth="yes"/>
      <point x="41" y="356"/>
      <point x="46" y="359"/>
      <point x="50" y="359" type="curve" smooth="yes"/>
      <point x="54" y="359"/>
      <point x="85" y="337"/>
      <point x="138" y="337" type="curve" smooth="yes"/>
      <point x="175" y="337"/>
      <point x="230" y="356"/>
      <point x="230" y="431" type="curve" smooth="yes"/>
      <point x="230" y="479"/>
      <point x="198" y="493"/>
      <point x="151" y="493" type="curve" smooth="yes"/>
      <point x="131" y="493" type="line" smooth="yes"/>
      <point x="123" y="493"/>
      <point x="121" y="499"/>
      <point x="121" y="508" type="curve" smooth="yes"/>
      <point x="121" y="515"/>
      <point x="122" y="534"/>
      <point x="136" y="534" type="curve" smooth="yes"/>
      <point x="152" y="534" type="line" smooth="yes"/>
      <point x="216" y="534"/>
      <point x="237" y="589"/>
      <point x="237" y="615" type="curve" smooth="yes"/>
      <point x="237" y="637"/>
      <point x="225" y="665"/>
      <point x="174" y="665" type="curve" smooth="yes"/>
      <point x="122" y="665"/>
      <point x="99" y="646"/>
      <point x="89" y="646" type="curve" smooth="yes"/>
      <point x="83" y="646"/>
      <point x="73" y="666"/>
      <point x="73" y="675" type="curve" smooth="yes"/>
      <point x="73" y="692"/>
      <point x="144" y="706"/>
    </contour>
  </outline>
</glyph>
<glyph name="acute" format="1">
  <advance width="320"/>
  <unicode hex="00B4"/>
  <outline>
    <contour>
      <point x="150" y="700" type="move" name="Anchor-3"/>
    </contour>
    <contour>
      <point x="201" y="732" type="curve" smooth="yes"/>
      <point x="232" y="732"/>
      <point x="248" y="729"/>
      <point x="248" y="720" type="curve" smooth="yes"/>
      <point x="248" y="709"/>
      <point x="237" y="700"/>
      <point x="142" y="603" type="curve" smooth="yes"/>
      <point x="130" y="591"/>
      <point x="109" y="585"/>
      <point x="89" y="585" type="curve" smooth="yes"/>
      <point x="74" y="585"/>
      <point x="67" y="588"/>
      <point x="67" y="594" type="curve" smooth="yes"/>
      <point x="67" y="603"/>
      <point x="79" y="623"/>
      <point x="136" y="706" type="curve" smooth="yes"/>
      <point x="149" y="725"/>
      <point x="169" y="732"/>
    </contour>
  </outline>
</glyph>
<glyph name="uni00B5" format="1">
  <advance width="566"/>
  <unicode hex="00B5"/>
  <outline>
    <contour>
      <point x="540" y="71" type="curve" smooth="yes"/>
      <point x="543" y="71"/>
      <point x="546" y="70"/>
      <point x="546" y="64" type="curve" smooth="yes"/>
      <point x="546" y="63"/>
      <point x="546" y="49"/>
      <point x="542" y="27" type="curve" smooth="yes"/>
      <point x="537" y="2"/>
      <point x="500" y="-6"/>
      <point x="482" y="-6" type="curve" smooth="yes"/>
      <point x="425" y="-6"/>
      <point x="392" y="24"/>
      <point x="392" y="92" type="curve" smooth="yes"/>
      <point x="392" y="102" type="line"/>
      <point x="339" y="23"/>
      <point x="275" y="-6"/>
      <point x="214" y="-6" type="curve" smooth="yes"/>
      <point x="190" y="-6"/>
      <point x="170" y="-2"/>
      <point x="153" y="3" type="curve"/>
      <point x="133" y="-186" type="line" smooth="yes"/>
      <point x="131" y="-200"/>
      <point x="115" y="-208"/>
      <point x="91" y="-208" type="curve" smooth="yes"/>
      <point x="87" y="-208" type="line" smooth="yes"/>
      <point x="60" y="-208"/>
      <point x="49" y="-199"/>
      <point x="49" y="-187" type="curve" smooth="yes"/>
      <point x="120" y="503" type="line" smooth="yes"/>
      <point x="122" y="519"/>
      <point x="136" y="525"/>
      <point x="162" y="525" type="curve" smooth="yes"/>
      <point x="166" y="525" type="line" smooth="yes"/>
      <point x="194" y="525"/>
      <point x="204" y="518"/>
      <point x="204" y="503" type="curve" smooth="yes"/>
      <point x="204" y="503"/>
      <point x="168" y="158"/>
      <point x="168" y="144" type="curve" smooth="yes"/>
      <point x="168" y="93"/>
      <point x="193" y="67"/>
      <point x="244" y="67" type="curve" smooth="yes"/>
      <point x="288" y="67"/>
      <point x="361" y="100"/>
      <point x="404" y="237" type="curve"/>
      <point x="432" y="503" type="line" smooth="yes"/>
      <point x="434" y="519"/>
      <point x="448" y="525"/>
      <point x="474" y="525" type="curve" smooth="yes"/>
      <point x="478" y="525" type="line" smooth="yes"/>
      <point x="506" y="525"/>
      <point x="516" y="518"/>
      <point x="516" y="503" type="curve" smooth="yes"/>
      <point x="516" y="503"/>
      <point x="477" y="137"/>
      <point x="477" y="107" type="curve" smooth="yes"/>
      <point x="477" y="66"/>
      <point x="497" y="66"/>
      <point x="513" y="66" type="curve" smooth="yes"/>
      <point x="525" y="66"/>
      <point x="534" y="71"/>
    </contour>
  </outline>
</glyph>
<glyph name="paragraph" format="1">
  <advance width="515"/>
  <unicode hex="00B6"/>
  <outline>
    <contour>
      <point x="313" y="700" type="curve" smooth="yes"/>
      <point x="526" y="700" type="line" smooth="yes"/>
      <point x="542" y="700"/>
      <point x="544" y="694"/>
      <point x="544" y="680" type="curve" smooth="yes"/>
      <point x="542" y="658" type="line" smooth="yes"/>
      <point x="541" y="644"/>
      <point x="534" y="638"/>
      <point x="520" y="638" type="curve" smooth="yes"/>
      <point x="484" y="638" type="line"/>
      <point x="401" y="-151" type="line" smooth="yes"/>
      <point x="399" y="-165"/>
      <point x="391" y="-173"/>
      <point x="379" y="-173" type="curve" smooth="yes"/>
      <point x="357" y="-173" type="line" smooth="yes"/>
      <point x="342" y="-173"/>
      <point x="339" y="-165"/>
      <point x="339" y="-151" type="curve" smooth="yes"/>
      <point x="422" y="638" type="line"/>
      <point x="344" y="638" type="line"/>
      <point x="261" y="-151" type="line" smooth="yes"/>
      <point x="259" y="-165"/>
      <point x="251" y="-173"/>
      <point x="239" y="-173" type="curve" smooth="yes"/>
      <point x="217" y="-173" type="line" smooth="yes"/>
      <point x="202" y="-173"/>
      <point x="199" y="-165"/>
      <point x="199" y="-151" type="curve" smooth="yes"/>
      <point x="241" y="247" type="line"/>
      <point x="136" y="259"/>
      <point x="61" y="343"/>
      <point x="61" y="450" type="curve" smooth="yes"/>
      <point x="61" y="609"/>
      <point x="181" y="700"/>
    </contour>
  </outline>
</glyph>
<glyph name="cedilla" format="1">
  <advance width="320"/>
  <unicode hex="00B8"/>
  <outline>
    <contour>
      <point x="146" y="-203" type="move" name="Anchor-2"/>
    </contour>
    <contour>
      <point x="191" y="-49" type="line"/>
      <point x="195" y="-49" type="line" smooth="yes"/>
      <point x="216" y="-49"/>
      <point x="273" y="-55"/>
      <point x="273" y="-111" type="curve" smooth="yes"/>
      <point x="273" y="-198"/>
      <point x="197" y="-210"/>
      <point x="148" y="-210" type="curve" smooth="yes"/>
      <point x="124" y="-210"/>
      <point x="51" y="-205"/>
      <point x="51" y="-169" type="curve" smooth="yes"/>
      <point x="51" y="-136"/>
      <point x="58" y="-136"/>
      <point x="63" y="-136" type="curve" smooth="yes"/>
      <point x="67" y="-136"/>
      <point x="94" y="-161"/>
      <point x="141" y="-161" type="curve" smooth="yes"/>
      <point x="166" y="-161"/>
      <point x="201" y="-157"/>
      <point x="201" y="-121" type="curve" smooth="yes"/>
      <point x="201" y="-83"/>
      <point x="141" y="-94"/>
      <point x="141" y="-69" type="curve"/>
      <point x="141" y="-69"/>
      <point x="147" y="-51"/>
      <point x="168" y="0" type="curve"/>
      <point x="211" y="0" type="line"/>
    </contour>
  </outline>
</glyph>
<glyph name="onesuperior" format="1">
  <advance width="217"/>
  <unicode hex="00B9"/>
  <outline>
    <contour>
      <point x="66" y="673" type="curve" smooth="yes"/>
      <point x="175" y="702" type="line" smooth="yes"/>
      <point x="185" y="702"/>
      <point x="192" y="697"/>
      <point x="192" y="690" type="curve" smooth="yes"/>
      <point x="152" y="309" type="line" smooth="yes"/>
      <point x="151" y="301"/>
      <point x="144" y="297"/>
      <point x="129" y="297" type="curve" smooth="yes"/>
      <point x="125" y="297" type="line" smooth="yes"/>
      <point x="109" y="297"/>
      <point x="104" y="302"/>
      <point x="104" y="309" type="curve" smooth="yes"/>
      <point x="140" y="650" type="line"/>
      <point x="63" y="633" type="line" smooth="yes"/>
      <point x="56" y="633"/>
      <point x="54" y="645"/>
      <point x="54" y="656" type="curve" smooth="yes"/>
      <point x="54" y="667"/>
      <point x="56" y="671"/>
    </contour>
  </outline>
</glyph>
<glyph name="ordmasculine" format="1">
  <advance width="337"/>
  <unicode hex="00BA"/>
  <outline>
    <contour>
      <point x="183" y="706" type="curve" smooth="yes"/>
      <point x="229" y="706"/>
      <point x="282" y="688"/>
      <point x="282" y="600" type="curve" smooth="yes"/>
      <point x="282" y="464"/>
      <point x="209" y="441"/>
      <point x="156" y="441" type="curve" smooth="yes"/>
      <point x="108" y="441"/>
      <point x="53" y="458"/>
      <point x="53" y="547" type="curve" smooth="yes"/>
      <point x="53" y="681"/>
      <point x="130" y="706"/>
    </contour>
    <contour>
      <point x="178" y="670" type="curve" smooth="yes"/>
      <point x="132" y="670"/>
      <point x="96" y="639"/>
      <point x="96" y="549" type="curve" smooth="yes"/>
      <point x="96" y="495"/>
      <point x="118" y="477"/>
      <point x="157" y="477" type="curve" smooth="yes"/>
      <point x="204" y="477"/>
      <point x="239" y="507"/>
      <point x="239" y="598" type="curve" smooth="yes"/>
      <point x="239" y="651"/>
      <point x="216" y="670"/>
    </contour>
  </outline>
</glyph>
<glyph name="onequarter" format="1">
  <advance width="671"/>
  <unicode hex="00BC"/>
  <outline>
    <contour>
      <point x="567" y="703" type="curve" smooth="yes"/>
      <point x="580" y="703" type="line" smooth="yes"/>
      <point x="589" y="703"/>
      <point x="593" y="701"/>
      <point x="593" y="697" type="curve" smooth="yes"/>
      <point x="593" y="694"/>
      <point x="591" y="691"/>
      <point x="588" y="687" type="curve" smooth="yes"/>
      <point x="111" y="14" type="line" smooth="yes"/>
      <point x="103" y="2"/>
      <point x="92" y="-2"/>
      <point x="79" y="-2" type="curve" smooth="yes"/>
      <point x="66" y="-2" type="line" smooth="yes"/>
      <point x="57" y="-2"/>
      <point x="53" y="0"/>
      <point x="53" y="4" type="curve" smooth="yes"/>
      <point x="53" y="6"/>
      <point x="54" y="10"/>
      <point x="58" y="14" type="curve" smooth="yes"/>
      <point x="535" y="687" type="line" smooth="yes"/>
      <point x="542" y="697"/>
      <point x="554" y="703"/>
    </contour>
    <contour>
      <point x="84" y="673" type="curve" smooth="yes"/>
      <point x="193" y="702" type="line" smooth="yes"/>
      <point x="203" y="702"/>
      <point x="210" y="697"/>
      <point x="210" y="690" type="curve" smooth="yes"/>
      <point x="170" y="309" type="line" smooth="yes"/>
      <point x="169" y="301"/>
      <point x="162" y="297"/>
      <point x="147" y="297" type="curve" smooth="yes"/>
      <point x="143" y="297" type="line" smooth="yes"/>
      <point x="127" y="297"/>
      <point x="122" y="302"/>
      <point x="122" y="309" type="curve" smooth="yes"/>
      <point x="158" y="650" type="line"/>
      <point x="81" y="633" type="line" smooth="yes"/>
      <point x="74" y="633"/>
      <point x="72" y="645"/>
      <point x="72" y="656" type="curve" smooth="yes"/>
      <point x="72" y="667"/>
      <point x="74" y="671"/>
    </contour>
    <contour>
      <point x="557" y="404" type="curve" smooth="yes"/>
      <point x="566" y="404" type="line" smooth="yes"/>
      <point x="579" y="404"/>
      <point x="582" y="399"/>
      <point x="582" y="391" type="curve" smooth="yes"/>
      <point x="554" y="128" type="line"/>
      <point x="593" y="128" type="line" smooth="yes"/>
      <point x="601" y="128"/>
      <point x="603" y="122"/>
      <point x="603" y="112" type="curve" smooth="yes"/>
      <point x="603" y="106"/>
      <point x="602" y="87"/>
      <point x="588" y="87" type="curve" smooth="yes"/>
      <point x="550" y="87" type="line"/>
      <point x="542" y="11" type="line" smooth="yes"/>
      <point x="541" y="3"/>
      <point x="534" y="-2"/>
      <point x="524" y="-2" type="curve" smooth="yes"/>
      <point x="511" y="-2" type="line" smooth="yes"/>
      <point x="498" y="-2"/>
      <point x="494" y="2"/>
      <point x="494" y="11" type="curve" smooth="yes"/>
      <point x="502" y="87" type="line"/>
      <point x="327" y="87" type="line" smooth="yes"/>
      <point x="321" y="87"/>
      <point x="316" y="101"/>
      <point x="316" y="112" type="curve" smooth="yes"/>
      <point x="316" y="117"/>
      <point x="317" y="120"/>
      <point x="318" y="122" type="curve" smooth="yes"/>
      <point x="537" y="396" type="line" smooth="yes"/>
      <point x="541" y="401"/>
      <point x="549" y="404"/>
    </contour>
    <contour>
      <point x="524" y="321" type="line"/>
      <point x="374" y="128" type="line"/>
      <point x="506" y="128" type="line"/>
      <point x="523" y="287" type="line"/>
      <point x="527" y="320" type="line"/>
    </contour>
  </outline>
</glyph>
<glyph name="onehalf" format="1">
  <advance width="746"/>
  <unicode hex="00BD"/>
  <outline>
    <contour>
      <point x="567" y="703" type="curve" smooth="yes"/>
      <point x="580" y="703" type="line" smooth="yes"/>
      <point x="589" y="703"/>
      <point x="593" y="701"/>
      <point x="593" y="697" type="curve" smooth="yes"/>
      <point x="593" y="694"/>
      <point x="591" y="691"/>
      <point x="588" y="687" type="curve" smooth="yes"/>
      <point x="111" y="14" type="line" smooth="yes"/>
      <point x="103" y="2"/>
      <point x="92" y="-2"/>
      <point x="79" y="-2" type="curve" smooth="yes"/>
      <point x="66" y="-2" type="line" smooth="yes"/>
      <point x="57" y="-2"/>
      <point x="53" y="0"/>
      <point x="53" y="4" type="curve" smooth="yes"/>
      <point x="53" y="6"/>
      <point x="54" y="10"/>
      <point x="58" y="14" type="curve" smooth="yes"/>
      <point x="535" y="687" type="line" smooth="yes"/>
      <point x="542" y="697"/>
      <point x="554" y="703"/>
    </contour>
    <contour>
      <point x="84" y="673" type="curve" smooth="yes"/>
      <point x="193" y="702" type="line" smooth="yes"/>
      <point x="203" y="702"/>
      <point x="210" y="697"/>
      <point x="210" y="690" type="curve" smooth="yes"/>
      <point x="170" y="309" type="line" smooth="yes"/>
      <point x="169" y="301"/>
      <point x="162" y="297"/>
      <point x="147" y="297" type="curve" smooth="yes"/>
      <point x="143" y="297" type="line" smooth="yes"/>
      <point x="127" y="297"/>
      <point x="122" y="302"/>
      <point x="122" y="309" type="curve" smooth="yes"/>
      <point x="158" y="650" type="line"/>
      <point x="81" y="633" type="line" smooth="yes"/>
      <point x="74" y="633"/>
      <point x="72" y="645"/>
      <point x="72" y="656" type="curve" smooth="yes"/>
      <point x="72" y="667"/>
      <point x="74" y="671"/>
    </contour>
    <contour>
      <point x="568" y="407" type="curve" smooth="yes"/>
      <point x="638" y="407"/>
      <point x="681" y="372"/>
      <point x="681" y="321" type="curve" smooth="yes"/>
      <point x="681" y="279"/>
      <point x="668" y="250"/>
      <point x="634" y="213" type="curve" smooth="yes"/>
      <point x="479" y="42" type="line"/>
      <point x="645" y="42" type="line" smooth="yes"/>
      <point x="653" y="42"/>
      <point x="655" y="35"/>
      <point x="655" y="26" type="curve" smooth="yes"/>
      <point x="655" y="20"/>
      <point x="654" y="0"/>
      <point x="640" y="0" type="curve" smooth="yes"/>
      <point x="425" y="0" type="line" smooth="yes"/>
      <point x="419" y="0"/>
      <point x="413" y="20"/>
      <point x="413" y="30" type="curve" smooth="yes"/>
      <point x="413" y="32"/>
      <point x="413" y="34"/>
      <point x="414" y="35" type="curve" smooth="yes"/>
      <point x="592" y="232" type="line" smooth="yes"/>
      <point x="619" y="262"/>
      <point x="631" y="290"/>
      <point x="631" y="313" type="curve" smooth="yes"/>
      <point x="631" y="345"/>
      <point x="606" y="365"/>
      <point x="565" y="365" type="curve" smooth="yes"/>
      <point x="512" y="365"/>
      <point x="485" y="336"/>
      <point x="475" y="336" type="curve" smooth="yes"/>
      <point x="469" y="336"/>
      <point x="460" y="355"/>
      <point x="460" y="364" type="curve" smooth="yes"/>
      <point x="460" y="389"/>
      <point x="532" y="407"/>
    </contour>
  </outline>
</glyph>
<glyph name="threequarters" format="1">
  <advance width="738"/>
  <unicode hex="00BE"/>
  <outline>
    <contour>
      <point x="192" y="706" type="curve" smooth="yes"/>
      <point x="255" y="706"/>
      <point x="298" y="677"/>
      <point x="298" y="619" type="curve" smooth="yes"/>
      <point x="298" y="570"/>
      <point x="267" y="538"/>
      <point x="230" y="525" type="curve"/>
      <point x="229" y="522" type="line"/>
      <point x="261" y="514"/>
      <point x="292" y="483"/>
      <point x="292" y="431" type="curve" smooth="yes"/>
      <point x="292" y="331"/>
      <point x="208" y="296"/>
      <point x="150" y="296" type="curve" smooth="yes"/>
      <point x="134" y="296"/>
      <point x="53" y="299"/>
      <point x="53" y="325" type="curve" smooth="yes"/>
      <point x="53" y="356"/>
      <point x="58" y="359"/>
      <point x="62" y="359" type="curve" smooth="yes"/>
      <point x="66" y="359"/>
      <point x="97" y="337"/>
      <point x="150" y="337" type="curve" smooth="yes"/>
      <point x="187" y="337"/>
      <point x="242" y="356"/>
      <point x="242" y="431" type="curve" smooth="yes"/>
      <point x="242" y="479"/>
      <point x="210" y="493"/>
      <point x="163" y="493" type="curve" smooth="yes"/>
      <point x="143" y="493" type="line" smooth="yes"/>
      <point x="135" y="493"/>
      <point x="133" y="499"/>
      <point x="133" y="508" type="curve" smooth="yes"/>
      <point x="133" y="515"/>
      <point x="134" y="534"/>
      <point x="148" y="534" type="curve" smooth="yes"/>
      <point x="164" y="534" type="line" smooth="yes"/>
      <point x="228" y="534"/>
      <point x="249" y="589"/>
      <point x="249" y="615" type="curve" smooth="yes"/>
      <point x="249" y="637"/>
      <point x="237" y="665"/>
      <point x="186" y="665" type="curve" smooth="yes"/>
      <point x="134" y="665"/>
      <point x="111" y="646"/>
      <point x="101" y="646" type="curve" smooth="yes"/>
      <point x="95" y="646"/>
      <point x="85" y="666"/>
      <point x="85" y="675" type="curve" smooth="yes"/>
      <point x="85" y="692"/>
      <point x="156" y="706"/>
    </contour>
    <contour>
      <point x="633" y="703" type="curve" smooth="yes"/>
      <point x="646" y="703" type="line" smooth="yes"/>
      <point x="655" y="703"/>
      <point x="659" y="701"/>
      <point x="659" y="697" type="curve" smooth="yes"/>
      <point x="659" y="694"/>
      <point x="657" y="691"/>
      <point x="654" y="687" type="curve" smooth="yes"/>
      <point x="177" y="14" type="line" smooth="yes"/>
      <point x="169" y="2"/>
      <point x="158" y="-2"/>
      <point x="145" y="-2" type="curve" smooth="yes"/>
      <point x="132" y="-2" type="line" smooth="yes"/>
      <point x="123" y="-2"/>
      <point x="119" y="0"/>
      <point x="119" y="4" type="curve" smooth="yes"/>
      <point x="119" y="6"/>
      <point x="120" y="10"/>
      <point x="124" y="14" type="curve" smooth="yes"/>
      <point x="601" y="687" type="line" smooth="yes"/>
      <point x="608" y="697"/>
      <point x="620" y="703"/>
    </contour>
    <contour>
      <point x="625" y="404" type="curve" smooth="yes"/>
      <point x="634" y="404" type="line" smooth="yes"/>
      <point x="647" y="404"/>
      <point x="650" y="399"/>
      <point x="650" y="391" type="curve" smooth="yes"/>
      <point x="622" y="128" type="line"/>
      <point x="661" y="128" type="line" smooth="yes"/>
      <point x="669" y="128"/>
      <point x="671" y="122"/>
      <point x="671" y="112" type="curve" smooth="yes"/>
      <point x="671" y="106"/>
      <point x="670" y="87"/>
      <point x="656" y="87" type="curve" smooth="yes"/>
      <point x="618" y="87" type="line"/>
      <point x="610" y="11" type="line" smooth="yes"/>
      <point x="609" y="3"/>
      <point x="602" y="-2"/>
      <point x="592" y="-2" type="curve" smooth="yes"/>
      <point x="579" y="-2" type="line" smooth="yes"/>
      <point x="566" y="-2"/>
      <point x="562" y="2"/>
      <point x="562" y="11" type="curve" smooth="yes"/>
      <point x="570" y="87" type="line"/>
      <point x="395" y="87" type="line" smooth="yes"/>
      <point x="389" y="87"/>
      <point x="384" y="101"/>
      <point x="384" y="112" type="curve" smooth="yes"/>
      <point x="384" y="117"/>
      <point x="385" y="120"/>
      <point x="386" y="122" type="curve" smooth="yes"/>
      <point x="605" y="396" type="line" smooth="yes"/>
      <point x="609" y="401"/>
      <point x="617" y="404"/>
    </contour>
    <contour>
      <point x="592" y="321" type="line"/>
      <point x="442" y="128" type="line"/>
      <point x="574" y="128" type="line"/>
      <point x="591" y="283" type="line"/>
      <point x="595" y="320" type="line"/>
    </contour>
  </outline>
</glyph>
<glyph name="questiondown" format="1">
  <advance width="425"/>
  <unicode hex="00BF"/>
  <outline>
    <contour>
      <point x="323" y="525" type="curve" smooth="yes"/>
      <point x="340" y="525" type="line" smooth="yes"/>
      <point x="369" y="525"/>
      <point x="377" y="517"/>
      <point x="377" y="503" type="curve" smooth="yes"/>
      <point x="370" y="437" type="line" smooth="yes"/>
      <point x="369" y="423"/>
      <point x="356" y="415"/>
      <point x="328" y="415" type="curve" smooth="yes"/>
      <point x="311" y="415" type="line" smooth="yes"/>
      <point x="282" y="415"/>
      <point x="273" y="423"/>
      <point x="273" y="437" type="curve" smooth="yes"/>
      <point x="280" y="503" type="line" smooth="yes"/>
      <point x="281" y="517"/>
      <point x="293" y="525"/>
    </contour>
    <contour>
      <point x="298" y="321" type="curve" smooth="yes"/>
      <point x="313" y="321" type="line" smooth="yes"/>
      <point x="333" y="321"/>
      <point x="341" y="313"/>
      <point x="341" y="300" type="curve" smooth="yes"/>
      <point x="341" y="257"/>
      <point x="298" y="193"/>
      <point x="238" y="139" type="curve" smooth="yes"/>
      <point x="174" y="81"/>
      <point x="127" y="39"/>
      <point x="127" y="-21" type="curve" smooth="yes"/>
      <point x="127" y="-80"/>
      <point x="166" y="-109"/>
      <point x="243" y="-109" type="curve" smooth="yes"/>
      <point x="312" y="-109"/>
      <point x="360" y="-75"/>
      <point x="367" y="-75" type="curve" smooth="yes"/>
      <point x="373" y="-75"/>
      <point x="374" y="-76"/>
      <point x="374" y="-87" type="curve" smooth="yes"/>
      <point x="374" y="-92"/>
      <point x="374" y="-109"/>
      <point x="369" y="-136" type="curve" smooth="yes"/>
      <point x="361" y="-176"/>
      <point x="254" y="-183"/>
      <point x="219" y="-183" type="curve" smooth="yes"/>
      <point x="95" y="-183"/>
      <point x="32" y="-115"/>
      <point x="32" y="-33" type="curve" smooth="yes"/>
      <point x="32" y="115"/>
      <point x="234" y="179"/>
      <point x="263" y="301" type="curve" smooth="yes"/>
      <point x="266" y="314"/>
      <point x="275" y="321"/>
    </contour>
  </outline>
</glyph>
<glyph name="Acircumflex" format="1">
  <advance width="613"/>
  <unicode hex="00C2"/>
  <outline>
    <contour>
      <point x="527" y="793" type="move" name="Anchor-1"/>
    </contour>
    <contour>
      <point x="279" y="0" type="move" name="Anchor-0"/>
    </contour>
    <contour>
      <point x="342" y="895" type="curve" smooth="yes"/>
      <point x="367" y="895" type="line" smooth="yes"/>
      <point x="386" y="895"/>
      <point x="403" y="888"/>
      <point x="411" y="873" type="curve" smooth="yes"/>
      <point x="458" y="785" type="line" smooth="yes"/>
      <point x="462" y="779"/>
      <point x="463" y="773"/>
      <point x="463" y="768" type="curve" smooth="yes"/>
      <point x="462" y="759"/>
      <point x="453" y="753"/>
      <point x="437" y="753" type="curve" smooth="yes"/>
      <point x="435" y="753" type="line" smooth="yes"/>
      <point x="422" y="753"/>
      <point x="412" y="757"/>
      <point x="403" y="766" type="curve" smooth="yes"/>
      <point x="348" y="840" type="line"/>
      <point x="279" y="766" type="line" smooth="yes"/>
      <point x="268" y="757"/>
      <point x="258" y="753"/>
      <point x="244" y="753" type="curve" smooth="yes"/>
      <point x="242" y="753" type="line" smooth="yes"/>
      <point x="228" y="753"/>
      <point x="221" y="757"/>
      <point x="221" y="765" type="curve" smooth="yes"/>
      <point x="221" y="771"/>
      <point x="223" y="777"/>
      <point x="228" y="785" type="curve" smooth="yes"/>
      <point x="294" y="873" type="line" smooth="yes"/>
      <point x="305" y="888"/>
      <point x="322" y="895"/>
    </contour>
    <contour>
      <point x="328" y="702" type="curve" smooth="yes"/>
      <point x="357" y="702" type="line" smooth="yes"/>
      <point x="377" y="702"/>
      <point x="393" y="698"/>
      <point x="396" y="686" type="curve" smooth="yes"/>
      <point x="564" y="28" type="line" smooth="yes"/>
      <point x="565" y="24"/>
      <point x="565" y="21"/>
      <point x="565" y="18" type="curve" smooth="yes"/>
      <point x="565" y="7"/>
      <point x="555" y="-2"/>
      <point x="521" y="-2" type="curve" smooth="yes"/>
      <point x="513" y="-2" type="line" smooth="yes"/>
      <point x="493" y="-2"/>
      <point x="477" y="2"/>
      <point x="474" y="14" type="curve" smooth="yes"/>
      <point x="432" y="178" type="line"/>
      <point x="138" y="178" type="line"/>
      <point x="64" y="14" type="line" smooth="yes"/>
      <point x="59" y="2"/>
      <point x="43" y="-2"/>
      <point x="23" y="-2" type="curve" smooth="yes"/>
      <point x="18" y="-2" type="line" smooth="yes"/>
      <point x="-10" y="-2"/>
      <point x="-23" y="3"/>
      <point x="-23" y="14" type="curve" smooth="yes"/>
      <point x="-23" y="18"/>
      <point x="-21" y="23"/>
      <point x="-18" y="29" type="curve" smooth="yes"/>
      <point x="287" y="686" type="line" smooth="yes"/>
      <point x="292" y="698"/>
      <point x="307" y="702"/>
    </contour>
    <contour>
      <point x="334" y="610" type="curve"/>
      <point x="332" y="610" type="line"/>
      <point x="326" y="591"/>
      <point x="319" y="570"/>
      <point x="311" y="552" type="curve" smooth="yes"/>
      <point x="174" y="254" type="line"/>
      <point x="413" y="254" type="line"/>
      <point x="340" y="552" type="line" smooth="yes"/>
      <point x="335" y="571"/>
      <point x="334" y="591"/>
    </contour>
  </outline>
</glyph>
<glyph name="Atilde" format="1">
  <advance width="613"/>
  <unicode hex="00C3"/>
  <outline>
    <contour>
      <point x="377" y="877" type="move" name="Anchor-1"/>
    </contour>
    <contour>
      <point x="279" y="0" type="move" name="Anchor-0"/>
    </contour>
    <contour>
      <point x="484" y="848" type="curve" smooth="yes"/>
      <point x="497" y="857"/>
      <point x="510" y="857"/>
      <point x="521" y="846" type="curve" smooth="yes"/>
      <point x="537" y="830"/>
      <point x="532" y="817"/>
      <point x="520" y="806" type="curve" smooth="yes"/>
      <point x="490" y="781"/>
      <point x="455" y="762"/>
      <point x="414" y="762" type="curve" smooth="yes"/>
      <point x="376" y="762"/>
      <point x="356" y="770"/>
      <point x="339" y="778" type="curve" smooth="yes"/>
      <point x="321" y="786"/>
      <point x="308" y="793"/>
      <point x="295" y="793" type="curve" smooth="yes"/>
      <point x="273" y="793"/>
      <point x="258" y="783"/>
      <point x="241" y="774" type="curve" smooth="yes"/>
      <point x="221" y="764"/>
      <point x="209" y="767"/>
      <point x="199" y="780" type="curve" smooth="yes"/>
      <point x="187" y="796"/>
      <point x="190" y="809"/>
      <point x="200" y="816" type="curve" smooth="yes"/>
      <point x="229" y="837"/>
      <point x="266" y="857"/>
      <point x="307" y="857" type="curve" smooth="yes"/>
      <point x="345" y="857"/>
      <point x="368" y="845"/>
      <point x="383" y="839" type="curve" smooth="yes"/>
      <point x="399" y="832"/>
      <point x="413" y="826"/>
      <point x="427" y="826" type="curve" smooth="yes"/>
      <point x="449" y="826"/>
      <point x="466" y="836"/>
    </contour>
    <contour>
      <point x="328" y="702" type="curve" smooth="yes"/>
      <point x="357" y="702" type="line" smooth="yes"/>
      <point x="377" y="702"/>
      <point x="393" y="698"/>
      <point x="396" y="686" type="curve" smooth="yes"/>
      <point x="564" y="28" type="line" smooth="yes"/>
      <point x="565" y="24"/>
      <point x="565" y="21"/>
      <point x="565" y="18" type="curve" smooth="yes"/>
      <point x="565" y="7"/>
      <point x="555" y="-2"/>
      <point x="521" y="-2" type="curve" smooth="yes"/>
      <point x="513" y="-2" type="line" smooth="yes"/>
      <point x="493" y="-2"/>
      <point x="477" y="2"/>
      <point x="474" y="14" type="curve" smooth="yes"/>
      <point x="432" y="178" type="line"/>
      <point x="138" y="178" type="line"/>
      <point x="64" y="14" type="line" smooth="yes"/>
      <point x="59" y="2"/>
      <point x="43" y="-2"/>
      <point x="23" y="-2" type="curve" smooth="yes"/>
      <point x="18" y="-2" type="line" smooth="yes"/>
      <point x="-10" y="-2"/>
      <point x="-23" y="3"/>
      <point x="-23" y="14" type="curve" smooth="yes"/>
      <point x="-23" y="18"/>
      <point x="-21" y="23"/>
      <point x="-18" y="29" type="curve" smooth="yes"/>
      <point x="287" y="686" type="line" smooth="yes"/>
      <point x="292" y="698"/>
      <point x="307" y="702"/>
    </contour>
    <contour>
      <point x="334" y="610" type="curve"/>
      <point x="332" y="610" type="line"/>
      <point x="326" y="591"/>
      <point x="319" y="570"/>
      <point x="311" y="552" type="curve" smooth="yes"/>
      <point x="174" y="254" type="line"/>
      <point x="413" y="254" type="line"/>
      <point x="340" y="552" type="line" smooth="yes"/>
      <point x="335" y="571"/>
      <point x="334" y="591"/>
    </contour>
  </outline>
</glyph>
<glyph name="Adieresis" format="1">
  <advance width="613"/>
  <unicode hex="00C4"/>
  <outline>
    <contour>
      <point x="362" y="877" type="move" name="Anchor-1"/>
    </contour>
    <contour>
      <point x="279" y="0" type="move" name="Anchor-0"/>
    </contour>
    <contour>
      <point x="287" y="879" type="curve" smooth="yes"/>
      <point x="316" y="879"/>
      <point x="325" y="871"/>
      <point x="325" y="857" type="curve" smooth="yes"/>
      <point x="320" y="806" type="line" smooth="yes"/>
      <point x="318" y="793"/>
      <point x="304" y="784"/>
      <point x="274" y="784" type="curve" smooth="yes"/>
      <point x="244" y="784"/>
      <point x="236" y="792"/>
      <point x="236" y="806" type="curve" smooth="yes"/>
      <point x="241" y="857" type="line" smooth="yes"/>
      <point x="243" y="870"/>
      <point x="255" y="879"/>
    </contour>
    <contour>
      <point x="431" y="879" type="curve" smooth="yes"/>
      <point x="460" y="879"/>
      <point x="469" y="871"/>
      <point x="469" y="857" type="curve" smooth="yes"/>
      <point x="464" y="806" type="line" smooth="yes"/>
      <point x="462" y="793"/>
      <point x="448" y="784"/>
      <point x="418" y="784" type="curve" smooth="yes"/>
      <point x="388" y="784"/>
      <point x="380" y="792"/>
      <point x="380" y="806" type="curve" smooth="yes"/>
      <point x="385" y="857" type="line" smooth="yes"/>
      <point x="386" y="870"/>
      <point x="399" y="879"/>
    </contour>
    <contour>
      <point x="328" y="702" type="curve" smooth="yes"/>
      <point x="357" y="702" type="line" smooth="yes"/>
      <point x="377" y="702"/>
      <point x="393" y="698"/>
      <point x="396" y="686" type="curve" smooth="yes"/>
      <point x="564" y="28" type="line" smooth="yes"/>
      <point x="565" y="24"/>
      <point x="565" y="21"/>
      <point x="565" y="18" type="curve" smooth="yes"/>
      <point x="565" y="7"/>
      <point x="555" y="-2"/>
      <point x="521" y="-2" type="curve" smooth="yes"/>
      <point x="513" y="-2" type="line" smooth="yes"/>
      <point x="493" y="-2"/>
      <point x="477" y="2"/>
      <point x="474" y="14" type="curve" smooth="yes"/>
      <point x="432" y="178" type="line"/>
      <point x="138" y="178" type="line"/>
      <point x="64" y="14" type="line" smooth="yes"/>
      <point x="59" y="2"/>
      <point x="43" y="-2"/>
      <point x="23" y="-2" type="curve" smooth="yes"/>
      <point x="18" y="-2" type="line" smooth="yes"/>
      <point x="-10" y="-2"/>
      <point x="-23" y="3"/>
      <point x="-23" y="14" type="curve" smooth="yes"/>
      <point x="-23" y="18"/>
      <point x="-21" y="23"/>
      <point x="-18" y="29" type="curve" smooth="yes"/>
      <point x="287" y="686" type="line" smooth="yes"/>
      <point x="292" y="698"/>
      <point x="307" y="702"/>
    </contour>
    <contour>
      <point x="334" y="610" type="curve"/>
      <point x="332" y="610" type="line"/>
      <point x="326" y="591"/>
      <point x="319" y="570"/>
      <point x="311" y="552" type="curve" smooth="yes"/>
      <point x="174" y="254" type="line"/>
      <point x="413" y="254" type="line"/>
      <point x="340" y="552" type="line" smooth="yes"/>
      <point x="335" y="571"/>
      <point x="334" y="591"/>
    </contour>
  </outline>
</glyph>
<glyph name="Ccedilla" format="1">
  <advance width="619"/>
  <unicode hex="00C7"/>
  <outline>
    <contour>
      <point x="389" y="700" type="move" name="Anchor-1"/>
    </contour>
    <contour>
      <point x="267" y="-203" type="move" name="Anchor-0"/>
    </contour>
    <contour>
      <point x="407" y="706" type="curve" smooth="yes"/>
      <point x="504" y="706"/>
      <point x="590" y="672"/>
      <point x="590" y="645" type="curve" smooth="yes"/>
      <point x="590" y="629"/>
      <point x="563" y="586"/>
      <point x="550" y="586" type="curve" smooth="yes"/>
      <point x="539" y="586"/>
      <point x="488" y="630"/>
      <point x="392" y="630" type="curve" smooth="yes"/>
      <point x="200" y="630"/>
      <point x="128" y="481"/>
      <point x="128" y="286" type="curve" smooth="yes"/>
      <point x="128" y="138"/>
      <point x="195" y="70"/>
      <point x="334" y="70" type="curve" smooth="yes"/>
      <point x="443" y="70"/>
      <point x="510" y="118"/>
      <point x="519" y="118" type="curve" smooth="yes"/>
      <point x="521" y="118"/>
      <point x="526" y="118"/>
      <point x="526" y="107" type="curve" smooth="yes"/>
      <point x="526" y="103"/>
      <point x="523" y="70"/>
      <point x="519" y="52" type="curve" smooth="yes"/>
      <point x="511" y="15"/>
      <point x="410" y="-5"/>
      <point x="330" y="-6" type="curve"/>
      <point x="312" y="-49" type="line"/>
      <point x="316" y="-49" type="line" smooth="yes"/>
      <point x="337" y="-49"/>
      <point x="394" y="-55"/>
      <point x="394" y="-111" type="curve" smooth="yes"/>
      <point x="394" y="-198"/>
      <point x="318" y="-210"/>
      <point x="269" y="-210" type="curve" smooth="yes"/>
      <point x="245" y="-210"/>
      <point x="172" y="-205"/>
      <point x="172" y="-169" type="curve" smooth="yes"/>
      <point x="172" y="-136"/>
      <point x="179" y="-136"/>
      <point x="184" y="-136" type="curve" smooth="yes"/>
      <point x="188" y="-136"/>
      <point x="215" y="-161"/>
      <point x="262" y="-161" type="curve" smooth="yes"/>
      <point x="287" y="-161"/>
      <point x="322" y="-157"/>
      <point x="322" y="-121" type="curve" smooth="yes"/>
      <point x="322" y="-83"/>
      <point x="262" y="-94"/>
      <point x="262" y="-69" type="curve"/>
      <point x="262" y="-69"/>
      <point x="268" y="-52"/>
      <point x="287" y="-5" type="curve"/>
      <point x="119" y="7"/>
      <point x="38" y="96"/>
      <point x="38" y="274" type="curve" smooth="yes"/>
      <point x="38" y="501"/>
      <point x="125" y="706"/>
    </contour>
  </outline>
</glyph>
<glyph name="Egrave" format="1">
  <advance width="546"/>
  <unicode hex="00C8"/>
  <outline>
    <contour>
      <point x="344" y="877" type="move" name="Anchor-1"/>
    </contour>
    <contour>
      <point x="251" y="0" type="move" name="Anchor-0"/>
    </contour>
    <contour>
      <point x="252" y="909" type="curve" smooth="yes"/>
      <point x="284" y="909"/>
      <point x="303" y="902"/>
      <point x="314" y="883" type="curve" smooth="yes"/>
      <point x="363" y="799"/>
      <point x="372" y="780"/>
      <point x="372" y="771" type="curve" smooth="yes"/>
      <point x="372" y="765"/>
      <point x="364" y="762"/>
      <point x="349" y="762" type="curve" smooth="yes"/>
      <point x="329" y="762"/>
      <point x="308" y="768"/>
      <point x="298" y="780" type="curve" smooth="yes"/>
      <point x="213" y="877"/>
      <point x="204" y="885"/>
      <point x="204" y="897" type="curve" smooth="yes"/>
      <point x="205" y="906"/>
      <point x="221" y="909"/>
    </contour>
    <contour>
      <point x="145" y="700" type="curve" smooth="yes"/>
      <point x="498" y="700" type="line" smooth="yes"/>
      <point x="510" y="700"/>
      <point x="515" y="693"/>
      <point x="515" y="678" type="curve" smooth="yes"/>
      <point x="515" y="655"/>
      <point x="515" y="624"/>
      <point x="490" y="624" type="curve" smooth="yes"/>
      <point x="195" y="624" type="line"/>
      <point x="171" y="396" type="line"/>
      <point x="435" y="396" type="line" smooth="yes"/>
      <point x="447" y="396"/>
      <point x="452" y="389"/>
      <point x="452" y="374" type="curve" smooth="yes"/>
      <point x="452" y="351"/>
      <point x="452" y="320"/>
      <point x="427" y="320" type="curve" smooth="yes"/>
      <point x="163" y="320" type="line"/>
      <point x="138" y="76" type="line"/>
      <point x="434" y="76" type="line" smooth="yes"/>
      <point x="446" y="76"/>
      <point x="451" y="69"/>
      <point x="451" y="54" type="curve" smooth="yes"/>
      <point x="451" y="31"/>
      <point x="451" y="0"/>
      <point x="426" y="0" type="curve" smooth="yes"/>
      <point x="72" y="0" type="line" smooth="yes"/>
      <point x="53" y="0"/>
      <point x="45" y="7"/>
      <point x="45" y="24" type="curve" smooth="yes"/>
      <point x="45" y="26"/>
      <point x="45" y="28"/>
      <point x="112" y="670" type="curve" smooth="yes"/>
      <point x="114" y="691"/>
      <point x="124" y="700"/>
    </contour>
  </outline>
</glyph>
<glyph name="Eacute" format="1">
  <advance width="546"/>
  <unicode hex="00C9"/>
  <outline>
    <contour>
      <point x="368" y="877" type="move" name="Anchor-1"/>
    </contour>
    <contour>
      <point x="251" y="0" type="move" name="Anchor-0"/>
    </contour>
    <contour>
      <point x="419" y="909" type="curve" smooth="yes"/>
      <point x="450" y="909"/>
      <point x="466" y="906"/>
      <point x="466" y="897" type="curve" smooth="yes"/>
      <point x="466" y="886"/>
      <point x="455" y="877"/>
      <point x="360" y="780" type="curve" smooth="yes"/>
      <point x="348" y="768"/>
      <point x="327" y="762"/>
      <point x="307" y="762" type="curve" smooth="yes"/>
      <point x="292" y="762"/>
      <point x="285" y="765"/>
      <point x="285" y="771" type="curve" smooth="yes"/>
      <point x="285" y="780"/>
      <point x="297" y="800"/>
      <point x="354" y="883" type="curve" smooth="yes"/>
      <point x="367" y="902"/>
      <point x="387" y="909"/>
    </contour>
    <contour>
      <point x="145" y="700" type="curve" smooth="yes"/>
      <point x="498" y="700" type="line" smooth="yes"/>
      <point x="510" y="700"/>
      <point x="515" y="693"/>
      <point x="515" y="678" type="curve" smooth="yes"/>
      <point x="515" y="655"/>
      <point x="515" y="624"/>
      <point x="490" y="624" type="curve" smooth="yes"/>
      <point x="195" y="624" type="line"/>
      <point x="171" y="396" type="line"/>
      <point x="435" y="396" type="line" smooth="yes"/>
      <point x="447" y="396"/>
      <point x="452" y="389"/>
      <point x="452" y="374" type="curve" smooth="yes"/>
      <point x="452" y="351"/>
      <point x="452" y="320"/>
      <point x="427" y="320" type="curve" smooth="yes"/>
      <point x="163" y="320" type="line"/>
      <point x="138" y="76" type="line"/>
      <point x="434" y="76" type="line" smooth="yes"/>
      <point x="446" y="76"/>
      <point x="451" y="69"/>
      <point x="451" y="54" type="curve" smooth="yes"/>
      <point x="451" y="31"/>
      <point x="451" y="0"/>
      <point x="426" y="0" type="curve" smooth="yes"/>
      <point x="72" y="0" type="line" smooth="yes"/>
      <point x="53" y="0"/>
      <point x="45" y="7"/>
      <point x="45" y="24" type="curve" smooth="yes"/>
      <point x="45" y="26"/>
      <point x="45" y="28"/>
      <point x="112" y="670" type="curve" smooth="yes"/>
      <point x="114" y="691"/>
      <point x="124" y="700"/>
    </contour>
  </outline>
</glyph>
<glyph name="Ecircumflex" format="1">
  <advance width="546"/>
  <unicode hex="00CA"/>
  <outline>
    <contour>
      <point x="508" y="793" type="move" name="Anchor-1"/>
    </contour>
    <contour>
      <point x="251" y="0" type="move" name="Anchor-0"/>
    </contour>
    <contour>
      <point x="323" y="895" type="curve" smooth="yes"/>
      <point x="348" y="895" type="line" smooth="yes"/>
      <point x="367" y="895"/>
      <point x="384" y="888"/>
      <point x="392" y="873" type="curve" smooth="yes"/>
      <point x="439" y="785" type="line" smooth="yes"/>
      <point x="443" y="779"/>
      <point x="444" y="773"/>
      <point x="444" y="768" type="curve" smooth="yes"/>
      <point x="443" y="759"/>
      <point x="434" y="753"/>
      <point x="418" y="753" type="curve" smooth="yes"/>
      <point x="416" y="753" type="line" smooth="yes"/>
      <point x="403" y="753"/>
      <point x="393" y="757"/>
      <point x="384" y="766" type="curve" smooth="yes"/>
      <point x="329" y="840" type="line"/>
      <point x="260" y="766" type="line" smooth="yes"/>
      <point x="249" y="757"/>
      <point x="239" y="753"/>
      <point x="225" y="753" type="curve" smooth="yes"/>
      <point x="223" y="753" type="line" smooth="yes"/>
      <point x="209" y="753"/>
      <point x="202" y="757"/>
      <point x="202" y="765" type="curve" smooth="yes"/>
      <point x="202" y="771"/>
      <point x="204" y="777"/>
      <point x="209" y="785" type="curve" smooth="yes"/>
      <point x="275" y="873" type="line" smooth="yes"/>
      <point x="286" y="888"/>
      <point x="303" y="895"/>
    </contour>
    <contour>
      <point x="145" y="700" type="curve" smooth="yes"/>
      <point x="498" y="700" type="line" smooth="yes"/>
      <point x="510" y="700"/>
      <point x="515" y="693"/>
      <point x="515" y="678" type="curve" smooth="yes"/>
      <point x="515" y="655"/>
      <point x="515" y="624"/>
      <point x="490" y="624" type="curve" smooth="yes"/>
      <point x="195" y="624" type="line"/>
      <point x="171" y="396" type="line"/>
      <point x="435" y="396" type="line" smooth="yes"/>
      <point x="447" y="396"/>
      <point x="452" y="389"/>
      <point x="452" y="374" type="curve" smooth="yes"/>
      <point x="452" y="351"/>
      <point x="452" y="320"/>
      <point x="427" y="320" type="curve" smooth="yes"/>
      <point x="163" y="320" type="line"/>
      <point x="138" y="76" type="line"/>
      <point x="434" y="76" type="line" smooth="yes"/>
      <point x="446" y="76"/>
      <point x="451" y="69"/>
      <point x="451" y="54" type="curve" smooth="yes"/>
      <point x="451" y="31"/>
      <point x="451" y="0"/>
      <point x="426" y="0" type="curve" smooth="yes"/>
      <point x="72" y="0" type="line" smooth="yes"/>
      <point x="53" y="0"/>
      <point x="45" y="7"/>
      <point x="45" y="24" type="curve" smooth="yes"/>
      <point x="45" y="26"/>
      <point x="45" y="28"/>
      <point x="112" y="670" type="curve" smooth="yes"/>
      <point x="114" y="691"/>
      <point x="124" y="700"/>
    </contour>
  </outline>
</glyph>
<glyph name="Edieresis" format="1">
  <advance width="546"/>
  <unicode hex="00CB"/>
  <outline>
    <contour>
      <point x="343" y="877" type="move" name="Anchor-1"/>
    </contour>
    <contour>
      <point x="251" y="0" type="move" name="Anchor-0"/>
    </contour>
    <contour>
      <point x="268" y="879" type="curve" smooth="yes"/>
      <point x="297" y="879"/>
      <point x="306" y="871"/>
      <point x="306" y="857" type="curve" smooth="yes"/>
      <point x="301" y="806" type="line" smooth="yes"/>
      <point x="299" y="793"/>
      <point x="285" y="784"/>
      <point x="255" y="784" type="curve" smooth="yes"/>
      <point x="225" y="784"/>
      <point x="217" y="792"/>
      <point x="217" y="806" type="curve" smooth="yes"/>
      <point x="222" y="857" type="line" smooth="yes"/>
      <point x="224" y="870"/>
      <point x="236" y="879"/>
    </contour>
    <contour>
      <point x="412" y="879" type="curve" smooth="yes"/>
      <point x="441" y="879"/>
      <point x="450" y="871"/>
      <point x="450" y="857" type="curve" smooth="yes"/>
      <point x="445" y="806" type="line" smooth="yes"/>
      <point x="443" y="793"/>
      <point x="429" y="784"/>
      <point x="399" y="784" type="curve" smooth="yes"/>
      <point x="369" y="784"/>
      <point x="361" y="792"/>
      <point x="361" y="806" type="curve" smooth="yes"/>
      <point x="366" y="857" type="line" smooth="yes"/>
      <point x="367" y="870"/>
      <point x="380" y="879"/>
    </contour>
    <contour>
      <point x="145" y="700" type="curve" smooth="yes"/>
      <point x="498" y="700" type="line" smooth="yes"/>
      <point x="510" y="700"/>
      <point x="515" y="693"/>
      <point x="515" y="678" type="curve" smooth="yes"/>
      <point x="515" y="655"/>
      <point x="515" y="624"/>
      <point x="490" y="624" type="curve" smooth="yes"/>
      <point x="195" y="624" type="line"/>
      <point x="171" y="396" type="line"/>
      <point x="435" y="396" type="line" smooth="yes"/>
      <point x="447" y="396"/>
      <point x="452" y="389"/>
      <point x="452" y="374" type="curve" smooth="yes"/>
      <point x="452" y="351"/>
      <point x="452" y="320"/>
      <point x="427" y="320" type="curve" smooth="yes"/>
      <point x="163" y="320" type="line"/>
      <point x="138" y="76" type="line"/>
      <point x="434" y="76" type="line" smooth="yes"/>
      <point x="446" y="76"/>
      <point x="451" y="69"/>
      <point x="451" y="54" type="curve" smooth="yes"/>
      <point x="451" y="31"/>
      <point x="451" y="0"/>
      <point x="426" y="0" type="curve" smooth="yes"/>
      <point x="72" y="0" type="line" smooth="yes"/>
      <point x="53" y="0"/>
      <point x="45" y="7"/>
      <point x="45" y="24" type="curve" smooth="yes"/>
      <point x="45" y="26"/>
      <point x="45" y="28"/>
      <point x="112" y="670" type="curve" smooth="yes"/>
      <point x="114" y="691"/>
      <point x="124" y="700"/>
    </contour>
  </outline>
</glyph>
<glyph name="Igrave" format="1">
  <advance width="282"/>
  <unicode hex="00CC"/>
  <outline>
    <contour>
      <point x="201" y="877" type="move" name="Anchor-1"/>
    </contour>
    <contour>
      <point x="101" y="0" type="move" name="Anchor-0"/>
    </contour>
    <contour>
      <point x="109" y="909" type="curve" smooth="yes"/>
      <point x="141" y="909"/>
      <point x="160" y="902"/>
      <point x="171" y="883" type="curve" smooth="yes"/>
      <point x="220" y="799"/>
      <point x="229" y="780"/>
      <point x="229" y="771" type="curve" smooth="yes"/>
      <point x="229" y="765"/>
      <point x="221" y="762"/>
      <point x="206" y="762" type="curve" smooth="yes"/>
      <point x="186" y="762"/>
      <point x="165" y="768"/>
      <point x="155" y="780" type="curve" smooth="yes"/>
      <point x="70" y="877"/>
      <point x="61" y="885"/>
      <point x="61" y="897" type="curve" smooth="yes"/>
      <point x="62" y="906"/>
      <point x="78" y="909"/>
    </contour>
    <contour>
      <point x="173" y="702" type="curve" smooth="yes"/>
      <point x="181" y="702" type="line" smooth="yes"/>
      <point x="210" y="702"/>
      <point x="219" y="694"/>
      <point x="219" y="680" type="curve" smooth="yes"/>
      <point x="150" y="20" type="line" smooth="yes"/>
      <point x="148" y="6"/>
      <point x="134" y="-2"/>
      <point x="108" y="-2" type="curve" smooth="yes"/>
      <point x="100" y="-2" type="line" smooth="yes"/>
      <point x="70" y="-2"/>
      <point x="62" y="6"/>
      <point x="62" y="20" type="curve" smooth="yes"/>
      <point x="131" y="680" type="line" smooth="yes"/>
      <point x="132" y="694"/>
      <point x="145" y="702"/>
    </contour>
  </outline>
</glyph>
<glyph name="Iacute" format="1">
  <advance width="282"/>
  <unicode hex="00CD"/>
  <outline>
    <contour>
      <point x="225" y="877" type="move" name="Anchor-1"/>
    </contour>
    <contour>
      <point x="101" y="0" type="move" name="Anchor-0"/>
    </contour>
    <contour>
      <point x="276" y="909" type="curve" smooth="yes"/>
      <point x="307" y="909"/>
      <point x="323" y="906"/>
      <point x="323" y="897" type="curve" smooth="yes"/>
      <point x="323" y="886"/>
      <point x="312" y="877"/>
      <point x="217" y="780" type="curve" smooth="yes"/>
      <point x="205" y="768"/>
      <point x="184" y="762"/>
      <point x="164" y="762" type="curve" smooth="yes"/>
      <point x="149" y="762"/>
      <point x="142" y="765"/>
      <point x="142" y="771" type="curve" smooth="yes"/>
      <point x="142" y="780"/>
      <point x="154" y="800"/>
      <point x="211" y="883" type="curve" smooth="yes"/>
      <point x="224" y="902"/>
      <point x="244" y="909"/>
    </contour>
    <contour>
      <point x="173" y="702" type="curve" smooth="yes"/>
      <point x="181" y="702" type="line" smooth="yes"/>
      <point x="210" y="702"/>
      <point x="219" y="694"/>
      <point x="219" y="680" type="curve" smooth="yes"/>
      <point x="150" y="20" type="line" smooth="yes"/>
      <point x="148" y="6"/>
      <point x="134" y="-2"/>
      <point x="108" y="-2" type="curve" smooth="yes"/>
      <point x="100" y="-2" type="line" smooth="yes"/>
      <point x="70" y="-2"/>
      <point x="62" y="6"/>
      <point x="62" y="20" type="curve" smooth="yes"/>
      <point x="131" y="680" type="line" smooth="yes"/>
      <point x="132" y="694"/>
      <point x="145" y="702"/>
    </contour>
  </outline>
</glyph>
<glyph name="Icircumflex" format="1">
  <advance width="282"/>
  <unicode hex="00CE"/>
  <outline>
    <contour>
      <point x="365" y="793" type="move" name="Anchor-1"/>
    </contour>
    <contour>
      <point x="101" y="0" type="move" name="Anchor-0"/>
    </contour>
    <contour>
      <point x="180" y="895" type="curve" smooth="yes"/>
      <point x="205" y="895" type="line" smooth="yes"/>
      <point x="224" y="895"/>
      <point x="241" y="888"/>
      <point x="249" y="873" type="curve" smooth="yes"/>
      <point x="296" y="785" type="line" smooth="yes"/>
      <point x="300" y="779"/>
      <point x="301" y="773"/>
      <point x="301" y="768" type="curve" smooth="yes"/>
      <point x="300" y="759"/>
      <point x="291" y="753"/>
      <point x="275" y="753" type="curve" smooth="yes"/>
      <point x="273" y="753" type="line" smooth="yes"/>
      <point x="260" y="753"/>
      <point x="250" y="757"/>
      <point x="241" y="766" type="curve" smooth="yes"/>
      <point x="186" y="840" type="line"/>
      <point x="117" y="766" type="line" smooth="yes"/>
      <point x="106" y="757"/>
      <point x="96" y="753"/>
      <point x="82" y="753" type="curve" smooth="yes"/>
      <point x="80" y="753" type="line" smooth="yes"/>
      <point x="66" y="753"/>
      <point x="59" y="757"/>
      <point x="59" y="765" type="curve" smooth="yes"/>
      <point x="59" y="771"/>
      <point x="61" y="777"/>
      <point x="66" y="785" type="curve" smooth="yes"/>
      <point x="132" y="873" type="line" smooth="yes"/>
      <point x="143" y="888"/>
      <point x="160" y="895"/>
    </contour>
    <contour>
      <point x="173" y="702" type="curve" smooth="yes"/>
      <point x="181" y="702" type="line" smooth="yes"/>
      <point x="210" y="702"/>
      <point x="219" y="694"/>
      <point x="219" y="680" type="curve" smooth="yes"/>
      <point x="150" y="20" type="line" smooth="yes"/>
      <point x="148" y="6"/>
      <point x="134" y="-2"/>
      <point x="108" y="-2" type="curve" smooth="yes"/>
      <point x="100" y="-2" type="line" smooth="yes"/>
      <point x="70" y="-2"/>
      <point x="62" y="6"/>
      <point x="62" y="20" type="curve" smooth="yes"/>
      <point x="131" y="680" type="line" smooth="yes"/>
      <point x="132" y="694"/>
      <point x="145" y="702"/>
    </contour>
  </outline>
</glyph>
<glyph name="Idieresis" format="1">
  <advance width="282"/>
  <unicode hex="00CF"/>
  <outline>
    <contour>
      <point x="200" y="877" type="move" name="Anchor-1"/>
    </contour>
    <contour>
      <point x="101" y="0" type="move" name="Anchor-0"/>
    </contour>
    <contour>
      <point x="125" y="879" type="curve" smooth="yes"/>
      <point x="154" y="879"/>
      <point x="163" y="871"/>
      <point x="163" y="857" type="curve" smooth="yes"/>
      <point x="158" y="806" type="line" smooth="yes"/>
      <point x="156" y="793"/>
      <point x="142" y="784"/>
      <point x="112" y="784" type="curve" smooth="yes"/>
      <point x="82" y="784"/>
      <point x="74" y="792"/>
      <point x="74" y="806" type="curve" smooth="yes"/>
      <point x="79" y="857" type="line" smooth="yes"/>
      <point x="81" y="870"/>
      <point x="93" y="879"/>
    </contour>
    <contour>
      <point x="269" y="879" type="curve" smooth="yes"/>
      <point x="298" y="879"/>
      <point x="307" y="871"/>
      <point x="307" y="857" type="curve" smooth="yes"/>
      <point x="302" y="806" type="line" smooth="yes"/>
      <point x="300" y="793"/>
      <point x="286" y="784"/>
      <point x="256" y="784" type="curve" smooth="yes"/>
      <point x="226" y="784"/>
      <point x="218" y="792"/>
      <point x="218" y="806" type="curve" smooth="yes"/>
      <point x="223" y="857" type="line" smooth="yes"/>
      <point x="224" y="870"/>
      <point x="237" y="879"/>
    </contour>
    <contour>
      <point x="173" y="702" type="curve" smooth="yes"/>
      <point x="181" y="702" type="line" smooth="yes"/>
      <point x="210" y="702"/>
      <point x="219" y="694"/>
      <point x="219" y="680" type="curve" smooth="yes"/>
      <point x="150" y="20" type="line" smooth="yes"/>
      <point x="148" y="6"/>
      <point x="134" y="-2"/>
      <point x="108" y="-2" type="curve" smooth="yes"/>
      <point x="100" y="-2" type="line" smooth="yes"/>
      <point x="70" y="-2"/>
      <point x="62" y="6"/>
      <point x="62" y="20" type="curve" smooth="yes"/>
      <point x="131" y="680" type="line" smooth="yes"/>
      <point x="132" y="694"/>
      <point x="145" y="702"/>
    </contour>
  </outline>
</glyph>
<glyph name="Eth" format="1">
  <advance width="696"/>
  <unicode hex="00D0"/>
  <outline>
    <contour>
      <point x="348" y="700" type="move" name="Anchor-1"/>
    </contour>
    <contour>
      <point x="291" y="0" type="move" name="Anchor-0"/>
    </contour>
    <contour>
      <point x="150" y="700" type="curve" smooth="yes"/>
      <point x="365" y="700" type="line" smooth="yes"/>
      <point x="522" y="700"/>
      <point x="643" y="624"/>
      <point x="643" y="415" type="curve" smooth="yes"/>
      <point x="643" y="105"/>
      <point x="471" y="0"/>
      <point x="292" y="0" type="curve" smooth="yes"/>
      <point x="77" y="0" type="line" smooth="yes"/>
      <point x="58" y="0"/>
      <point x="50" y="7"/>
      <point x="50" y="24" type="curve" smooth="yes"/>
      <point x="50" y="31"/>
      <point x="64" y="166"/>
      <point x="80" y="320" type="curve"/>
      <point x="16" y="320" type="line" smooth="yes"/>
      <point x="4" y="320"/>
      <point x="-1" y="327"/>
      <point x="-1" y="342" type="curve" smooth="yes"/>
      <point x="-1" y="365"/>
      <point x="-1" y="396"/>
      <point x="24" y="396" type="curve" smooth="yes"/>
      <point x="88" y="396" type="line"/>
      <point x="117" y="670" type="line" smooth="yes"/>
      <point x="119" y="691"/>
      <point x="129" y="700"/>
    </contour>
    <contour>
      <point x="143" y="76" type="line"/>
      <point x="293" y="76" type="line" smooth="yes"/>
      <point x="423" y="76"/>
      <point x="552" y="163"/>
      <point x="552" y="401" type="curve" smooth="yes"/>
      <point x="552" y="567"/>
      <point x="464" y="624"/>
      <point x="350" y="624" type="curve" smooth="yes"/>
      <point x="200" y="624" type="line"/>
      <point x="176" y="396" type="line"/>
      <point x="288" y="396" type="line" smooth="yes"/>
      <point x="300" y="396"/>
      <point x="305" y="389"/>
      <point x="305" y="374" type="curve" smooth="yes"/>
      <point x="305" y="351"/>
      <point x="305" y="320"/>
      <point x="280" y="320" type="curve" smooth="yes"/>
      <point x="168" y="320" type="line"/>
    </contour>
  </outline>
</glyph>
<glyph name="Ntilde" format="1">
  <advance width="719"/>
  <unicode hex="00D1"/>
  <outline>
    <contour>
      <point x="426" y="877" type="move" name="Anchor-1"/>
    </contour>
    <contour>
      <point x="336" y="0" type="move" name="Anchor-0"/>
    </contour>
    <contour>
      <point x="533" y="848" type="curve" smooth="yes"/>
      <point x="546" y="857"/>
      <point x="559" y="857"/>
      <point x="570" y="846" type="curve" smooth="yes"/>
      <point x="586" y="830"/>
      <point x="581" y="817"/>
      <point x="569" y="806" type="curve" smooth="yes"/>
      <point x="539" y="781"/>
      <point x="504" y="762"/>
      <point x="463" y="762" type="curve" smooth="yes"/>
      <point x="425" y="762"/>
      <point x="405" y="770"/>
      <point x="388" y="778" type="curve" smooth="yes"/>
      <point x="370" y="786"/>
      <point x="357" y="793"/>
      <point x="344" y="793" type="curve" smooth="yes"/>
      <point x="322" y="793"/>
      <point x="307" y="783"/>
      <point x="290" y="774" type="curve" smooth="yes"/>
      <point x="270" y="764"/>
      <point x="258" y="767"/>
      <point x="248" y="780" type="curve" smooth="yes"/>
      <point x="236" y="796"/>
      <point x="239" y="809"/>
      <point x="249" y="816" type="curve" smooth="yes"/>
      <point x="278" y="837"/>
      <point x="315" y="857"/>
      <point x="356" y="857" type="curve" smooth="yes"/>
      <point x="394" y="857"/>
      <point x="417" y="845"/>
      <point x="432" y="839" type="curve" smooth="yes"/>
      <point x="448" y="832"/>
      <point x="462" y="826"/>
      <point x="476" y="826" type="curve" smooth="yes"/>
      <point x="498" y="826"/>
      <point x="515" y="836"/>
    </contour>
    <contour>
      <point x="621" y="702" type="curve" smooth="yes"/>
      <point x="628" y="702" type="line" smooth="yes"/>
      <point x="657" y="702"/>
      <point x="666" y="694"/>
      <point x="666" y="680" type="curve" smooth="yes"/>
      <point x="597" y="20" type="line" smooth="yes"/>
      <point x="595" y="6"/>
      <point x="581" y="-2"/>
      <point x="555" y="-2" type="curve" smooth="yes"/>
      <point x="535" y="-2" type="line" smooth="yes"/>
      <point x="516" y="-2"/>
      <point x="506" y="3"/>
      <point x="501" y="12" type="curve" smooth="yes"/>
      <point x="217" y="510" type="line"/>
      <point x="196" y="561" type="line"/>
      <point x="139" y="20" type="line" smooth="yes"/>
      <point x="137" y="6"/>
      <point x="123" y="-2"/>
      <point x="97" y="-2" type="curve" smooth="yes"/>
      <point x="90" y="-2" type="line" smooth="yes"/>
      <point x="60" y="-2"/>
      <point x="52" y="6"/>
      <point x="52" y="20" type="curve" smooth="yes"/>
      <point x="121" y="680" type="line" smooth="yes"/>
      <point x="122" y="694"/>
      <point x="135" y="702"/>
      <point x="163" y="702" type="curve" smooth="yes"/>
      <point x="184" y="702" type="line" smooth="yes"/>
      <point x="206" y="702"/>
      <point x="216" y="697"/>
      <point x="224" y="683" type="curve" smooth="yes"/>
      <point x="499" y="201" type="line"/>
      <point x="523" y="145" type="line"/>
      <point x="579" y="680" type="line" smooth="yes"/>
      <point x="580" y="694"/>
      <point x="593" y="702"/>
    </contour>
  </outline>
</glyph>
<glyph name="Ograve" format="1">
  <advance width="731"/>
  <unicode hex="00D2"/>
  <outline>
    <contour>
      <point x="423" y="877" type="move" name="Anchor-1"/>
    </contour>
    <contour>
      <point x="327" y="0" type="move" name="Anchor-0"/>
    </contour>
    <contour>
      <point x="331" y="909" type="curve" smooth="yes"/>
      <point x="363" y="909"/>
      <point x="382" y="902"/>
      <point x="393" y="883" type="curve" smooth="yes"/>
      <point x="442" y="799"/>
      <point x="451" y="780"/>
      <point x="451" y="771" type="curve" smooth="yes"/>
      <point x="451" y="765"/>
      <point x="443" y="762"/>
      <point x="428" y="762" type="curve" smooth="yes"/>
      <point x="408" y="762"/>
      <point x="387" y="768"/>
      <point x="377" y="780" type="curve" smooth="yes"/>
      <point x="292" y="877"/>
      <point x="283" y="885"/>
      <point x="283" y="897" type="curve" smooth="yes"/>
      <point x="284" y="906"/>
      <point x="300" y="909"/>
    </contour>
    <contour>
      <point x="402" y="706" type="curve" smooth="yes"/>
      <point x="582" y="706"/>
      <point x="678" y="609"/>
      <point x="678" y="420" type="curve" smooth="yes"/>
      <point x="678" y="142"/>
      <point x="541" y="-6"/>
      <point x="327" y="-6" type="curve" smooth="yes"/>
      <point x="148" y="-6"/>
      <point x="53" y="93"/>
      <point x="53" y="282" type="curve" smooth="yes"/>
      <point x="53" y="492"/>
      <point x="139" y="706"/>
    </contour>
    <contour>
      <point x="394" y="630" type="curve" smooth="yes"/>
      <point x="242" y="630"/>
      <point x="144" y="515"/>
      <point x="144" y="291" type="curve" smooth="yes"/>
      <point x="144" y="146"/>
      <point x="210" y="70"/>
      <point x="335" y="70" type="curve" smooth="yes"/>
      <point x="485" y="70"/>
      <point x="586" y="189"/>
      <point x="586" y="410" type="curve" smooth="yes"/>
      <point x="586" y="556"/>
      <point x="519" y="630"/>
    </contour>
  </outline>
</glyph>
<glyph name="Otilde" format="1">
  <advance width="731"/>
  <unicode hex="00D5"/>
  <outline>
    <contour>
      <point x="437" y="877" type="move" name="Anchor-1"/>
    </contour>
    <contour>
      <point x="327" y="0" type="move" name="Anchor-0"/>
    </contour>
    <contour>
      <point x="544" y="848" type="curve" smooth="yes"/>
      <point x="557" y="857"/>
      <point x="570" y="857"/>
      <point x="581" y="846" type="curve" smooth="yes"/>
      <point x="597" y="830"/>
      <point x="592" y="817"/>
      <point x="580" y="806" type="curve" smooth="yes"/>
      <point x="550" y="781"/>
      <point x="515" y="762"/>
      <point x="474" y="762" type="curve" smooth="yes"/>
      <point x="436" y="762"/>
      <point x="416" y="770"/>
      <point x="399" y="778" type="curve" smooth="yes"/>
      <point x="381" y="786"/>
      <point x="368" y="793"/>
      <point x="355" y="793" type="curve" smooth="yes"/>
      <point x="333" y="793"/>
      <point x="318" y="783"/>
      <point x="301" y="774" type="curve" smooth="yes"/>
      <point x="281" y="764"/>
      <point x="269" y="767"/>
      <point x="259" y="780" type="curve" smooth="yes"/>
      <point x="247" y="796"/>
      <point x="250" y="809"/>
      <point x="260" y="816" type="curve" smooth="yes"/>
      <point x="289" y="837"/>
      <point x="326" y="857"/>
      <point x="367" y="857" type="curve" smooth="yes"/>
      <point x="405" y="857"/>
      <point x="428" y="845"/>
      <point x="443" y="839" type="curve" smooth="yes"/>
      <point x="459" y="832"/>
      <point x="473" y="826"/>
      <point x="487" y="826" type="curve" smooth="yes"/>
      <point x="509" y="826"/>
      <point x="526" y="836"/>
    </contour>
    <contour>
      <point x="402" y="706" type="curve" smooth="yes"/>
      <point x="582" y="706"/>
      <point x="678" y="609"/>
      <point x="678" y="420" type="curve" smooth="yes"/>
      <point x="678" y="142"/>
      <point x="541" y="-6"/>
      <point x="327" y="-6" type="curve" smooth="yes"/>
      <point x="148" y="-6"/>
      <point x="53" y="93"/>
      <point x="53" y="282" type="curve" smooth="yes"/>
      <point x="53" y="492"/>
      <point x="139" y="706"/>
    </contour>
    <contour>
      <point x="394" y="630" type="curve" smooth="yes"/>
      <point x="242" y="630"/>
      <point x="144" y="515"/>
      <point x="144" y="291" type="curve" smooth="yes"/>
      <point x="144" y="146"/>
      <point x="210" y="70"/>
      <point x="335" y="70" type="curve" smooth="yes"/>
      <point x="485" y="70"/>
      <point x="586" y="189"/>
      <point x="586" y="410" type="curve" smooth="yes"/>
      <point x="586" y="556"/>
      <point x="519" y="630"/>
    </contour>
  </outline>
</glyph>
<glyph name="Odieresis" format="1">
  <advance width="731"/>
  <unicode hex="00D6"/>
  <outline>
    <contour>
      <point x="422" y="877" type="move" name="Anchor-1"/>
    </contour>
    <contour>
      <point x="327" y="0" type="move" name="Anchor-0"/>
    </contour>
    <contour>
      <point x="347" y="879" type="curve" smooth="yes"/>
      <point x="376" y="879"/>
      <point x="385" y="871"/>
      <point x="385" y="857" type="curve" smooth="yes"/>
      <point x="380" y="806" type="line" smooth="yes"/>
      <point x="378" y="793"/>
      <point x="364" y="784"/>
      <point x="334" y="784" type="curve" smooth="yes"/>
      <point x="304" y="784"/>
      <point x="296" y="792"/>
      <point x="296" y="806" type="curve" smooth="yes"/>
      <point x="301" y="857" type="line" smooth="yes"/>
      <point x="303" y="870"/>
      <point x="315" y="879"/>
    </contour>
    <contour>
      <point x="491" y="879" type="curve" smooth="yes"/>
      <point x="520" y="879"/>
      <point x="529" y="871"/>
      <point x="529" y="857" type="curve" smooth="yes"/>
      <point x="524" y="806" type="line" smooth="yes"/>
      <point x="522" y="793"/>
      <point x="508" y="784"/>
      <point x="478" y="784" type="curve" smooth="yes"/>
      <point x="448" y="784"/>
      <point x="440" y="792"/>
      <point x="440" y="806" type="curve" smooth="yes"/>
      <point x="445" y="857" type="line" smooth="yes"/>
      <point x="446" y="870"/>
      <point x="459" y="879"/>
    </contour>
    <contour>
      <point x="402" y="706" type="curve" smooth="yes"/>
      <point x="582" y="706"/>
      <point x="678" y="609"/>
      <point x="678" y="420" type="curve" smooth="yes"/>
      <point x="678" y="142"/>
      <point x="541" y="-6"/>
      <point x="327" y="-6" type="curve" smooth="yes"/>
      <point x="148" y="-6"/>
      <point x="53" y="93"/>
      <point x="53" y="282" type="curve" smooth="yes"/>
      <point x="53" y="492"/>
      <point x="139" y="706"/>
    </contour>
    <contour>
      <point x="394" y="630" type="curve" smooth="yes"/>
      <point x="242" y="630"/>
      <point x="144" y="515"/>
      <point x="144" y="291" type="curve" smooth="yes"/>
      <point x="144" y="146"/>
      <point x="210" y="70"/>
      <point x="335" y="70" type="curve" smooth="yes"/>
      <point x="485" y="70"/>
      <point x="586" y="189"/>
      <point x="586" y="410" type="curve" smooth="yes"/>
      <point x="586" y="556"/>
      <point x="519" y="630"/>
    </contour>
  </outline>
</glyph>
